<?xml version="1.0" encoding="UTF-8" standalone="no"?>
<!-- Created with Inkscape (http://www.inkscape.org/) -->

<svg
   xmlns:dc="http://purl.org/dc/elements/1.1/"
   xmlns:cc="http://creativecommons.org/ns#"
   xmlns:rdf="http://www.w3.org/1999/02/22-rdf-syntax-ns#"
   xmlns:svg="http://www.w3.org/2000/svg"
   xmlns="http://www.w3.org/2000/svg"
   xmlns:sodipodi="http://sodipodi.sourceforge.net/DTD/sodipodi-0.dtd"
   xmlns:inkscape="http://www.inkscape.org/namespaces/inkscape"
   id="svg3472"
   version="1.1"
   inkscape:version="0.91 r13725"
   width="150"
   height="150"
   viewBox="0 0 150 150"
   sodipodi:docname="c.svg">
  <metadata
     id="metadata3478">
    <rdf:RDF>
      <cc:Work
         rdf:about="">
        <dc:format>image/svg+xml</dc:format>
        <dc:type
           rdf:resource="http://purl.org/dc/dcmitype/StillImage" />
        <dc:title></dc:title>
      </cc:Work>
    </rdf:RDF>
  </metadata>
  <defs
     id="defs3476">
    <clipPath
       clipPathUnits="userSpaceOnUse"
       id="clipPath3486">
      <rect
         style="fill:#0000ff;fill-rule:evenodd;stroke:#000000;stroke-width:0.96795881px;stroke-linecap:butt;stroke-linejoin:miter;stroke-opacity:1"
         id="rect3488"
         width="149.16415"
         height="114.39055"
         x="3.9273753"
         y="24.71983" />
    </clipPath>
  </defs>
  <sodipodi:namedview
     pagecolor="#ffffff"
     bordercolor="#666666"
     borderopacity="1"
     objecttolerance="10"
     gridtolerance="10"
     guidetolerance="10"
     inkscape:pageopacity="0"
     inkscape:pageshadow="2"
     inkscape:window-width="1366"
     inkscape:window-height="705"
     id="namedview3474"
     showgrid="false"
     inkscape:zoom="1.7022016"
     inkscape:cx="-19.813801"
     inkscape:cy="40.542589"
     inkscape:window-x="-8"
     inkscape:window-y="-8"
     inkscape:window-maximized="1"
     inkscape:current-layer="svg3472"
     fit-margin-top="0"
     fit-margin-left="0"
     fit-margin-right="0"
     fit-margin-bottom="0" />
  <path
     style="fill:#489595;fill-opacity:1"
     d="M 42.855167,172.97594 C 38.545956,172.16584 33.75,165.62121 33.75,160.55087 c 0,-10.03585 13.563625,-15.73295 20.630984,-8.66559 9.071864,9.07186 1.196673,23.48237 -11.525817,21.09066 z m 9.548927,-4.84412 c 5.104147,-4.29487 5.172159,-9.37994 0.19206,-14.36004 -4.119444,-4.11945 -6.175352,-4.45278 -11.256753,-1.82509 -7.331485,3.79126 -7.032153,13.83859 0.535599,17.97783 3.894144,2.12992 6.36785,1.70875 10.529094,-1.7927 z M 42.1875,165.28757 C 40.911899,163.97298 40,161.12286 40,158.45057 c 0,-4.40397 0.170575,-4.58264 4.375,-4.58264 2.906215,0 4.375,0.58459 4.375,1.74126 0,0.9577 0.879677,2.07883 1.954839,2.49142 1.346333,0.51663 1.832711,2.0174 1.5625,4.82122 -0.34005,3.52852 -0.89212,4.10769 -4.142339,4.3456 -2.2674,0.16596 -4.61485,-0.61679 -5.9375,-1.97986 z M 50,162.61793 c 0,-2.91666 -0.555555,-3.75 -2.5,-3.75 -1.944445,0 -2.5,0.83334 -2.5,3.75 0,2.91666 0.555555,3.75 2.5,3.75 1.944445,0 2.5,-0.83334 2.5,-3.75 z m -6.25,-2.39584 c 0,-1.3177 0.703125,-2.64695 1.5625,-2.95386 0.859375,-0.30693 1.164885,-0.98579 0.67891,-1.50859 -0.485974,-0.52281 -1.751599,-0.61747 -2.8125,-0.21036 -2.105518,0.80796 -2.706826,7.06865 -0.67891,7.06865 0.6875,0 1.25,-1.07813 1.25,-2.39584 z m 31.605168,12.67678 c -1.523408,-0.244 -4.195283,-2.13769 -5.9375,-4.20819 -4.211019,-5.00451 -4.18567,-10.92111 0.06845,-15.97684 2.665149,-3.16736 4.159888,-3.84591 8.471866,-3.84591 6.476922,0 10.17608,2.47116 12.007918,8.02169 1.112247,3.37013 1.028023,5.17148 -0.401797,8.59352 -0.994961,2.38128 -2.447235,4.72404 -3.227276,5.20613 -2.482883,1.5345 -8.117808,2.6683 -10.981662,2.2096 z m 9.740986,-5.18479 c 2.202712,-2.20271 3.653846,-4.97131 3.653846,-6.97115 0,-3.71165 -6.077839,-10.625 -9.340921,-10.625 -3.089568,0 -9.008187,3.40231 -9.882603,5.681 -4.383658,11.42364 7.197995,20.28684 15.569678,11.91515 z M 73.75,165.11793 c -1.05239,-1.96641 -0.950612,-2.5 0.476854,-2.5 0.998147,0 2.036046,0.6637 2.306442,1.47489 0.874153,2.62246 4.716704,-0.0145 4.716704,-3.23689 0,-4.37571 -2.45728,-5.35896 -4.992656,-1.99774 -1.56003,2.06818 -2.411708,2.42575 -3.105176,1.3037 -0.562418,-0.91001 0.07497,-2.57666 1.549223,-4.05091 3.089805,-3.0898 7.354115,-2.08624 9.302119,2.18916 2.964429,6.50621 -6.907338,13.07016 -10.25351,6.81779 z m 34.15861,7.77781 c -8.689795,-1.3644 -12.336438,-14.25907 -5.86315,-20.73236 4.55764,-4.55764 12.53587,-4.62321 17.01921,-0.13988 8.88129,8.8813 1.41706,22.84638 -11.15606,20.87224 z m 10.64435,-6.15381 c 5.46908,-6.13015 0.65792,-15.874 -7.83801,-15.874 -8.0223,0 -13.091665,8.56149 -8.87755,14.99304 4.10421,6.26382 11.56249,6.6569 16.71556,0.88096 z m -6.46736,-1.78115 c -1.25918,-0.73212 -3.30628,-1.06521 -4.54913,-0.7402 -4.17496,1.09178 -5.56444,-0.88329 -3.65545,-5.196 0.94133,-2.1266 2.40609,-4.13309 3.25502,-4.45885 1.927,-0.73946 9.11396,1.68321 9.11396,3.07225 0,3.02131 -1.64121,4.65493 -4.14323,4.12404 -2.67099,-0.56674 -2.67778,-0.53585 -0.30548,1.38805 1.88886,1.53184 2.64602,1.62161 3.41835,0.40527 0.78015,-1.22865 0.99617,-1.21286 1.01122,0.0739 0.0107,0.91662 0.65384,1.244 1.46227,0.74436 0.89413,-0.5526 1.10383,-0.3429 0.55123,0.55123 -1.09677,1.77461 -3.14789,1.78659 -6.15876,0.036 z m 4.1644,-3.59285 c 0,-0.6875 0.5625,-1.25 1.25,-1.25 0.6875,0 1.25,0.5625 1.25,1.25 0,0.6875 -0.5625,1.25 -1.25,1.25 -0.6875,0 -1.25,-0.5625 -1.25,-1.25 z M 5.382205,169.60115 c -2.912242,-2.505 -3.507202,-4.00771 -3.507202,-8.85822 0,-4.85051 0.59496,-6.35323 3.507202,-8.85823 8.007446,-6.88772 20.867795,-1.4286 20.867795,8.85823 0,10.28682 -12.860349,15.74595 -20.867795,8.85822 z m 13.278394,-0.062 c 3.805466,-1.96787 5.089401,-4.18696 5.089401,-8.79622 0,-4.60926 -1.283935,-6.82835 -5.089401,-8.79624 -4.903971,-2.53594 -6.640914,-2.31501 -11.064692,1.40735 -5.325714,4.4813 -5.325714,10.29648 0,14.77778 4.423778,3.72236 6.160721,3.94328 11.064692,1.40735 z M 7.75,163.61793 c -2.033493,-2.03349 -1.885464,-4.12398 0.427977,-6.04396 1.460324,-1.21197 2.27897,-1.24909 3.375,-0.15306 1.096031,1.09603 0.931579,1.44702 -0.677977,1.44702 -1.16875,0 -2.125,0.84375 -2.125,1.875 0,1.03125 0.876947,1.875 1.948771,1.875 1.071824,0 1.601127,0.5625 1.176229,1.25 -1.022871,1.65504 -2.297192,1.57781 -4.125,-0.25 z m 7.5,0 c -2.033493,-2.03349 -1.885464,-4.12398 0.427978,-6.04396 1.460323,-1.21197 2.278968,-1.24909 3.374999,-0.15306 1.09603,1.09603 0.931579,1.44702 -0.677977,1.44702 -1.16875,0 -2.125,0.84375 -2.125,1.875 0,1.03125 0.876947,1.875 1.948771,1.875 1.071824,0 1.601128,0.5625 1.176229,1.25 -1.022871,1.65504 -2.297191,1.57781 -4.125,-0.25 z m 122.6322,5.98322 c -2.91224,-2.505 -3.5072,-4.00771 -3.5072,-8.85822 0,-4.85051 0.59496,-6.35323 3.5072,-8.85823 6.7686,-5.82209 17.24173,-3.0209 20.79708,5.56249 1.25208,3.0228 1.17357,4.32945 -0.44866,7.46649 -4.19852,8.11905 -13.79022,10.3286 -20.34842,4.68747 z m 13.2784,-0.062 c 3.80546,-1.96787 5.0894,-4.18696 5.0894,-8.79622 0,-4.60926 -1.28394,-6.82835 -5.0894,-8.79624 -4.90397,-2.53594 -6.64091,-2.31501 -11.06469,1.40735 -2.8734,2.41782 -3.84591,4.28623 -3.84591,7.38889 0,3.10266 0.97251,4.97107 3.84591,7.38889 4.42378,3.72236 6.16071,3.94328 11.06469,1.40735 z M 145,166.61793 c 0,-1.2375 -0.61525,-2.86525 -1.36723,-3.61723 -2.19604,-2.19605 -0.79028,-5.78082 2.35766,-6.01218 3.7519,-0.27574 4.22533,0.71485 3.25171,6.80357 C 148.43143,168.86204 145,171.14783 145,166.61793 Z m 0,-12.125 c 0,-1.03125 0.5625,-1.875 1.25,-1.875 0.6875,0 1.25,0.84375 1.25,1.875 0,1.03125 -0.5625,1.875 -1.25,1.875 -0.6875,0 -1.25,-0.84375 -1.25,-1.875 z m -21.875,-18.91156 c -5.5,-1.66539 -17.875,-5.23798 -27.5,-7.93908 C 60.749894,117.85517 19.20915,102.20563 10.527323,95.583679 l -4.518062,-3.446094 3.305266,-2.40772 c 2.910295,-2.12 3.093572,-2.65145 1.533734,-4.44733 -0.974342,-1.12178 -2.08529,-5.97711 -2.468774,-10.78961 -0.425489,-5.339656 -0.294129,-7.53202 0.337035,-5.625 0.568853,1.71875 1.090348,5.508569 1.158878,8.421819 0.110661,4.704285 0.648972,5.627795 4.8121,8.255501 14.063819,8.876864 62.066016,25.303055 64.139377,21.948295 0.901967,-1.45941 2.273524,-0.47422 14.529989,10.43689 3.66828,3.26562 7.107694,5.9375 7.643144,5.9375 0.53545,0 0.95137,-1.53013 0.92427,-3.40028 -0.0361,-2.49228 0.86227,-3.8426 3.36434,-5.05676 4.72174,-2.29126 7.81891,-0.35504 10.00575,6.25522 1.91691,5.79433 7.64774,9.74853 12.72258,8.77842 2.69784,-0.51574 11.76686,-14.88905 16.37447,-25.9516 2.09349,-5.026341 4.50637,-24.375005 3.03968,-24.375005 -0.43196,0 -1.50028,2.390625 -2.37403,5.3125 -2.09756,7.01434 -6.84488,16.290335 -9.43903,18.443285 -1.15259,0.95656 0.19122,-2.77456 3.01935,-8.383291 8.6102,-17.075729 10.62135,-29.901407 6.2077,-39.588306 -1.79418,-3.937781 -3.59509,-4.280863 -3.59509,-0.684882 0,3.354943 -5.69609,17.583605 -9.91113,24.757714 -5.11901,8.7127 -6.94004,7.57898 -2.09075,-1.301639 5.83959,-10.694145 12.36003,-27.463032 11.1262,-28.613698 -0.54962,-0.512582 -6.90557,-1.875673 -14.12432,-3.02909 -7.21875,-1.153418 -14.06584,-2.360942 -15.21575,-2.683387 -1.59122,-0.446187 -3.76298,2.531263 -9.0896,12.461699 -3.849366,7.176379 -7.830401,13.738093 -8.846748,14.581584 -3.203807,2.658923 -2.185162,-0.95686 1.971653,-6.998584 2.100755,-3.053344 4.632005,-7.496 5.624995,-9.872571 2.10137,-5.029278 2.4612,-13.704155 0.51865,-12.503593 -0.70773,0.437407 -5.191175,6.614673 -9.9632,13.727259 -4.772025,7.112586 -9.396091,13.375526 -10.275704,13.917642 -1.020588,0.629003 -0.881837,-0.127624 0.383446,-2.090987 1.090508,-1.69216 3.048695,-4.764155 4.351527,-6.826655 1.302831,-2.0625 5.10341,-7.622049 8.445732,-12.354552 3.948099,-5.590246 5.588153,-8.906646 4.681646,-9.466897 C 98.069232,38.447187 89.157669,36.806966 79.033174,35.276541 68.908677,33.746115 54.290799,31.334715 46.548997,29.917875 L 32.472995,27.3418 27.93671,30.917362 c -2.494956,1.96656 -8.254505,6.396813 -12.798998,9.845007 -8.132301,6.170491 -8.272911,6.377645 -8.908879,13.125 l -0.646167,6.855556 -0.732234,-5 c -1.058809,-7.22999 0.389406,-9.844171 8.521489,-15.382186 3.989194,-2.716674 9.718873,-7.135278 12.73262,-9.819121 l 5.47954,-4.879714 16.39546,2.764885 c 9.017503,1.520686 23.989209,3.960895 33.270459,5.422687 21.47395,3.382134 21.16133,3.274722 23.13845,7.950258 l 1.66743,3.943191 1.41883,-3.707645 c 1.12207,-2.932169 1.65573,-3.324336 2.55147,-1.875 0.62295,1.007955 1.57503,1.8618 2.11573,1.897433 0.5407,0.03564 7.77773,1.36147 16.08229,2.946302 l 15.0992,2.881514 3.0258,5.535227 c 2.78492,5.094575 3.0258,6.899993 3.0258,22.678698 0,9.428911 -0.41111,19.815355 -0.91359,23.080975 -0.74188,4.821641 -0.5657,5.937501 0.9375,5.937501 4.3743,0 0.15347,11.24432 -8.98538,23.93706 -3.88595,5.39712 -7.11558,9.75476 -7.17695,9.68365 -0.0614,-0.0711 -4.61158,-1.49189 -10.11158,-3.15727 z m -10.92201,-8.27594 c 1.56897,-1.94705 -0.24313,-7.19501 -2.47521,-7.16836 -3.41315,0.0408 -5.07424,2.18027 -4.24815,5.4717 0.8801,3.5066 4.52389,4.42612 6.72336,1.69666 z M 78.75,117.54415 c 0,-0.72807 -0.5625,-0.97612 -1.25,-0.55122 -0.6875,0.4249 -1.25,1.0206 -1.25,1.32377 0,0.30318 0.5625,0.55123 1.25,0.55123 0.6875,0 1.25,-0.5957 1.25,-1.32378 z m -2.800315,-3.38151 c 0.533072,-1.61844 -7.657224,-5.7672 -9.905722,-5.0177 -0.672844,0.22428 0.0069,1.97183 1.510585,3.88343 2.812761,3.57583 7.387368,4.19392 8.395137,1.13427 z m 69.502355,-2.16971 c 0.39572,-1.03125 0.23484,-1.875 -0.35754,-1.875 -0.59236,0 -1.4008,0.84375 -1.79654,1.875 -0.39572,1.03125 -0.23483,1.875 0.35754,1.875 0.59236,0 1.4008,-0.84375 1.79654,-1.875 z M 63.75,107.46487 c 0,-0.60331 -0.84375,-1.09694 -1.875,-1.09694 -1.077724,0 -1.875,1.12812 -1.875,2.65305 0,2.21655 0.308498,2.39704 1.875,1.09695 1.03125,-0.85586 1.875,-2.04974 1.875,-2.65306 z m -6.25,-0.93835 c 0,-0.60027 -4.78125,-2.76347 -10.625,-4.8071 -10.690071,-3.738461 -12.542079,-3.723891 -8.354608,0.0657 4.472992,4.048 18.979608,7.67196 18.979608,4.74138 z m -19.375,-2.65859 c -0.424899,-0.6875 -1.301845,-1.25 -1.948771,-1.25 -0.646927,0 -1.176229,0.5625 -1.176229,1.25 0,0.6875 0.876947,1.25 1.948771,1.25 1.071824,0 1.601128,-0.5625 1.176229,-1.25 z m -4.375,-3.60421 c 0,-1.152161 -5.149501,-2.912961 -6.008081,-2.054381 -0.270741,0.27075 -0.121488,1.09219 0.331682,1.825431 0.991463,1.60421 5.676399,1.79318 5.676399,0.22895 z m -10,-3.936071 c 0,-1.48764 -1.165443,-2.97857 -2.8125,-3.597984 -3.888516,-1.46235 -4.510754,0.996174 -0.976456,3.858074 3.538882,2.86561 3.788956,2.84845 3.788956,-0.26009 z m -9.261555,-4.489834 c -0.64143,-1.67154 -1.150044,-1.80829 -2.331474,-0.62686 -1.181431,1.18143 -1.112216,1.757584 0.317278,2.641054 2.327645,1.43857 3.058636,0.70758 2.014196,-2.014194 z M 96.25,118.86793 c 0,-0.6875 0.248052,-1.25 0.551229,-1.25 0.303176,0 0.898872,0.5625 1.323771,1.25 0.424899,0.6875 0.176845,1.25 -0.551229,1.25 -0.728074,0 -1.323771,-0.5625 -1.323771,-1.25 z m -2.971826,-4.6875 c -0.352164,-1.20313 -0.971032,-7.53125 -1.375264,-14.0625 -0.404231,-6.531251 -1.046111,-14.891215 -1.426399,-18.57769 -0.44069,-4.272014 -0.242796,-6.425414 0.5457,-5.938096 0.680423,0.420523 1.61835,6.811732 2.084283,14.202681 0.465932,7.390964 1.278675,16.391235 1.806093,20.000605 0.900587,6.16312 -0.227298,9.18225 -1.634413,4.375 z m 21.723256,-6.25194 c -5.81709,-2.90692 -7.19877,-6.30177 -8.01186,-19.685565 -0.79366,-13.064013 0.97327,-8.39079 2.33933,6.187114 0.94465,10.080871 1.27111,10.457981 11.9211,13.770881 5.02545,1.56327 5.2253,1.75847 1.875,1.83145 -2.0625,0.0449 -5.7181,-0.90183 -8.12357,-2.10388 z M 85,106.71472 c 0,-1.57281 3.572955,-4.6905 4.412871,-3.85059 0.33135,0.33136 -0.525992,1.62369 -1.905207,2.87187 C 86.128449,106.98417 85,107.42459 85,106.71472 Z M 76.983475,89.180425 C 74.798786,72.973744 74.80426,73.096456 76.37966,75.645119 c 1.48401,2.400813 3.285849,19.47281 2.055229,19.47281 -0.358066,0 -1.011203,-2.671874 -1.451414,-5.937504 z m 38.418735,-9.470097 c -5.98265,-2.209774 -6.28195,-3.299878 -0.50329,-1.833098 2.8056,0.712135 5.10108,1.788869 5.10108,2.392743 0,0.603873 -0.14062,1.055158 -0.3125,1.002855 -0.17187,-0.0523 -2.10026,-0.755429 -4.28529,-1.5625 z M 98.4375,75.506268 C 97.234375,75.191859 96.25,74.472596 96.25,73.907909 c 0,-1.064539 8.38694,0.430286 9.68236,1.725712 0.82846,0.828458 -4.16181,0.743663 -7.49486,-0.127353 z M 50,64.955259 C 29.037625,60.147575 11.25,53.966884 11.25,51.490741 c 0,-0.668816 3.515625,0.374442 7.8125,2.318349 4.296875,1.943907 16.25,5.642176 26.5625,8.218376 10.3125,2.576199 18.984375,4.887951 19.270834,5.137229 C 66.030621,68.15219 60.110483,67.27408 50,64.955259 Z M 6.348684,63.347091 c -0.05428,-1.317707 0.24116,-2.055988 0.656524,-1.640625 0.415365,0.415365 0.459773,1.49349 0.09868,2.395834 C 6.704855,65.099466 6.40866,64.80327 6.34868,63.347091 Z M 59.6875,12.522189 c -5.076496,-2.9669703 -1.348796,-9.9042645 5.321979,-9.9042645 1.884386,0 2.541137,-0.645857 2.224397,-2.18750002 C 66.9078,-1.1566695 65.68183,-1.7064885 62.767221,-1.5727655 c -4.463226,0.204774 -5.399698,-1.45206 -1.517221,-2.68431 6.194501,-1.9660584 10,2.533616 10,11.8241412 0,4.1508753 -0.373433,4.7771873 -2.8125,4.7170633 -1.546875,-0.03814 -3.65625,0.287492 -4.6875,0.72361 -1.03125,0.436117 -2.859375,0.21762 -4.0625,-0.48555 z M 66,9.8679247 c 2.004511,-2.004511 1.913889,-6 -0.136088,-6 -0.899848,0 -2.706741,0.78288 -4.015317,1.739734 -2.021488,1.478149 -2.128371,2.041998 -0.710855,3.75 1.995038,2.4038743 2.876181,2.4963453 4.86226,0.510266 z m 67.4375,3.0545133 c -3.47823,-0.775661 -2.53398,-2.674234 1.20101,-2.414843 4.78213,0.332115 5.00735,-3.0273663 0.37839,-5.6440333 -2.23485,-1.26332 -3.7669,-3.1519042 -3.7669,-4.64351922 0,-3.08867198 4.19968,-5.52459998 7.64141,-4.43223398 3.02483,0.96004 2.05989,2.364579 -1.6609,2.417571 -4.16036,0.05925 -4.01447,2.822221 0.2659,5.0356872 3.07886,1.592147 3.82356,2.703933 3.51723,5.250987 -0.40539,3.3704863 -3.69712,5.2954253 -7.57614,4.4303843 z M 24.318181,9.5497437 C 16.97767,2.2092305 23.127369,-11.756574 33.321342,-10.896197 c 2.535725,0.214017 4.804113,0.9804166 5.040863,1.7031107 0.262469,0.8012013 -1.180389,1.1259323 -3.697237,0.8321044 -5.828064,-0.6803936 -9.859092,2.8478834 -10.027146,8.77655738 -0.177952,6.27784222 3.10663,9.70234952 9.305913,9.70234952 2.643445,0 4.806265,0.5625 4.806265,1.25 0,0.6875 -2.556819,1.25 -5.681819,1.25 -4.36588,0 -6.392423,-0.710606 -8.75,-3.0681813 z M 41.25,0.11792448 c 0,-7.49999998 0.5,-12.50000048 1.25,-12.50000048 0.6875,0 1.25,2.25 1.25,5.0000005 0,4.745759 1.440933,6.47487898 3.125,3.75 1.139596,-1.843905 3.92553,-1.520899 6.160714,0.714286 2.21233,2.21232898 2.824899,15.5357145 0.714286,15.5357145 -0.6875,0 -1.25,-2.7436253 -1.25,-6.0969443 0,-7.17378722 -2.145443,-9.8497482 -6.170098,-7.6958182 C 44.255191,-0.06448652 43.75,1.4211345 43.75,6.4119047 c 0,3.413311 -0.5625,6.2060203 -1.25,6.2060203 -0.75,0 -1.25,-5.0000003 -1.25,-12.50000052 z m 32.5,4.24126422 c 0,-7.1135362 0.281966,-8.1505352 2.033435,-7.4784342 1.11839,0.429166 2.778896,0.161625 3.690015,-0.594537 2.411005,-2.000955 6.735971,-0.187771 8.098155,3.39504298 C 89.48829,4.7225247 89.063144,12.617925 86.875,12.617925 85.464609,12.617925 85,11.107154 85,6.5209807 85,2.6264135 84.3227,-0.13807152 83.125,-1.1320755 79.929748,-3.7838995 77.5,-0.47812152 77.5,6.5209807 c 0,4.5861733 -0.464609,6.0969443 -1.875,6.0969443 -1.477473,0 -1.875,-1.750971 -1.875,-8.2587363 z m 17.5,0.26597 c 0,-7.4760042 0.181839,-7.9882852 2.8125,-7.9234382 1.546875,0.03813 3.753384,-0.346115 4.903351,-0.853881 3.768949,-1.664171 7.284149,3.41263898 7.284149,10.5200852 0,4.7222223 -0.45833,6.2500003 -1.875,6.2500003 -1.43489,0 -1.875,-1.582362 -1.875,-6.7412643 0,-5.07256422 -0.50335,-6.9344162 -2.03344,-7.5215662 C 97.003561,-2.9737845 95,0.01911048 95,6.5209807 c 0,4.5861733 -0.464609,6.0969443 -1.875,6.0969443 -1.471177,0 -1.875,-1.721419 -1.875,-7.9927663 z m 18.79398,5.5749423 c -3.05821,-5.7143153 0.23553,-15.0821765 5.30289,-15.0821765 3.12621,0 7.15313,3.91024898 7.15313,6.94588 0,2.7863652 -0.49314,3.0541202 -5.625,3.0541202 -5.99552,0 -6.87206,1.074371 -3.57031,4.376124 1.31122,1.3112173 3.12044,1.7872113 5,1.3154713 1.65052,-0.414254 2.94531,-0.179241 2.94531,0.53459 0,0.700599 -2.23021,1.273815 -4.95602,1.273815 -3.62055,0 -5.3047,-0.651516 -6.25,-2.417824 z m 9.67329,-9.0553725 c -0.95324,-2.859718 -4.3838,-4.109668 -6.48749,-2.363763 -3.13705,2.603518 -2.33359,3.836959 2.49939,3.836959 2.88296,0 4.30417,-0.52499 3.9881,-1.473196 z M 125,0.01375848 c 0,-9.52626348 0.38156,-12.47767448 1.5625,-12.08617448 1.07196,0.355371 1.67482,4.3124019 1.92026,12.60416648 0.30169,10.19181352 0.0568,12.08617452 -1.5625,12.08617452 C 125.3202,12.617925 125,10.516177 125,0.01375848 Z"
     id="path3482"
     inkscape:connector-curvature="0"
     clip-path="url(#clipPath3486)"
     transform="matrix(1.0056035,0,0,1.0056035,-3.9493824,-9.889887)" />
</svg>
