<?xml version="1.0" encoding="UTF-8" standalone="no"?>
<!-- Created with Inkscape (http://www.inkscape.org/) -->

<svg
   xmlns:dc="http://purl.org/dc/elements/1.1/"
   xmlns:cc="http://creativecommons.org/ns#"
   xmlns:rdf="http://www.w3.org/1999/02/22-rdf-syntax-ns#"
   xmlns:svg="http://www.w3.org/2000/svg"
   xmlns="http://www.w3.org/2000/svg"
   xmlns:sodipodi="http://sodipodi.sourceforge.net/DTD/sodipodi-0.dtd"
   xmlns:inkscape="http://www.inkscape.org/namespaces/inkscape"
   id="svg3498"
   version="1.1"
   inkscape:version="0.91 r13725"
   width="150"
   height="150"
   viewBox="0 0 150 150.00001"
   sodipodi:docname="cr.svg">
  <metadata
     id="metadata3504">
    <rdf:RDF>
      <cc:Work
         rdf:about="">
        <dc:format>image/svg+xml</dc:format>
        <dc:type
           rdf:resource="http://purl.org/dc/dcmitype/StillImage" />
        <dc:title></dc:title>
      </cc:Work>
    </rdf:RDF>
  </metadata>
  <defs
     id="defs3502">
    <clipPath
       clipPathUnits="userSpaceOnUse"
       id="clipPath3512">
      <rect
         style="fill:#0000ff;fill-rule:evenodd;stroke:#000000;stroke-width:0.80271226px;stroke-linecap:butt;stroke-linejoin:miter;stroke-opacity:1"
         id="rect3514"
         width="124.82693"
         height="123.08387"
         x="192.51079"
         y="51.052593" />
    </clipPath>
    <clipPath
       clipPathUnits="userSpaceOnUse"
       id="clipPath4137">
      <rect
         style="fill:#489595;fill-opacity:1"
         id="rect4139"
         width="114.61555"
         height="120.48324"
         x="197.59613"
         y="52.870861" />
    </clipPath>
  </defs>
  <sodipodi:namedview
     pagecolor="#ffffff"
     bordercolor="#666666"
     borderopacity="1"
     objecttolerance="10"
     gridtolerance="10"
     guidetolerance="10"
     inkscape:pageopacity="0"
     inkscape:pageshadow="2"
     inkscape:window-width="1366"
     inkscape:window-height="705"
     id="namedview3500"
     showgrid="false"
     fit-margin-top="0"
     fit-margin-left="0"
     fit-margin-right="0"
     fit-margin-bottom="0"
     inkscape:zoom="1.6033897"
     inkscape:cx="-70.530811"
     inkscape:cy="65.669683"
     inkscape:window-x="-8"
     inkscape:window-y="-8"
     inkscape:window-maximized="1"
     inkscape:current-layer="svg3498" />
  <path
     style="fill:#489595;fill-opacity:1"
     clip-path="url(#clipPath4137)"
     d="m 202.97266,-13.572266 c -1.04947,0.100494 -2.18486,0.652122 -4.00977,1.714844 -7.92103,4.6127641 -9.20759,13.9751816 -2.63086,19.1484376 3.34599,2.631952 10.9084,3.4123074 12.23633,1.2636719 0.46229,-0.748004 -1.10037,-1.25 -3.89063,-1.25 -6.16,0 -9.23437,-2.913317 -9.23437,-8.75 0,-5.7619804 2.77516,-8.4259235 9.375,-8.9999995 l 5,-0.433594 -3.35547,-1.697266 c -1.47724,-0.746517 -2.44077,-1.096587 -3.49023,-0.996094 z m 38.36132,2.359375 c -0.29407,0.02119 -0.65037,0.277324 -1.11718,0.744141 -1.82837,1.8283696 -1.62274,14.3191757 0.29492,17.9023438 1.31187,2.4512569 6.18164,3.3342682 6.18164,1.1210937 0,-0.6875 -0.84375,-1.25 -1.875,-1.25 -1.38889,0 -1.875,-1.458334 -1.875,-5.625 0,-4.166667 0.48611,-5.625 1.875,-5.625 1.03125,0 1.875,-0.5625 1.875,-1.25 0,-0.6875 -0.7794,-1.25 -1.73047,-1.25 -0.95106,0 -2.05757,-1.2559978 -2.45898,-2.7910156 -0.36433,-1.3931629 -0.6798,-2.0118829 -1.16993,-1.9765629 z m -29.64062,4.7675785 c -1.64684,0 -1.61373,10.7364603 0.043,13.8320313 1.44641,2.7026492 6.16063,3.2143692 8.45703,0.9179687 1.16666,-1.166666 1.5,-1.166666 1.5,0 0,0.825 0.5625,1.5 1.25,1.5 0.70512,0 1.25,-3.541666 1.25,-8.125 0,-9.2730037 -2.16789,-11.1011943 -2.74414,-2.31445312 -0.7214,11.00024262 -8.50586,10.04032892 -8.50586,-1.04882818 0,-2.6185983 -0.5625,-4.7617187 -1.25,-4.7617187 z m 43.75586,0 c -1.55496,-0.066611 -3.24563,0.3071545 -4.94531,1.2167969 -4.42044,2.365749 -4.15192,11.013691 0.4375,14.078125 4.12882,2.7568896 10.23618,-0.1045164 11.38476,-5.3339844 1.2281,-5.5914945 -2.21209,-9.7611061 -6.87695,-9.9609375 z m 41.15039,0 c -3.13416,0 -4.09489,0.7431702 -5.58789,4.3164063 -1.93452,4.6299539 -0.9163,9.8485321 2.16211,11.0800781 2.78234,1.1131001 8.33107,0.9188296 9.0957,-0.3183594 0.39872,-0.64514 -1.3917,-1.348265 -3.97851,-1.5625 -3.29292,-0.272714 -4.82695,-1.046581 -5.11719,-2.578125 -0.33901,-1.788895 0.49997,-2.1875 4.60351,-2.1875 6.03311,0 7.31104,-1.57132547 4.61914,-5.6796875 -1.40298,-2.14123 -3.15699,-3.0703125 -5.79687,-3.0703125 z m 10.09375,0 c -1.35446,0 -1.76708,14.0668995 -0.45117,15.3828125 1.73934,1.739332 2.95117,-0.8040886 2.95117,-6.1972656 0,-4.616998 0.46366,-5.7897506 2.5,-6.3222656 1.375,-0.35957 2.5,-1.1504967 2.5,-1.7578126 0,-1.6032127 -3.00106,-1.3544103 -4.75,0.3945313 -1.16666,1.166667 -1.5,1.166667 -1.5,0 0,-0.825 -0.5625,-1.5 -1.25,-1.5 z m -25.35938,0.011719 c -1.21722,0.058249 -2.29342,0.4715796 -2.80468,1.2988282 -0.54458,0.8811425 -1.30412,0.9000179 -2.32032,0.056641 -0.83139,-0.6899867 -3.90962,-1.1578644 -6.83984,-1.0410156 -4.70497,0.1876204 -5.24812,0.5093218 -4.64453,2.7558594 0.37591,1.399129 0.69217,4.9335937 0.70117,7.8554687 0.0245,7.6105208 2.31314,6.5753078 2.76367,-1.25 0.32618,-5.665451 0.75373,-6.615983 3.12305,-6.953125 2.48735,-0.3539367 2.78012,0.2229948 3.125,6.1523437 0.52093,8.9560041 3.25065,9.5986421 3.75,0.8828126 0.3249,-5.6709301 0.76777,-6.6987694 3.0293,-7.0214844 2.92699,-0.417675 4.17938,2.3892591 4.20898,9.4394531 0.009,2.234375 0.58008,4.0625 1.26758,4.0625 1.64683,0 1.61178,-10.73646352 -0.0449,-13.8320313 -0.86307,-1.6126461 -3.28574,-2.5033317 -5.31446,-2.40625 z m -48.97656,0.035156 c -1.65256,0.1223478 -3.52581,0.7563451 -4.40234,1.8125 -2.05438,2.4753736 -0.80559,5.33341153 3.10937,7.1171875 3.93813,1.794331 3.43399,4.0163159 -1.03125,4.5449219 -1.83761,0.217542 -3.33984,0.920667 -3.33984,1.5625 0,0.641835 1.575,1.1660156 3.5,1.1660156 7.04222,0 8.86469,-6.21297 2.75,-9.375 -5.31853,-2.750318 -4.80171,-5.2120647 0.9375,-4.4667969 0.85937,0.1115944 1.5625,-0.3858779 1.5625,-1.1035156 0,-0.9912608 -1.43337,-1.3801603 -3.08594,-1.2578125 z m 64.56641,1.7695313 c 1.77005,-0.045732 3.51953,1.039302 3.51953,2.6933593 0,1.10140405 -1.37801,1.7402344 -3.75,1.7402344 -4.03363,0 -4.7859,-1.3342745 -2.03516,-3.6171875 0.65122,-0.5404647 1.46106,-0.795619 2.26563,-0.8164062 z m -41.98633,0.2597656 c 0.77574,0.035832 1.56971,0.300984 2.30664,0.8398437 1.48628,1.086794 2.01894,2.89888806 1.73438,5.890625 -0.34274,3.603298 -0.95533,4.3821498 -3.68946,4.6992188 -3.51087,0.407146 -4.8457,-1.4358941 -4.8457,-6.68750002 0,-2.88461398 2.16691,-4.84968388 4.49414,-4.74218748 z M 204.81836,26.054688 c -1.52516,0 -1.875,2.061487 -1.875,11.042968 0,6.072918 0.35918,11.400201 0.79883,11.839844 2.06642,2.066426 2.95117,-1.440279 2.95117,-11.705078 0,-9.101093 -0.34814,-11.177734 -1.875,-11.177734 z m 80.625,0 c -1.4549,0 -1.74762,21.578582 -0.3125,23.037109 0.51563,0.524038 1.08785,-0.928437 1.27344,-3.228516 0.5655,-7.008571 1.42427,-9.49664 3.56054,-10.316406 3.48792,-1.338438 5.47852,1.653615 5.47852,8.236328 0,3.795506 0.48114,5.871663 1.25,5.396485 0.6875,-0.424899 1.25,-3.519013 1.25,-6.876954 0,-4.834359 -0.56077,-6.498467 -2.69336,-7.992187 -1.88908,-1.323165 -3.35764,-1.53038 -4.91797,-0.695313 -3.35798,1.797134 -3.63867,1.550179 -3.63867,-3.185546 0,-2.40625 -0.5625,-4.375 -1.25,-4.375 z m -113.75,1.25 0,10.417968 c 0,5.729168 0.35918,10.775201 0.79883,11.214844 1.59494,1.594945 2.95117,-0.623537 2.95117,-4.830078 0,-3.374394 0.50448,-4.302734 2.3457,-4.302734 2.83841,0 4.53535,1.976604 5.63086,6.5625 0.45164,1.890624 1.41747,3.4375 2.14649,3.4375 1.57437,0 0.27262,-7.274834 -1.75,-9.78125 -0.93211,-1.155105 -0.94072,-1.913148 -0.0254,-2.5 0.7225,-0.463227 1.69064,-2.049005 2.15039,-3.523438 1.26186,-4.046854 -2.18361,-6.695312 -8.71289,-6.695312 l -5.53516,0 z m 63.125,0 c -1.93302,0 -2.4839,1.475082 -1.07617,2.882812 0.99866,0.998664 2.95117,-0.128856 2.95117,-1.705078 0,-0.646927 -0.84375,-1.177734 -1.875,-1.177734 z m 67.5,0 c -1.93301,0 -2.4839,1.475082 -1.07617,2.882812 0.99866,0.998664 2.95117,-0.128856 2.95117,-1.705078 0,-0.646927 -0.84375,-1.177734 -1.875,-1.177734 z m -124.6875,1.269531 c 3.62498,0.03172 5.55549,1.967896 5.10937,5.123047 -0.31027,2.194368 -1.33121,3.088009 -3.85937,3.378906 -3.18137,0.366058 -3.4375,0.06336 -3.4375,-4.0625 0,-3.419698 0.50949,-4.454133 2.1875,-4.439453 z m 49.13086,0.708984 c -0.61058,0.0015 -1.26178,0.558876 -1.42578,1.673828 -0.0585,0.397461 -0.64813,1.37566 -1.31055,2.173828 -0.67916,0.818336 -0.72313,1.748659 -0.10156,2.132813 0.60623,0.374688 0.87357,2.252933 0.59375,4.173828 -0.27982,1.920894 0.0816,5.039062 0.80273,6.929688 1.26122,3.306364 6.37305,5.060968 6.37305,2.1875 0,-0.6875 -0.84375,-1.25 -1.875,-1.25 -2.93625,0 -2.64248,-12.114513 0.3125,-12.886719 2.08333,-0.544432 2.08333,-0.578699 0,-0.716797 -1.33694,-0.08862 -2.1875,-1.158414 -2.1875,-2.75 0,-1.114548 -0.57106,-1.669493 -1.18164,-1.667969 z m 102.54297,3.53125 c -2.49355,0.116585 -5.11133,2.191989 -5.11133,4.505859 0,1.334962 1.40625,3.348442 3.125,4.47461 3.94677,2.586029 4.12899,5.770083 0.3125,5.460937 -4.48678,-0.363443 -5.44785,-3.63e-4 -3.4375,1.298829 2.75869,1.782803 5.80929,1.512984 8.03516,-0.712891 3.10534,-3.105332 2.62775,-4.254442 -3.53907,-8.513672 -2.91062,-2.01029 -1.50666,-4.932951 1.85743,-3.865234 2.85996,0.907719 3.25783,-1.309268 0.42968,-2.394532 -0.52844,-0.202783 -1.09644,-0.28081 -1.67187,-0.253906 z m -14.21289,0.0098 c -0.63223,0.04125 -1.26253,0.25758 -1.97461,0.638672 -1.3713,0.733897 -3.37793,0.994918 -4.45899,0.580078 -1.69173,-0.649176 -1.96484,0.714315 -1.96484,9.794922 0,1.843409 0.0469,3.54073 0.11328,5.11914 0.77128,-0.550465 1.71154,-0.743088 2.63672,-0.638672 0.36907,0.147466 0.79317,-0.05411 1.16211,0.02539 0.32465,0.06995 0.63819,0.186426 0.95703,0.279297 0.44512,0.369806 0.33833,0.280489 0.40039,0.330078 0.29428,0.04012 0.62545,0.114198 1.04102,0.246094 1.50782,0.478565 3.8213,-0.01152 5.625,-1.19336 4.36262,-2.858504 4.37676,-11.032356 0.0234,-13.884765 -1.4476,-0.948502 -2.50683,-1.36562 -3.56054,-1.296875 z m -50.87696,0.02539 c -0.80237,-0.0079 -1.59734,0.211698 -2.43164,0.658203 -1.3252,0.709224 -3.39138,0.911814 -4.59179,0.451172 -1.70882,-0.655736 -2.00104,-0.360547 -1.3418,1.357422 0.46311,1.206835 0.84375,4.992218 0.84375,8.414063 0,3.829386 0.48061,5.924723 1.25,5.449219 0.6875,-0.4249 1.25,-3.200927 1.25,-6.169922 0,-6.307575 2.57232,-9.488575 5.625,-6.955078 1.13699,0.943621 1.875,3.681641 1.875,6.955078 0,2.968995 0.5625,5.745022 1.25,6.169922 0.78049,0.482371 1.25,-2.054304 1.25,-6.75586 0,-6.250472 -0.42476,-7.758502 -2.5,-8.86914 -0.86566,-0.463285 -1.67614,-0.697159 -2.47852,-0.705079 z m -50.41406,0.111329 c -1.86747,0.04269 -3.35742,0.674518 -3.35742,1.714843 0,0.469171 1.49094,0.831788 3.31445,0.804688 4.99341,-0.07421 4.91482,2.639443 -0.125,4.302734 -2.44185,0.805884 -4.43945,1.658373 -4.43945,1.892578 0,0.234204 -0.31398,1.243355 -0.69727,2.242188 -0.38329,0.998833 0.17899,2.690711 1.25,3.761719 1.13752,1.137524 3.76423,1.855234 6.31641,1.724609 l 4.36914,-0.224609 0.006,-7.216797 c 0.005,-6.545201 -0.28567,-7.330729 -3.10938,-8.404297 -1.15095,-0.437593 -2.40685,-0.623269 -3.52734,-0.597656 z m 64.47266,0.05859 c -1.19439,0.07691 -2.5446,0.449083 -3.63282,1.16211 -4.15865,2.724847 -3.62777,5.153586 1.74024,7.980468 4.27571,2.251659 3.57643,5.13937 -1.25,5.16211 -3.08278,0.01452 -3.61033,0.310971 -2.1875,1.230469 6.87567,4.443395 12.06187,-3.626714 5.43359,-8.455079 -3.34271,-2.434993 -3.13031,-6.116233 0.27735,-4.808593 0.93969,0.360594 2.00341,0.175278 2.36523,-0.410157 0.80309,-1.299426 -0.75545,-1.98951 -2.74609,-1.861328 z m -83.21289,0.08398 c -1.1244,0.01802 -2.33589,0.323386 -3.57422,0.9375 -4.29627,2.130616 -4.83072,10.970693 -0.83203,13.771484 3.23855,2.268367 5.82916,2.493457 8.53906,0.742188 1.43663,-0.928426 0.98365,-1.215799 -1.9375,-1.230469 -3.6441,-0.0183 -6.8125,-1.887937 -6.8125,-4.019531 0,-0.55 2.21636,-1 4.92578,-1 5.71269,0 6.78862,-1.110714 5.17774,-5.347657 -0.96477,-2.53751 -3.01265,-3.893155 -5.48633,-3.853515 z m 50.57226,0.185546 c -1.83545,0.03416 -3.62359,0.664605 -4.88476,1.925782 -2.97517,2.975167 -2.50716,9.54645 0.875,12.285156 3.79228,3.070805 5.83194,2.906344 9.50195,-0.763672 3.64617,-3.646164 3.88978,-6.889294 0.80469,-10.699219 -1.499,-1.851187 -3.93701,-2.791964 -6.29688,-2.748047 z m -10.81445,0.265626 c -1.45239,0 -1.875,1.644821 -1.875,7.292968 0,4.010418 0.35918,7.650201 0.79883,8.089844 1.87636,1.876367 2.95117,-1.019068 2.95117,-7.955078 0,-5.767759 -0.41874,-7.427734 -1.875,-7.427734 z m 68.125,0 c -0.70629,0 -1.25,3.566704 -1.25,8.199218 0,5.147543 0.4652,7.910817 1.25,7.425782 0.6875,-0.4249 1.25,-4.11284 1.25,-8.197266 0,-4.117487 -0.55694,-7.427734 -1.25,-7.427734 z m -56.57227,1.527343 c 0.7,0.04077 1.41473,0.324802 2.0918,0.886719 2.33519,1.938036 2.61693,7.699472 0.48047,9.835938 -3.42001,3.420006 -7.69202,0.08794 -7.0293,-5.484376 0.392,-3.295954 2.35704,-5.360591 4.45703,-5.238281 z m -51.28711,0.04492 c 1.54178,0.0892 2.85938,1.127907 2.85938,2.763672 0,1.29359 -1.21585,1.914063 -3.75,1.914063 -4.10122,0 -4.78084,-1.339292 -1.89258,-3.736329 0.85121,-0.706437 1.85814,-0.994927 2.7832,-0.941406 z m 119.3418,0.01563 c 3.56741,-0.111687 6.5795,6.596237 3.45313,10.363281 -1.52313,1.83528 -3.08975,2.095744 -5.87305,0.972657 -2.23591,-0.902209 -1.93312,-8.560148 0.41602,-10.509766 0.66318,-0.550397 1.34327,-0.805489 2.0039,-0.826172 z m -97.73437,6.03125 c 1.12438,0.08684 1.29652,0.776112 1.03906,2.59375 -0.27504,1.9417 -1.38447,3.051138 -3.32617,3.326172 -2.4235,0.34328 -2.84328,-0.07648 -2.5,-2.5 0.27503,-1.9417 1.38447,-3.051138 3.32617,-3.326172 0.60587,-0.08582 1.08614,-0.122696 1.46094,-0.09375 z m 63.12695,11.869141 c -5.62347,0.01952 -10.12332,0.758691 -12.59375,2.066406 -3.87318,2.050252 -10.73816,9.029349 -14.36914,14.609375 l -1.96289,3.015625 -5.86328,-4.033203 c -8.63316,-5.939768 -13.60638,-7.646484 -22.28907,-7.646484 -7.77673,0 -7.78629,0.0055 -14.33398,6.765624 -9.74454,10.060682 -12.62174,22.628244 -9.09961,39.736329 3.54407,17.21468 18.69071,37.93173 33.50586,45.82813 4.14965,2.21174 7.84209,4.5025 8.20508,5.08984 0.363,0.58734 -5.94551,1.28883 -14.01953,1.55859 -10.81763,0.36143 -15.74856,1.06274 -18.74219,2.66407 -2.23438,1.19519 -4.0625,2.70732 -4.0625,3.36132 0,2.19052 5.6645,4.93266 12.55078,6.07422 10.92547,1.81114 44.24483,1.58089 61.20703,-0.42187 18.66138,-2.2034 29.77336,-4.92763 32.95508,-8.08203 2.28264,-2.26305 2.26033,-2.36881 -0.92969,-4.45899 -3.8581,-2.52791 -10.81851,-2.84431 -34.8457,-1.58398 -9.45313,0.49592 -17.1875,0.48631 -17.1875,-0.0195 0,-0.50583 3.23437,-3.43572 7.1875,-6.51172 20.09155,-15.63356 37.67378,-35.92925 42.65039,-49.23047 10.03003,-26.807617 -2.61608,-48.869232 -27.96289,-48.781252 z m 0.60742,2.644531 c 17.46964,0 27.51758,10.372546 27.51758,28.40625 0,14.300719 -6.61823,26.885561 -23.0625,43.857421 -7.47193,7.71165 -7.71435,7.38873 -0.95508,-1.27148 4.04556,-5.18333 9.66035,-16.64825 8.64844,-17.66016 -0.31766,-0.31766 -3.27638,4.02516 -6.57422,9.65039 -5.3107,9.0586 -20.56336,26.13477 -23.34375,26.13477 -0.53015,0 -0.96289,0.62796 -0.96289,1.39453 0,0.85598 1.18789,0.61481 3.08008,-0.625 1.69456,-1.11032 3.513,-2.01953 4.04101,-2.01953 1.21544,0 -11.61262,11.36062 -15.125,13.39453 -3.99964,2.31606 -5.94689,1.96544 -15.26562,-2.73828 -11.19597,-5.65127 -18.79825,-12.33059 -25.96289,-22.81641 -7.98639,-11.68848 -11.95879,-23.43175 -11.99219,-35.451172 -0.0226,-8.15114 0.52332,-10.58762 3.87109,-17.287109 5.20375,-10.413621 11.53328,-15.104791 20.35352,-15.087891 7.14756,0.01369 16.41367,3.771694 22.99023,9.324219 2.26341,1.910975 4.27319,3.26328 4.4668,3.00586 0.1936,-0.257424 1.66672,-2.4375 3.27344,-4.84375 C 263.45418,59.028289 268.89012,55.6875 280.42578,55.6875 Z m 25.7461,104.117191 c 2.02445,0 3.03744,0.58294 2.71484,1.5625 -0.7917,2.40397 -5.94336,2.75116 -5.94336,0.40039 0,-1.27628 1.1279,-1.96289 3.22852,-1.96289 z m -93.75782,5.24219 c 1.49162,0.0777 2.9449,0.41996 3.72852,1.07031 0.98967,0.82135 1.80078,1.98848 1.80078,2.59179 0,2.12279 -9.9656,0.17572 -10.38672,-2.02929 -0.22058,-1.15498 2.37139,-1.76239 4.85742,-1.63281 z m 45.91992,3.61718 c 4.40086,0 8.35938,0.37935 8.35938,1.14063 0,0.74479 -4.4206,1.21451 -10.9375,1.16211 -7.27346,-0.0584 -10.10001,-0.44771 -8.4375,-1.16211 1.77159,-0.76128 6.61477,-1.14063 11.01562,-1.14063 z m -69.80664,8.64063 c -11.99083,0 -15.99123,16.16179 -5.44726,22.00586 3.91645,2.17073 5.53238,2.13669 10.49609,-0.21875 10.87345,-5.15979 7.02002,-21.78711 -5.04883,-21.78711 z m 31.32422,0 c -13.79503,0 -17.23452,17.87668 -4.4082,22.91015 6.61804,2.59714 15,-3.66236 15,-11.20117 0,-5.46209 -5.65133,-11.70898 -10.5918,-11.70898 z m 93.02149,0.0371 c -3.94281,0.21308 -7.6233,2.61726 -9.42188,6.92187 -2.66976,6.38964 0.0348,13.01758 6.36719,15.60938 3.6914,1.51086 5.35262,1.3871 9.39844,-0.70508 7.2894,-3.7695 8.4933,-12.28796 2.57226,-18.20899 -2.62311,-2.62311 -5.84938,-3.78292 -8.91601,-3.61718 z m -62.66407,0.0273 c -3.0063,-0.076 -6.11024,1.08681 -8.61328,3.58984 -5.81867,5.81866 -4.74317,14.26341 2.31641,18.19922 9.759,5.44076 21.07106,-5.61456 15.92578,-15.56445 -2.05815,-3.98003 -5.76366,-6.12688 -9.62891,-6.22461 z m 29.2168,0 c -3.86525,0.0977 -7.5688,2.24458 -9.62695,6.22461 -2.65117,5.12679 -1.4511,10.278 3.33203,14.30273 4.31712,3.63261 7.19523,3.92986 12.33594,1.27149 7.28941,-3.7695 8.49329,-12.28797 2.57226,-18.20899 -2.50303,-2.50303 -5.60697,-3.66585 -8.61328,-3.58984 z m 1.21484,2.38086 c 2.22786,0.0859 4.42433,0.92628 6.05274,2.55469 3.48176,3.48176 3.28887,10.07281 -0.39453,13.5332 -3.83771,3.60534 -8.97216,3.46341 -12.78711,-0.35156 -3.74962,-3.74961 -3.91524,-8.01764 -0.47852,-12.38672 1.82601,-2.32139 4.74304,-3.46011 7.60742,-3.34961 z m 33.22461,0.0273 c 2.14519,-0.0229 4.36976,0.62345 6.29883,1.97461 3.90386,2.73434 3.84122,10.36904 -0.11523,14.08594 -3.83771,3.60534 -8.97411,3.46341 -12.78906,-0.35156 -3.74963,-3.74961 -3.91328,-8.01764 -0.47657,-12.38672 1.69748,-2.15798 4.32394,-3.29286 7.08203,-3.32227 z m -125.3457,0.0273 c 8.82015,0 12.92199,10.81672 6.12891,16.16015 -1.81146,1.42491 -4.54677,2.58985 -6.08008,2.58985 -4.79763,0 -9.375,-4.62079 -9.375,-9.46485 0,-5.63142 3.66925,-9.28515 9.32617,-9.28515 z m 30,0 c 8.88656,0 13.15556,10.01826 6.92383,16.25 -5.27195,5.27195 -16.25,0.78083 -16.25,-6.64844 0,-4.92852 4.53788,-9.60156 9.32617,-9.60156 z m 31.20703,0 c 3.13953,0 4.97651,0.88138 6.875,3.29492 3.43671,4.36908 3.27306,8.63711 -0.47656,12.38672 -3.90378,3.90379 -9.36971,4.01267 -12.85547,0.25586 -6.20611,-6.6887 -2.45943,-15.9375 6.45703,-15.9375 z m 64.77149,1.25 c -1.92512,0 -4.05892,7.17022 -3.28516,11.03906 1.01551,5.0775 3.68849,5.10831 4.69922,0.0547 1.24421,-6.22104 1.00136,-7.34133 -1.40625,-6.49414 -1.7857,0.62836 -1.9005,0.4606 -0.625,-0.91407 1.74947,-1.88548 2.05055,-3.68554 0.61719,-3.68554 z m -97.23047,1.40625 c -0.25184,-4.9e-4 -0.50698,0.0183 -0.76367,0.0547 -2.39877,0.33958 -3.00725,1.2718 -3.32422,5.10157 -0.29627,3.57969 0.073,4.6875 1.5625,4.6875 1.07275,0 1.95117,0.84375 1.95117,1.875 0,1.25 1.25,1.875 3.75,1.875 3.46081,0 3.75,-0.33993 3.75,-4.42578 0,-5.10871 -3.14815,-9.16065 -6.92578,-9.16797 z m 60.16992,0.33008 c -0.36357,0.0199 -0.66854,0.0925 -0.88867,0.22851 -0.60852,0.3761 -1.10547,1.29216 -1.10547,2.03516 0,0.74301 -0.93013,2.03047 -2.06641,2.86133 -2.73439,1.99944 -0.93745,4.78707 2.52539,3.91796 1.47759,-0.37085 3.52525,-0.14447 4.55078,0.50391 1.02554,0.64837 2.8671,1.18922 4.0918,1.19922 2.57301,0.0221 4.58478,-3.96198 2.37305,-4.69922 -0.81119,-0.2704 -1.47461,-1.23197 -1.47461,-2.13867 0,-1.58984 -5.46087,-4.0477 -8.00586,-3.9082 z m -28.47656,0.14062 c -1.8329,-0.0677 -3.35272,0.88814 -4.07617,2.77344 -1.12571,2.93355 0.249,3.51682 2.8164,1.19336 1.75469,-1.58798 2.6139,-1.72007 3.75781,-0.57617 3.29146,3.29146 0.21922,7.98296 -3.81445,5.82421 -2.66963,-1.42874 -4.15806,-0.74354 -2.87891,1.32618 1.11541,1.80477 7.31888,1.69088 9.17774,-0.16797 2.45818,-2.45819 1.73007,-7.0399 -1.44922,-9.12305 -1.22031,-0.79958 -2.43347,-1.20938 -3.5332,-1.25 z m -31.64258,0.62305 c 1.03125,0 1.875,0.5625 1.875,1.25 0,0.6875 -0.52437,1.25 -1.16406,1.25 -0.63968,0 -1.40714,1.26562 -1.70508,2.8125 -0.39174,2.03388 -0.58784,1.68782 -0.71094,-1.25 -0.11956,-2.85344 0.38811,-4.0625 1.70508,-4.0625 z m -25.5332,1.5039 c -0.7257,0.045 -1.51747,0.83496 -2.78125,2.5586 -2.78133,3.79339 -4.81055,4.45274 -4.81055,1.5625 0,-1.03125 0.95625,-1.875 2.125,-1.875 1.65976,0 1.7938,-0.32924 0.61523,-1.50781 -1.9924,-1.99241 -5.91623,1.69644 -4.82617,4.5371 0.89981,2.34485 5.35913,2.63537 6.25781,0.40821 0.50439,-1.25 0.64962,-1.25 0.72852,0 0.11468,1.81583 5.09961,2.15947 5.09961,0.35156 0,-0.66592 -0.84375,-0.88595 -1.875,-0.49023 -1.18731,0.45561 -1.875,-0.0171 -1.875,-1.28907 0,-1.10481 0.95625,-2.00976 2.125,-2.00976 1.71139,0 1.8166,-0.30413 0.54102,-1.5625 -0.47652,-0.47009 -0.88881,-0.71057 -1.32422,-0.6836 z m 28.6582,2.2461 c 1.83333,0 2.5,0.83334 2.5,3.125 0,2.29166 -0.66667,3.125 -2.5,3.125 -1.83334,0 -2.5,-0.83334 -2.5,-3.125 0,-2.29166 0.66666,-3.125 2.5,-3.125 z m 60.88672,1.91797 c 1.99674,-0.0365 4.71189,0.50675 4.99609,1.35937 0.21801,0.65404 -0.5952,1.24149 -1.80664,1.30469 -2.77445,0.1449 -5.32617,-0.77257 -5.32617,-1.91406 0,-0.497 0.93867,-0.72811 2.13672,-0.75 z"
     id="path3508"
     inkscape:connector-curvature="0"
     transform="matrix(1.2449865,0,0,1.2449865,-242.00916,-65.830918)" />
</svg>
