<?xml version="1.0" encoding="UTF-8" standalone="no"?>
<!-- Created with Inkscape (http://www.inkscape.org/) -->

<svg
   xmlns:dc="http://purl.org/dc/elements/1.1/"
   xmlns:cc="http://creativecommons.org/ns#"
   xmlns:rdf="http://www.w3.org/1999/02/22-rdf-syntax-ns#"
   xmlns:svg="http://www.w3.org/2000/svg"
   xmlns="http://www.w3.org/2000/svg"
   xmlns:sodipodi="http://sodipodi.sourceforge.net/DTD/sodipodi-0.dtd"
   xmlns:inkscape="http://www.inkscape.org/namespaces/inkscape"
   id="svg3529"
   version="1.1"
   inkscape:version="0.91 r13725"
   width="150"
   height="150"
   viewBox="0 0 150 150"
   sodipodi:docname="cs.svg">
  <metadata
     id="metadata3535">
    <rdf:RDF>
      <cc:Work
         rdf:about="">
        <dc:format>image/svg+xml</dc:format>
        <dc:type
           rdf:resource="http://purl.org/dc/dcmitype/StillImage" />
        <dc:title></dc:title>
      </cc:Work>
    </rdf:RDF>
  </metadata>
  <defs
     id="defs3533">
    <clipPath
       clipPathUnits="userSpaceOnUse"
       id="clipPath3543">
      <rect
         style="fill:#0000ff;fill-rule:evenodd;stroke:#000000;stroke-width:0.96146089px;stroke-linecap:butt;stroke-linejoin:miter;stroke-opacity:1"
         id="rect3545"
         width="101.81211"
         height="125.61401"
         x="93.957153"
         y="93.957146" />
    </clipPath>
  </defs>
  <sodipodi:namedview
     pagecolor="#ffffff"
     bordercolor="#666666"
     borderopacity="1"
     objecttolerance="10"
     gridtolerance="10"
     guidetolerance="10"
     inkscape:pageopacity="0"
     inkscape:pageshadow="2"
     inkscape:window-width="1366"
     inkscape:window-height="705"
     id="namedview3531"
     showgrid="false"
     fit-margin-top="0"
     fit-margin-left="0"
     fit-margin-right="0"
     fit-margin-bottom="0"
     inkscape:zoom="1.6948012"
     inkscape:cx="-0.46934411"
     inkscape:cy="62.125284"
     inkscape:window-x="-8"
     inkscape:window-y="-8"
     inkscape:window-maximized="1"
     inkscape:current-layer="svg3529" />
  <path
     style="fill:#489595;fill-opacity:1"
     clip-path="url(#clipPath3543)"
     d="m 80.078125,28.724609 c -0.897762,0.0089 -1.876538,0.110073 -2.888672,0.3125 -8.548635,1.709727 -11.850402,13.874611 -5.390625,19.861329 2.321363,2.151367 4.743892,3.064453 8.125,3.064453 2.649609,0 4.81836,-0.5625 4.81836,-1.25 0,-0.6875 -1.928806,-1.25 -4.285157,-1.25 -8.700414,0 -12.290571,-10.987185 -5.445312,-16.664063 1.860984,-1.54334 3.898522,-2.063264 6.246093,-1.59375 1.916314,0.383263 3.484376,0.208086 3.484376,-0.388672 0,-1.322814 -1.970777,-2.118525 -4.664063,-2.091797 z m 38.484375,2.714844 c -0.61057,0.0015 -1.26373,0.560829 -1.42773,1.675781 -0.0585,0.397461 -0.72377,1.469086 -1.48047,2.38086 -1.00784,1.214373 -0.98049,1.903058 0.10547,2.574218 0.81536,0.503921 1.39374,3.183647 1.28515,5.955079 -0.1086,2.771431 0.20649,5.691031 0.69922,6.488281 1.09583,1.773094 5.74805,1.934271 5.74805,0.199219 0,-0.6875 -0.84375,-1.25 -1.875,-1.25 -1.38889,0 -1.875,-1.458334 -1.875,-5.625 0,-4.166667 0.48611,-5.625 1.875,-5.625 1.03125,0 1.875,-0.5625 1.875,-1.25 0,-0.6875 -0.84375,-1.25 -1.875,-1.25 -1.06667,0 -1.875,-1.122035 -1.875,-2.603516 0,-1.114548 -0.56912,-1.671446 -1.17969,-1.669922 z m -9.52734,3.234375 c -2.28366,0.01487 -5.54297,3.1211 -5.54297,5.472656 0,0.964488 1.72373,2.643186 3.83008,3.732422 4.48241,2.317946 4.25497,4.793719 -0.49024,5.355469 -1.83761,0.217542 -3.33984,0.920667 -3.33984,1.5625 0,0.641835 1.575,1.166016 3.5,1.166016 7.09182,0 8.85476,-6.217711 2.66992,-9.416016 -4.2499,-2.197685 -4.29193,-5.015143 -0.0723,-4.855469 3.02444,0.114447 2.92917,-2.388138 -0.11328,-2.978515 -0.14231,-0.02762 -0.28916,-0.04005 -0.4414,-0.03906 z m 81.28125,0.310547 c -0.47322,0.03652 -0.93805,0.305591 -1.21875,0.759766 -0.44911,0.72668 -1.89379,0.978591 -3.21094,0.560547 -2.19379,-0.696284 -2.39453,-0.07097 -2.39453,7.449218 0,4.63949 0.54356,8.208985 1.25,8.208985 0.6875,0 1.25,-2.275767 1.25,-5.058594 0,-3.817503 0.78115,-5.785365 3.18554,-8.013672 1.75271,-1.624358 2.63683,-3.29441 1.96289,-3.710937 -0.25273,-0.1562 -0.54028,-0.217225 -0.82421,-0.195313 z M 159.74219,35 c -0.80594,0 -1.61188,0.237585 -2.5,0.712891 -1.77624,0.950613 -3.22376,0.950613 -5,0 -1.55457,-0.83198 -3.32725,-0.912491 -4.6875,-0.212891 -1.20313,0.618793 -2.89063,0.872595 -3.75,0.564453 -1.14851,-0.411814 -1.5625,1.621118 -1.5625,7.669922 0,4.652777 0.54324,8.228516 1.25,8.228516 0.6875,0 1.25,-2.791767 1.25,-6.205079 0,-4.755099 0.5398,-6.494776 2.30859,-7.441406 3.45385,-1.84844 5.19141,0.710241 5.19141,7.646485 0,3.3 0.5625,6 1.25,6 0.6875,0 1.25,-2.490514 1.25,-5.535157 0,-5.942871 2.55215,-9.844996 5.66015,-8.652343 1.3039,0.500353 1.83985,2.667084 1.83985,7.447265 0,3.707695 0.5625,6.740235 1.25,6.740235 0.69362,0 1.25,-3.317732 1.25,-7.455079 0,-6.1767 -0.42896,-7.686531 -2.5,-8.794921 C 161.35407,35.237585 160.54813,35 159.74219,35 Z m 14.72265,0.115234 c -0.72912,0.01354 -1.44835,0.182295 -2.11132,0.53711 -5.38316,2.880981 -6.67986,9.742021 -2.61133,13.810547 2.61515,2.61515 9.29556,3.401081 10.625,1.25 0.4592,-0.743004 -1.01459,-1.25 -3.63281,-1.25 -3.12549,0 -4.79282,-0.726095 -5.74219,-2.5 -1.24654,-2.329181 -0.95156,-2.5 4.33008,-2.5 5.19949,0 5.66992,-0.255927 5.66992,-3.095703 0,-3.438049 -3.36782,-6.310607 -6.52735,-6.251954 z m -42.22265,0.177735 c -2.33385,0 -4.6685,0.775006 -5.80274,2.326172 -2.32263,3.176388 -2.13427,9.29019 0.3711,12.058593 6.55482,7.242992 17.08211,-4.058667 11.23242,-12.058593 -1.13424,-1.551166 -3.46694,-2.326172 -5.80078,-2.326172 z m -43.818362,0.419922 c -1.595028,0 -1.508308,10.805715 0.111328,13.832031 1.446412,2.702649 6.16063,3.214369 8.457032,0.917969 1.166666,-1.166666 1.5,-1.166666 1.5,0 0,0.825 0.5625,1.5 1.25,1.5 0.705122,0 1.250002,-3.541666 1.250002,-8.125 0,-4.583333 -0.54488,-8.125 -1.250002,-8.125 -0.6875,0 -1.25,2.463087 -1.25,5.472656 0,10.838526 -7.796906,11.148285 -8.50586,0.337891 -0.209543,-3.195204 -0.912668,-5.810547 -1.5625,-5.810547 z m 86.615232,1.492187 c 1.52166,0.08178 2.911,0.955589 3.21875,2.570313 0.33472,1.756223 -0.47241,2.1875 -4.09375,2.1875 -4.16756,0 -4.40457,-0.196231 -3.13086,-2.576172 0.83141,-1.553499 2.4842,-2.263423 4.00586,-2.181641 z m -42.92383,0.125 c 0.3785,0.0035 0.76564,0.06548 1.15625,0.189453 3.29031,1.044304 4.69598,5.754092 2.78321,9.328125 -2.50669,4.6838 -8.8125,2.523222 -8.8125,-3.019531 0,-3.7286 2.22358,-6.52247 4.87304,-6.498047 z M 75.753906,69.474609 c -2.80592,-0.03188 -6.234107,0.625934 -7.248047,1.847657 -2.50128,3.013858 -0.507405,7.441997 4.40625,9.785156 3.471479,1.655433 4.407803,2.784369 4.101563,4.939453 -0.330119,2.323125 -1.185669,2.791016 -5.085938,2.791016 -4.56599,0 -5.556315,0.590168 -3.853515,2.292968 1.398399,1.3984 8.573301,0.926698 10.167969,-0.667968 0.825,-0.825 1.5,-3.068 1.5,-4.984375 0,-2.705646 -1.117398,-4.189645 -5,-6.640625 -2.75,-1.735999 -5,-3.691018 -5,-4.345703 0,-1.937187 4.383014,-3.705351 7.296874,-2.94336 1.578086,0.41268 2.703126,0.125722 2.703126,-0.689453 0,-0.917736 -1.805899,-1.359969 -3.988282,-1.384766 z m 100.238284,1.238282 c -0.6875,0 -1.25,1.078775 -1.25,2.396484 0,1.317707 -0.70312,2.723957 -1.5625,3.125 -1.25,0.583332 -1.25,0.875652 0,1.458984 0.92836,0.433236 1.5625,3.138237 1.5625,6.666016 0,3.265625 0.37564,6.313156 0.83398,6.771484 1.29671,1.296713 5.41602,0.978492 5.41602,-0.417968 0,-0.6875 -0.84375,-1.25 -1.875,-1.25 -1.38889,0 -1.875,-1.458334 -1.875,-5.625 0,-4.166666 0.48611,-5.625 1.875,-5.625 1.03125,0 1.875,-0.5625 1.875,-1.25 0,-0.6875 -0.84375,-1.25 -1.875,-1.25 -1.04166,0 -1.875,-1.111111 -1.875,-2.5 0,-1.375 -0.5625,-2.5 -1.25,-2.5 z M 87.625,75.671875 c -1.490407,0.05946 -2.897577,0.55578 -3.882812,1.541016 -2.386405,2.386405 -1.898625,11.894111 0.6875,13.40039 1.943208,1.131815 6.239456,1.528104 8.626953,1.123047 0.434816,-0.479718 0.872769,-0.957139 1.304687,-1.439453 -0.717757,-0.477766 -2.376096,-0.910988 -4.296875,-1.070313 -3.268688,-0.271129 -4.802079,-1.047392 -5.091797,-2.576171 -0.339011,-1.788895 0.499987,-2.1875 4.603516,-2.1875 6.033115,0 7.311042,-1.571326 4.61914,-5.679688 -1.372575,-2.094815 -4.0863,-3.210434 -6.570312,-3.111328 z m 60.24219,0.04102 c -2.95916,0 -4.68886,0.749053 -5.58203,2.417968 -1.91296,3.574391 -1.56957,9.627703 0.67187,11.869141 2.10768,2.107682 10.53516,2.738755 10.53516,0.789062 0,-0.645999 -2.10534,-1.349124 -4.67774,-1.5625 -3.2687,-0.271129 -4.80208,-1.047392 -5.09179,-2.576171 -0.34584,-1.824885 0.53371,-2.1875 5.30273,-2.1875 6.09178,0 7.06467,-1.393935 4.42188,-6.332032 -0.89318,-1.668915 -2.62093,-2.417968 -5.58008,-2.417968 z m -15.98438,0.01172 c -1.21723,0.05825 -2.29146,0.47158 -2.80273,1.298829 -0.54457,0.881146 -1.30606,0.900017 -2.32227,0.05664 -0.83138,-0.689987 -3.875,-1.160109 -6.76367,-1.044922 l -5.25195,0.208985 0,7.964843 c 0,2.983534 0.26269,5.096749 0.65429,6.330078 0.85193,0.254076 1.33907,0.536578 1.55079,0.841797 0.60728,-0.845429 1.19532,-2.946893 1.54492,-6.388671 0.52826,-5.200764 1.06028,-6.215117 3.4375,-6.552735 2.62782,-0.373211 2.8125,0.05769 2.8125,6.5625 0,5.243365 0.44564,6.960938 1.80859,6.960938 1.30129,0 1.91582,-1.840268 2.1875,-6.550782 0.30266,-5.247492 0.84589,-6.63982 2.72852,-6.998047 3.14887,-0.599164 4.48276,1.838921 4.50586,8.236329 0.0105,2.921875 0.58203,5.3125 1.26953,5.3125 1.64683,0 1.61177,-10.736461 -0.0449,-13.832032 -0.86307,-1.612646 -3.28574,-2.503331 -5.31446,-2.40625 z m 57.375,0.01367 c -2.1207,-0.01444 -4.76079,0.639712 -5.75195,1.833985 -2.07431,2.499396 -0.77032,5.415731 3.07812,6.878906 4.50521,1.712879 4.11606,5.011719 -0.59179,5.011719 -2.0625,0 -3.75,0.5625 -3.75,1.25 0,1.379766 4.92068,1.682079 8.02148,0.492187 3.47794,-1.334607 2.37593,-6.471949 -1.85937,-8.662109 -3.15859,-1.633365 -3.57082,-2.308479 -2.32422,-3.810547 0.85927,-1.035364 2.51999,-1.506179 3.83789,-1.087891 1.27794,0.405602 2.32422,0.136173 2.32422,-0.597656 0,-0.882568 -1.33494,-1.29736 -2.98438,-1.308594 z m -83.78125,0.251953 c -5.774002,0.02712 -8.234372,2.31131 -8.234372,7.527344 0,1.043375 0.164155,2.017588 0.433593,2.919922 0.889084,-1.130351 1.524531,-2.072975 2.072266,-2.804688 0.0056,-1.635576 0.596323,-3.344369 1.955073,-4.703124 1.15117,-1.151146 2.02861,-1.501791 3.22852,-1.150391 0.13942,-0.02761 0.26051,9.08e-4 0.34961,0.123047 0.27187,0.103743 0.55418,0.227016 0.86719,0.394531 1.12862,0.604024 1.74823,1.333088 2.01562,2.542969 0.0194,-0.01892 0.0394,-0.03724 0.0586,-0.05664 0.28768,-0.786854 0.40421,-2.017449 1.0664,-1.773437 0.10908,0.04019 0.19576,0.100115 0.27344,0.169922 0.5487,-0.647759 1.14326,-1.175707 1.93164,-1.173829 0.31927,7.5e-4 0.55841,0.171825 0.74805,0.425782 l 0,-2.173829 -5.56641,-0.242187 c -0.41463,-0.01805 -0.81428,-0.0272 -1.19922,-0.02539 z m 50.87305,0.134766 -0.0254,6.982422 c -0.0137,3.840025 0.21975,7.402344 0.51953,7.917969 1.50497,2.58856 2.8056,0.261787 3.14453,-5.625 0.34923,-6.065914 0.61538,-6.5625 3.50391,-6.5625 2.88853,0 3.15271,0.496586 3.50195,6.5625 0.2078,3.609375 0.93867,6.5625 1.62305,6.5625 0.73273,0 1.09023,-3.212035 0.87109,-7.8125 l -0.37109,-7.8125 -6.38477,-0.105469 -6.38281,-0.107422 z m -67.742188,1.396484 c 1.689567,-0.08615 3.452153,0.91574 4.123047,2.664063 0.509281,1.327163 -0.416608,1.777344 -3.652344,1.777344 -4.569907,0 -5.474031,-1.24784 -2.619141,-3.617188 0.627824,-0.521047 1.380453,-0.785059 2.148438,-0.824219 z m 58.749998,0 c 1.68957,-0.08615 3.45215,0.91574 4.12305,2.664063 0.50928,1.327163 -0.4166,1.777344 -3.65235,1.777344 -4.5699,0 -5.47403,-1.24784 -2.61914,-3.617188 0.62783,-0.521047 1.38046,-0.785059 2.14844,-0.824219 z m -35.11523,4.851563 c -0.21747,0.273585 -0.44502,0.543033 -0.61133,0.828125 -0.38533,0.66055 -0.78231,1.315881 -1.17188,1.974609 0.15205,0.052 0.30423,0.104634 0.45118,0.173828 0.39212,0.184642 -0.29335,0.667713 -0.6875,1.052735 0.84002,-0.102899 1.5028,-0.113693 1.99218,0.01758 0.0177,-0.624987 0.0273,-1.276688 0.0273,-1.962891 l 0,-2.083984 z m 14.23242,13.228515 c -2.3619,8.98e-4 -4.80939,0.832108 -7.1582,2.679688 -3.72851,2.932846 -6.64709,11.132376 -5.16993,14.525386 0.54626,1.25473 0.87673,2.78516 0.73438,3.40039 -0.14234,0.61522 1.14543,2.58586 2.86328,4.37891 2.83696,2.96114 3.00656,3.71773 1.83984,8.25586 -0.70648,2.74797 -2.0533,8.65234 -2.99218,13.12109 -0.93888,4.46875 -2.61624,10.65625 -3.72852,13.75 -1.37528,3.82525 -1.76387,7.40166 -1.21094,11.17578 0.44718,3.0524 0.41769,12.41559 -0.0664,20.8086 l -0.88086,15.26171 -3.66406,0.73243 c -2.66023,0.53203 -4.03506,1.79429 -5.01368,4.60156 -0.74157,2.12729 -2.543106,4.39979 -4.003902,5.05078 -1.945668,0.86705 -0.940475,1.0288 3.759762,0.60352 5.57098,-0.50408 6.78788,-0.18621 9.23438,2.41796 2.39673,2.5512 4.23956,3.06718 12.33398,3.45508 10.86073,0.52047 42.67004,-0.0843 59.89649,-1.13867 9.91763,-0.60707 11.57359,-1.01587 11.24023,-2.77734 -0.24945,-1.31815 -1.88412,-2.20954 -4.51562,-2.46289 -2.26816,-0.21837 -4.37831,-1.06212 -4.68946,-1.875 -0.41376,-1.081 -6.38136,-1.36621 -22.21875,-1.06446 l -21.65429,0.41211 -2.39649,-3.53711 c -1.96058,-2.8937 -2.47107,-6.26912 -2.80469,-18.54101 l -0.4082,-15.00196 3.95117,-1.49218 c 3.25243,-1.22766 3.80129,-1.96693 3.09961,-4.17774 -0.61522,-1.93839 0.0289,-3.60971 2.31446,-6.00586 1.74182,-1.8261 3.71738,-4.77773 4.39062,-6.56054 1.25781,-3.33085 1.36197,-3.01128 -7.99219,-24.42774 -2.36003,-5.40331 -2.62805,-7.36331 -1.6914,-12.37695 2.35704,-12.61664 -4.9631,-23.19461 -13.39844,-23.191404 z m -0.66992,2.611329 c 2.54713,0 5.83714,0.845521 7.3125,1.878905 3.42732,2.40058 6.20119,10.29489 4.28906,12.20703 -0.9736,0.97357 -0.96902,1.82098 0.0176,3.00976 0.99657,1.2002 0.99693,1.6543 0.002,1.6543 -0.86096,0 -1.10484,1.51283 -0.65625,4.0625 0.74123,4.21294 1.10026,5.16714 8.01367,21.25586 4.06283,9.45494 4.1152,9.79993 2.13282,13.95703 -1.11783,2.34413 -3.18938,4.62931 -4.60352,5.07813 -1.41414,0.44884 -2.57031,1.33929 -2.57031,1.98047 0,1.87997 -4.55168,1.33831 -6.28321,-0.74805 -1.28155,-1.54419 -1.28515,-2.93497 -0.0156,-7.1875 0.86576,-2.90006 2.19489,-5.66172 2.95312,-6.13672 0.96227,-0.60282 0.71595,-2.25343 -0.8164,-5.4668 -2.53446,-5.31482 -4.41441,-4.9083 -2.18555,0.47266 1.28462,3.10133 1.11193,4.23946 -1.25781,8.25586 -1.65181,2.79963 -2.8868,7.24128 -3.09375,11.13086 -0.37838,7.11136 -0.79603,7.39817 -8.57422,5.8789 -6.64613,-1.29816 -8.52355,-4.00207 -6.38281,-9.1914 0.89983,-2.18129 2.2967,-7.3418 3.10351,-11.4668 2.01184,-10.28603 3.81919,-15.76125 4.96875,-15.05078 1.38176,0.85397 5.88515,-2.68907 4.79883,-3.77539 -0.49793,-0.49793 -1.76268,-0.19387 -2.81055,0.67578 -1.90083,1.57755 -2.07095,1.37967 -2.40429,-2.78711 -0.0824,-1.03012 1.25918,-1.42243 3.9375,-1.1543 2.5387,0.25416 4.0625,-0.15286 4.0625,-1.08398 0,-0.86652 -1.03009,-1.22184 -2.46094,-0.84766 -1.64054,0.42901 -3.82705,-0.66702 -6.5625,-3.29101 -3.43547,-3.29547 -4.15829,-4.96944 -4.44141,-10.29688 -0.45245,-8.51361 2.84312,-13.013665 9.52735,-13.013665 z m -1.76172,22.499995 c -1.07182,0 -1.60068,0.5625 -1.17578,1.25 0.42489,0.6875 1.30229,1.25 1.94922,1.25 0.64692,0 1.17578,-0.5625 1.17578,-1.25 0,-0.6875 -0.87739,-1.25 -1.94922,-1.25 z m 8.20508,44.13672 c 0.26852,0.0126 0.57926,0.0849 0.93164,0.22656 1.20312,0.48373 2.75,0.98072 3.4375,1.10547 0.6875,0.12479 2.03842,0.71908 3.00195,1.32031 1.44713,0.90301 1.34989,1.38612 -0.55273,2.77735 -2.94397,2.15269 -3.71189,2.1182 -6.10938,-0.2793 -2.40264,-2.40264 -2.58867,-5.23835 -0.70898,-5.15039 z m -18.18555,4.79883 c 0.34616,0.004 0.88477,0.15526 1.61719,0.46094 1.20312,0.50212 5.5625,1.2645 9.6875,1.69531 l 7.5,0.7832 0.77734,15 c 0.42753,8.25 1.18992,15.98437 1.69531,17.1875 1.15532,2.75032 0.92969,2.72501 -4.07617,-0.48047 -2.25657,-1.44498 -5.91282,-2.71812 -8.125,-2.82812 -3.9509,-0.19657 -4.03811,-0.33219 -4.9082,-7.66407 -0.48718,-4.10525 -0.57068,-9.8003 -0.1875,-12.65429 0.56273,-4.1913 0.19123,-5.69352 -1.92774,-7.8125 -2.39712,-2.3971 -3.09121,-3.70068 -2.05273,-3.6875 z m 0.71875,13.43945 c 0.47395,0.1495 0.88108,3.11343 1.26172,8.875 0.81145,12.28261 -0.0129,15.99094 -2.51563,11.31445 -0.90755,-1.69577 -1.15995,-5.35615 -0.67578,-9.82031 0.76911,-7.09141 1.39255,-10.53857 1.92969,-10.36914 z m 10.53516,20.54492 c 1.63801,0.0145 3.1499,0.75776 5.16406,2.4336 1.99948,1.66362 4.32085,3.24922 5.1582,3.52343 0.97358,0.31882 1.12788,1.13459 0.42774,2.26172 -0.7656,1.2325 -4.04184,1.8419 -10.89649,2.02735 -8.98912,0.24319 -9.18035,0.19953 -2.30273,-0.51368 4.22215,-0.43784 6.85059,-1.19732 6.01367,-1.74023 -0.81767,-0.53043 -3.77079,-0.60071 -6.5625,-0.1543 -4.51687,0.72228 -5.07617,0.53535 -5.07617,-1.69531 0,-2.98544 1.97193,-4.81776 6.37109,-5.92187 0.597,-0.14984 1.15712,-0.22556 1.70313,-0.22071 z m -17.02149,1.42578 c 0.12603,-0.009 0.25578,-0.007 0.39258,0.006 0.65666,0.0636 1.45834,0.38249 2.60742,0.91993 1.88526,0.88174 3.4325,2.58788 3.4375,3.79101 0.008,1.7607 -1.08771,2.1875 -5.61523,2.1875 -6.14863,0 -6.74532,-0.85108 -3.4375,-4.90234 1.06941,-1.30977 1.73304,-1.93664 2.61523,-2.00196 z m -43.712889,16.86914 c -4.762355,0.0808 -9.393653,3.02141 -11.064453,8.08399 -1.692249,5.12756 -0.210696,9.39119 4.56836,13.15039 4.298473,3.38117 10.510833,2.81346 14.960937,-1.36719 4.328193,-4.06612 4.142757,-12.58956 -0.363281,-16.76562 -2.340082,-2.16872 -5.244149,-3.15005 -8.101563,-3.10157 z m 30.824219,0.0352 c -11.566768,0 -15.873203,16.27485 -5.804688,21.9375 7.691981,4.32606 17.640628,-1.44246 17.640628,-10.22851 0,-6.15879 -5.6106,-11.70899 -11.83594,-11.70899 z m 96.76758,0 c -12.15498,0 -16.66085,15.11848 -6.45117,21.64258 3.74627,2.39391 10.414,2.07985 13.69922,-0.64453 3.32087,-2.75395 5.44314,-9.26236 4.13867,-12.69336 -1.93883,-5.09952 -6.33436,-8.30469 -11.38672,-8.30469 z m -34.03711,0.0352 c -2.88466,-0.0533 -5.89872,1.02762 -8.49024,3.61914 -5.88719,5.88718 -4.27219,15.90619 3.04102,18.85742 6.30036,2.54252 13.28211,-0.17055 15.74609,-6.11914 3.59386,-8.67633 -2.92496,-16.22128 -10.29687,-16.35742 z m -31.22461,0.0469 c -2.87678,-0.0998 -5.88213,0.93877 -8.51563,3.57227 -5.56274,5.56274 -4.47998,14.40834 2.22461,18.16211 4.80657,2.69108 11.53321,1.58861 15.0586,-2.46875 7.32146,-8.42627 -0.13725,-18.96634 -8.76758,-19.26563 z m 65.0625,2.07617 c 3.83804,-0.14004 7.53243,2.05964 9.09961,6.18164 1.35198,3.55597 -0.80071,10.03905 -3.88086,11.6875 -9.87739,5.28621 -19.92173,-7.42212 -11.85547,-15 1.97853,-1.85872 4.3339,-2.78511 6.63672,-2.86914 z m -95.75586,0.18164 c 6.28568,0.25787 11.62337,6.70555 8.00781,13.69727 -1.04124,2.01355 -2.8031,4.01044 -3.91601,4.4375 -10.055843,3.85879 -19.024877,-8.11688 -11.425784,-15.25586 2.270192,-2.13273 4.874369,-2.97981 7.333984,-2.87891 z M 64.742188,224.463 c 9.12594,0 13.094188,10.76166 6.107421,16.5625 -3.785176,3.14269 -9.394587,2.76362 -13.039062,-0.88086 -6.127251,-6.12725 -1.904032,-15.68164 6.931641,-15.68164 z m 61.875002,0 c 8.68006,0 12.7731,10.12341 6.48242,16.0332 -6.14287,5.77093 -15.85742,1.45134 -15.85742,-7.05078 0,-5.33634 3.80513,-8.98242 9.375,-8.98242 z m 30.76953,0 c 9.23411,0 13.56125,10.65495 6.5625,16.16016 -5.5267,4.3473 -11.91084,3.24053 -14.92383,-2.58594 -3.48709,-6.74329 0.72097,-13.57422 8.36133,-13.57422 z m 35.71094,1.16406 c -0.63865,-0.0326 -2.10613,1.46746 -3.10352,3.72071 -1.41117,3.18806 -1.1262,8.56668 0.61914,11.67773 1.32526,2.36229 2.66746,0.44756 3.47852,-4.96094 0.56069,-3.73899 0.41029,-6.05595 -0.41211,-6.33007 -0.71359,-0.23785 -0.98807,-1.23973 -0.60938,-2.22657 0.49509,-1.29018 0.41053,-1.86131 0.0273,-1.88086 z M 93.214844,226.963 c -3.217565,0 -3.472656,0.36667 -3.472656,5 0,3.61111 0.520832,5 1.875,5 1.03125,0 1.875,0.84375 1.875,1.875 0,1.25 1.25,1.875 3.75,1.875 3.450042,0 3.750002,-0.34747 3.750002,-4.35937 0,-5.47052 -3.245744,-9.39063 -7.777346,-9.39063 z m 32.949216,0 c -1.56829,0 -5.17187,3.54646 -5.17187,5.08984 0,1.89061 2.72948,1.32278 4.35937,-0.90625 1.75746,-2.40345 4.39063,-1.26937 4.39063,1.89063 0,3.26903 -2.58313,5.41392 -4.55274,3.7793 -2.69368,-2.23557 -4.83016,-0.66416 -2.40039,1.76562 2.47172,2.47172 3.70711,2.61901 7.03516,0.83789 1.66892,-0.89317 2.41797,-2.62288 2.41797,-5.58203 0,-4.07539 -2.47487,-6.875 -6.07813,-6.875 z m 28.61133,0 c -1.50401,0 -5.15746,7.53834 -4.31445,8.90234 1.03611,1.67647 4.27809,1.3078 4.99804,-0.56835 0.86302,-2.249 7.74693,-2.13352 8.6211,0.14453 0.53521,1.39474 -0.15608,1.68582 -3.00586,1.26757 -2.03505,-0.29868 -3.41638,-0.0826 -3.06836,0.48047 0.88255,1.42802 6.42845,1.28327 7.33984,-0.1914 1.67758,-2.71437 -6.03362,-10.03516 -10.57031,-10.03516 z m -60.232421,1.4375 c 0.509765,0.0381 0.946466,0.19367 1.189453,0.45508 0.485975,0.5228 0.18164,1.20088 -0.677734,1.50781 -0.859376,0.30691 -1.5625,1.63738 -1.5625,2.95508 0,1.31771 -0.5625,2.39453 -1.25,2.39453 -2.027918,0 -1.427784,-6.2604 0.677734,-7.06836 0.53045,-0.20355 1.113281,-0.28227 1.623047,-0.24414 z M 60.9375,229.58984 c -0.538119,0.0429 -1.071153,0.54474 -1.818359,1.55664 -0.937744,1.26995 -1.403287,3.09807 -1.033203,4.0625 0.76276,1.98772 5.40625,2.42058 5.40625,0.50391 0,-0.6875 -0.632813,-1.10938 -1.40625,-0.9375 -0.773438,0.17187 -1.665364,-0.39063 -1.980469,-1.25 -0.322689,-0.88006 0.400694,-1.5625 1.65625,-1.5625 1.79488,0 1.922011,-0.30441 0.646484,-1.5625 -0.476055,-0.46955 -0.865424,-0.74101 -1.238281,-0.80078 -0.07768,-0.0125 -0.155548,-0.0159 -0.232422,-0.01 z m 7.767578,0.30078 c -2.008935,-0.0744 -4.434506,2.79353 -3.548828,5.10157 0.812785,2.11809 5.835938,2.77182 5.835938,0.75976 0,-0.66592 -0.84375,-0.88595 -1.875,-0.49023 -1.187304,0.45561 -1.875,-0.0171 -1.875,-1.28906 0,-1.10481 0.956248,-2.00977 2.125,-2.00977 1.659763,0 1.793806,-0.32924 0.615234,-1.50781 -0.373575,-0.37358 -0.813743,-0.5473 -1.277344,-0.56446 z m 28.53711,2.07227 c 1.944445,0 2.5,0.83334 2.5,3.75 0,2.91666 -0.555555,3.75 -2.5,3.75 -1.944446,0 -2.5,-0.83334 -2.5,-3.75 0,-2.91666 0.555554,-3.75 2.5,-3.75 z"
     id="path3539"
     inkscape:connector-curvature="0"
     transform="matrix(1.1941343,0,0,1.1941343,-92.19746,-112.19744)" />
</svg>
