<?xml version="1.0" encoding="UTF-8" standalone="no"?>
<!-- Created with Inkscape (http://www.inkscape.org/) -->

<svg
   xmlns:dc="http://purl.org/dc/elements/1.1/"
   xmlns:cc="http://creativecommons.org/ns#"
   xmlns:rdf="http://www.w3.org/1999/02/22-rdf-syntax-ns#"
   xmlns:svg="http://www.w3.org/2000/svg"
   xmlns="http://www.w3.org/2000/svg"
   xmlns:sodipodi="http://sodipodi.sourceforge.net/DTD/sodipodi-0.dtd"
   xmlns:inkscape="http://www.inkscape.org/namespaces/inkscape"
   id="svg3565"
   version="1.1"
   inkscape:version="0.91 r13725"
   width="150"
   height="150"
   viewBox="0 0 150 150"
   sodipodi:docname="ct.svg">
  <metadata
     id="metadata3571">
    <rdf:RDF>
      <cc:Work
         rdf:about="">
        <dc:format>image/svg+xml</dc:format>
        <dc:type
           rdf:resource="http://purl.org/dc/dcmitype/StillImage" />
        <dc:title></dc:title>
      </cc:Work>
    </rdf:RDF>
  </metadata>
  <defs
     id="defs3569">
    <clipPath
       clipPathUnits="userSpaceOnUse"
       id="clipPath3579">
      <rect
         style="fill:#0000ff;fill-rule:evenodd;stroke:#000000;stroke-width:0.89945728px;stroke-linecap:butt;stroke-linejoin:miter;stroke-opacity:1"
         id="rect3581"
         width="148.06909"
         height="123.56476"
         x="8.432003"
         y="66.574142" />
    </clipPath>
  </defs>
  <sodipodi:namedview
     pagecolor="#ffffff"
     bordercolor="#666666"
     borderopacity="1"
     objecttolerance="10"
     gridtolerance="10"
     guidetolerance="10"
     inkscape:pageopacity="0"
     inkscape:pageshadow="2"
     inkscape:window-width="1366"
     inkscape:window-height="705"
     id="namedview3567"
     showgrid="false"
     fit-margin-top="0"
     fit-margin-left="0"
     fit-margin-right="0"
     fit-margin-bottom="0"
     inkscape:zoom="2.4109388"
     inkscape:cx="-28.822267"
     inkscape:cy="72.504323"
     inkscape:window-x="-8"
     inkscape:window-y="-8"
     inkscape:window-maximized="1"
     inkscape:current-layer="svg3565" />
  <path
     style="fill:#489595;fill-opacity:1"
     d="m 7.7572592,220.85012 c -7.76511702,-3.8914 -9.685397,-12.42611 -4.249383,-18.88645 4.02693,-4.78574 10.0550838,-6.10476 15.3607408,-3.3611 4.808642,2.48665 6.438908,5.43799 6.438908,11.65665 0,8.93099 -9.464995,14.64274 -17.5502658,10.5909 z m 9.9362738,-2.09091 c 7.053956,-3.64775 7.670532,-12.87599 1.164757,-17.43281 -6.719365,-4.70643 -16.0507648,0.20791 -16.0507648,8.45306 0,3.29339 0.916368,5.09464 3.845906,7.55969 4.4191578,3.71847 6.1619618,3.94265 11.0401018,1.42006 z M 7.2718112,212.36097 c -1.478664,-1.47866 -1.642497,-2.55134 -0.667828,-4.37252 1.379285,-2.57722 4.3166628,-3.20495 5.5627208,-1.18879 0.477379,0.77241 1.646686,0.66861 3.167572,-0.2812 1.885245,-1.17735 2.744678,-1.17178 3.94205,0.0256 1.208265,1.20826 0.951218,1.5312 -1.218801,1.5312 -1.699288,0 -2.75,0.7721 -2.75,2.02079 0,1.40537 0.761351,1.82168 2.5,1.36702 1.375,-0.35957 2.5,-0.2041 2.5,0.34548 0,1.65625 -4.078665,2.68805 -5.400516,1.3662 -0.788729,-0.78874 -2.032381,-0.80438 -3.454171,-0.0435 -1.5905178,0.85122 -2.7783398,0.63237 -4.1810268,-0.77032 z m 5.5357138,-2.41071 c 0,-1.04166 -1.111111,-1.875 -2.5,-1.875 -1.3888888,0 -2.4999998,0.83334 -2.4999998,1.875 0,1.04166 1.111111,1.875 2.4999998,1.875 1.388889,0 2.5,-0.83334 2.5,-1.875 z m 27.765709,11.27011 c -4.735648,-2.09024 -8.38908,-9.24124 -7.180828,-14.0553 1.012413,-4.03376 5.870529,-8.78001 10.064369,-9.8326 5.085988,-1.2765 11.612928,2.36828 13.856418,7.73771 4.49988,10.76974 -5.99355,20.89348 -16.739959,16.15019 z m 13.171789,-5.13687 c 1.54688,-1.73122 2.8125,-4.5658 2.8125,-6.2991 0,-4.21768 -6.34044,-10.45914 -10.624998,-10.45914 -4.16432,0 -10.625,6.23309 -10.625,10.25071 0,1.61866 0.903936,4.23358 2.008749,5.81091 4.139901,5.91054 11.491444,6.22225 16.428749,0.69662 z m -11.284697,-1.77253 c -1.184041,-1.38286 -2.152801,-4.47661 -2.152801,-6.875 0,-3.95911 0.327515,-4.36071 3.556265,-4.36071 4.725951,0 7.693733,3.53374 7.693733,9.16093 0,4.18404 -0.30645,4.58907 -3.472197,4.58907 -1.931921,0 -4.427189,-1.11535 -5.625,-2.51429 z m 7.847197,-2.48571 c 0,-2.91666 -0.55555,-3.75 -2.499998,-3.75 -1.944445,0 -2.5,0.83334 -2.5,3.75 0,2.91666 0.555555,3.75 2.5,3.75 1.944448,0 2.499998,-0.83334 2.499998,-3.75 z m -4.625231,-6.50808 c 0.946484,-0.60165 0.462116,-0.96071 -1.312267,-0.97278 -2.359739,-0.016 -2.799745,0.63485 -2.733267,4.04336 0.07692,3.94429 0.115112,3.9726 1.312267,0.97279 0.678169,-1.69934 1.908139,-3.51885 2.733267,-4.04337 z m 29.980401,16.86609 c -4.42813,-0.83245 -9.10939,-7.35171 -9.07737,-12.64142 0.0716,-11.82705 14.09069,-16.70671 21.77185,-7.57818 7.76583,9.22917 -0.5658,22.49969 -12.69448,20.2196 z m 9.54893,-4.84412 c 5.09848,-4.2901 5.32266,-10.51465 0.53837,-14.94858 -4.14062,-3.8374 -9.33619,-3.9352 -13.4291,-0.25281 -5.24951,4.72298 -4.50396,13.25569 1.44002,16.48085 4.87098,2.64298 7.08287,2.39583 11.45071,-1.27946 z m -10.60722,-2.64559 c -2.51841,-2.5184 -0.2454,-3.96161 2.56539,-1.62886 2.37734,1.97301 4.38773,0.54604 4.38773,-3.11444 0,-4.27483 -2.48282,-5.21209 -4.99265,-1.88474 -1.28938,1.70936 -2.47294,2.32668 -2.95754,1.54258 -1.35318,-2.18949 0.55205,-5.26078 3.76344,-6.06678 6.3006,-1.58135 10.52546,6.80373 5.65083,11.2152 -2.92522,2.64729 -5.72792,2.62633 -8.4172,-0.063 z m 32.425997,6.55524 c -8.215647,-3.51183 -10.468937,-12.51533 -4.81409,-19.23574 7.98902,-9.4944 21.84121,-4.11594 21.84121,8.4804 0,4.48782 -5.33734,10.76296 -10,11.75705 -1.71875,0.36645 -4.88095,-0.0844 -7.02712,-1.00171 z m 9.43772,-2.5023 c 4.04558,-2.09207 5.0894,-4.15488 5.0894,-10.05775 0,-8.36259 -10.83576,-12.39137 -16.93182,-6.2953 -5.068437,5.06844 -3.85264,12.99622 2.55682,16.67203 3.33872,1.91477 5.0818,1.85488 9.2856,-0.31898 z m -3.6606,-5.02923 -3.125,-1.76412 3.61348,0.24856 c 1.98742,0.1367 3.83585,-0.37488 4.10763,-1.13684 0.69589,-1.95097 -6.91083,-1.50649 -7.66483,0.44789 -0.75686,1.96177 -5.23405,2.04741 -6.42348,0.12287 -0.48935,-0.7918 0.0399,-2.11943 1.17623,-2.95031 1.13628,-0.83086 2.06597,-2.11859 2.06597,-2.8616 0,-0.743 0.5735,-1.70536 1.27444,-2.13856 1.92439,-1.18934 9.97556,1.8436 9.97556,3.75788 0,0.92063 0.70313,1.95918 1.5625,2.30789 1.17489,0.47673 1.09737,0.95638 -0.3125,1.93357 -1.03125,0.71477 -1.73437,1.74196 -1.5625,2.28267 0.53736,1.69048 -1.43669,1.58524 -4.6875,-0.2499 z m 30.01739,7.17558 c -5.37154,-2.70276 -7.79832,-7.10955 -6.98513,-12.68434 1.28415,-8.80347 10.36343,-13.56987 18.16436,-9.53585 4.59515,2.37625 7.62359,8.47176 6.67484,13.43484 -0.71002,3.71424 -6.00119,9.71776 -8.56469,9.71776 -0.88126,0 -2.35143,0.28354 -3.26703,0.63009 -0.91562,0.34655 -3.62567,-0.35658 -6.02235,-1.5625 z m 13.04077,-4.07019 c 3.75789,-3.75789 3.26778,-10.86094 -1.00286,-14.53439 -4.56673,-3.92812 -9.6214,-3.806 -13.75985,0.33244 -4.52868,4.52868 -4.35186,9.59045 0.50462,14.44694 3.19442,3.1944 4.43892,3.67231 7.80817,2.99846 2.20445,-0.44089 5.10691,-1.90044 6.44992,-3.24345 z m -9.90881,-4.64571 c -0.56069,-3.73899 -0.40955,-6.05663 0.41285,-6.33075 0.71355,-0.23785 0.95807,-1.31662 0.54339,-2.39726 -0.5088,-1.32593 -0.18113,-1.77386 1.00772,-1.37758 0.96893,0.32297 1.67478,1.10286 1.56855,1.73306 -0.10625,0.63021 0.36194,1.48889 1.04036,1.90818 1.7822,1.10147 -0.12816,12.36266 -2.09722,12.36266 -0.93843,0 -1.95399,-2.41961 -2.47565,-5.89831 z M 67.807523,181.71612 c -20.627982,-7.84611 -47.650741,-20.80558 -48.422509,-23.22229 -0.255809,-0.80103 0.690857,-1.82331 2.103702,-2.27173 1.412845,-0.44842 2.568809,-1.29165 2.568809,-1.87385 0,-0.91735 -7.554458,-6.2474 -15.3754598,-10.84818 -2.291389,-1.34793 -2.103516,-1.63472 2.6642588,-4.06706 2.821217,-1.43927 8.863905,-6.11024 13.428195,-10.37991 14.741959,-13.79037 25.071394,-28.987 30.706844,-45.175798 1.94849,-5.597378 3.55024,-9.208871 3.55944,-8.025541 0.009,1.18333 -1.68235,6.80833 -3.75899,12.5 -6.327789,17.343279 -18.269199,33.121049 -35.650144,47.103299 l -9.247925,7.43958 9.024391,5.8313 c 9.129344,5.89911 36.373678,19.57191 53.190638,26.69417 6.84434,2.89869 9.74395,3.57289 11.44684,2.66153 3.93224,-2.10448 17.361847,-17.67452 24.908857,-28.87887 8.24903,-12.24658 13.04752,-23.78782 15.73909,-37.85536 1.85486,-9.69449 2.58603,-30.772159 1.06747,-30.772159 -2.90283,0 -34.563217,-5.505095 -33.568087,-5.836806 2.52417,-0.841391 38.613717,5.380782 36.998687,6.37892 -0.99319,0.613824 -1.3766,2.307967 -0.97582,4.311819 0.69489,3.47443 -0.87,24.160086 -2.35149,31.083576 -0.76639,3.58155 -0.55482,4.0625 1.78695,4.0625 2.90386,0 3.58341,-1.86772 1.09375,-3.00612 -0.85938,-0.39295 0.125,-0.47407 2.1875,-0.18024 2.0625,0.29381 7.6875,0.90761 12.5,1.36397 13.33435,1.26452 13.71554,1.66009 9.91441,10.28863 -10.61361,24.09286 -26.11639,41.67025 -44.07955,49.97834 -7.36189,3.40492 -9.851177,3.75773 -16.772357,2.37716 -4.99889,-0.99714 -6.69943,0.86055 -1.92959,2.1079 1.51686,0.39666 2.41739,1.06173 2.00118,1.47794 -0.4162,0.41621 -3.12029,0.12029 -6.00909,-0.65758 -6.24535,-1.6817 -8.36808,-0.60831 -2.7027,1.36665 2.17399,0.75785 3.9527,1.88539 3.9527,2.50564 0,0.62023 -0.14062,1.0738 -0.3125,1.00791 -0.17187,-0.0659 -9.03125,-3.43609 -19.6875,-7.48934 z m 6.875,-3.64086 c -0.4249,-0.6875 -1.61629,-1.25 -2.64754,-1.25 -1.03125,0 -1.52736,0.5625 -1.10246,1.25 0.4249,0.6875 1.61629,1.25 2.64754,1.25 1.03125,0 1.52736,-0.5625 1.10246,-1.25 z m 21.54776,-1.47804 c -0.23752,-2.17617 0.54748,-2.90762 3.880547,-3.61581 2.29807,-0.48828 4.82932,-1.58719 5.625,-2.44201 1.12967,-1.21367 0.8607,-1.4136 -1.22744,-0.9124 -1.47077,0.35301 -3.43952,0.14828 -4.375,-0.45495 -1.413367,-0.9114 -1.383937,-1.30484 0.17413,-2.32765 1.03125,-0.67698 3.10743,-1.23948 4.61373,-1.25 1.5063,-0.0105 3.08637,-0.58164 3.51127,-1.26914 0.45908,-0.7428 -0.90578,-1.21376 -3.36373,-1.1607 -3.44282,0.0744 -5.364687,1.4365 -11.463537,8.125 l -7.32727,8.0357 5.12504,0 c 4.52545,0 5.09019,-0.31915 4.82726,-2.72804 z M 113.789,174.6981 c 5.66623,-3.55178 12.76852,-9.27468 12.76852,-10.28864 0,-1.18425 -13.40825,0.83185 -16.13475,2.42606 -1.52854,0.89375 -1.06493,1.17254 1.99848,1.20173 2.1938,0.0209 4.32015,0.57426 4.72522,1.22967 0.66663,1.07864 -1.86852,2.0176 -12.14281,4.49743 -1.88588,0.45517 -3.1183,1.33009 -2.73873,1.94425 1.1439,1.85088 7.90504,1.25802 11.52407,-1.0105 z m -54.497097,0.0232 c -0.90235,-0.36109 -1.98047,-0.31669 -2.39584,0.0986 -0.41536,0.41536 0.32292,0.7108 1.64063,0.65653 1.45618,-0.06 1.75237,-0.35618 0.75521,-0.7552 z m -7.48438,-3.14604 c -0.80208,-0.80209 -1.87329,-1.04337 -2.38046,-0.5362 -0.507177,0.50717 -0.11097,1.42346 0.88046,2.0362 2.33449,1.44279 3.38864,0.38864 1.5,-1.5 z m -6.499998,-2.25 c 0,-0.6875 -0.876948,-1.25 -1.948771,-1.25 -1.071824,0 -1.601128,0.5625 -1.176229,1.25 0.424899,0.6875 1.301845,1.25 1.948771,1.25 0.646926,0 1.176229,-0.5625 1.176229,-1.25 z m 8.749998,0 c 0,-0.6875 -0.5957,-1.25 -1.32377,-1.25 -0.72807,0 -0.97613,0.5625 -0.55123,1.25 0.4249,0.6875 1.0206,1.25 1.32377,1.25 0.30318,0 0.55123,-0.5625 0.55123,-1.25 z m -12.499998,-5.5929 c 0,-0.3261 -1.6875,-1.46554 -3.75,-2.5321 -2.0625,-1.06656 -3.75,-1.44821 -3.75,-0.84811 0,0.60009 1.265625,1.70146 2.8125,2.4475 3.136302,1.51257 4.6875,1.82123 4.6875,0.93271 z m 92.897105,-7.04843 c 5.48094,-6.26555 19.21854,-30.65968 17.96946,-31.90876 -0.34883,-0.34884 -2.51465,0.3633 -4.81291,1.58254 -3.20026,1.69775 -3.6629,2.32684 -1.97586,2.68677 3.09934,0.66127 1.39402,2.78078 -2.23734,2.78078 -2.29575,0 -2.82219,0.49464 -2.21381,2.08005 0.5342,1.39209 0.31777,1.78315 -0.65433,1.18235 -0.79888,-0.49374 -2.44135,-0.32186 -3.64992,0.38194 -1.96879,1.14651 -1.90479,1.2836 0.6151,1.31765 5.3181,0.0719 2.80614,2.45275 -3.46555,3.28472 -7.75481,1.0287 -9.42855,3.00329 -2.54573,3.00329 2.79058,0 5.07378,0.5625 5.07378,1.25 0,0.6875 -1.125,1.25 -2.5,1.25 -1.375,0 -2.5,0.5625 -2.5,1.25 0,0.6875 1.43945,1.25 3.19877,1.25 5.52126,0 2.04893,2.32546 -5.76893,3.86354 -8.61088,1.69408 -10.97322,3.60402 -4.021,3.25096 7.34273,-0.37289 6.73595,2.09905 -0.90884,3.70246 -9.02423,1.89275 -9.04377,1.91568 -2.5,2.93304 3.09375,0.48099 6.00325,0.959 6.46556,1.06226 0.46231,0.10325 3.35651,-2.68836 6.43155,-6.20359 z m -102.897105,2.61864 c 1.433227,-0.0435 1.303308,-0.48922 -0.551413,-1.89206 -2.769716,-2.09491 -4.344898,-2.25851 -6.796231,-0.70586 -2.511661,1.59086 -0.333362,4.21268 2.801218,3.37157 1.469285,-0.39425 3.515176,-0.7424 4.546426,-0.77365 z m 83.749995,-0.88745 c 3.11525,-0.74312 3.11352,-0.74775 -0.55413,-1.48016 -5.25956,-1.0503 -4.31851,-3.06134 2.00404,-4.28265 7.31778,-1.41355 9.63862,-3.72878 2.61259,-2.60628 -5.93041,0.94747 -7.65548,-1.33509 -2.06872,-2.73727 2.39666,-0.60153 2.80471,-1.09241 1.5625,-1.87967 -3.1254,-1.98078 -4.4396,-1.12264 -9.3168,6.08367 -2.67547,3.95312 -5.05031,7.60435 -5.27743,8.11384 -0.39672,0.88996 4.46583,0.35626 11.03795,-1.21148 z m 6.25,-17.70612 c 0,-1.40505 -3.2514,-2.71568 -4.25279,-1.71428 -1.50471,1.5047 -0.68369,2.83054 1.75279,2.83054 1.375,0 2.5,-0.50232 2.5,-1.11626 z m 5.04664,-12.09493 c 1.24986,-2.25632 3.43148,-3.96715 5.67895,-4.45342 l 3.64941,-0.7896 -3.4375,-0.35623 c -7.26257,-0.75262 -7.79792,-0.54576 -9.86141,3.81044 -3.38621,7.14857 0.12525,8.73056 3.97055,1.78881 z m 25.57836,-6.78881 c -0.4249,-0.6875 -1.5831,-1.25 -2.57378,-1.25 -0.99067,0 -1.80122,0.5625 -1.80122,1.25 0,0.6875 1.1582,1.25 2.57377,1.25 1.41558,0 2.22613,-0.5625 1.80123,-1.25 z m -81.317307,39.89109 c -0.46192,-0.74742 -0.21387,-1.98492 0.55123,-2.75 1.02144,-1.02145 1.39108,-0.66037 1.39108,1.35891 0,3.01814 -0.64932,3.48319 -1.94231,1.39109 z m 7.56731,-3.64109 c -0.98646,-1.59613 3.15518,-1.59613 5.625,0 1.46654,0.94775 1.14223,1.21589 -1.48873,1.23086 -1.85005,0.0105 -3.71137,-0.54336 -4.13627,-1.23086 z m -16.25,-2.5 c 0.4249,-0.6875 1.30185,-1.25 1.94877,-1.25 0.64693,0 1.17623,0.5625 1.17623,1.25 0,0.6875 -0.87695,1.25 -1.94877,1.25 -1.07182,0 -1.60113,-0.5625 -1.17623,-1.25 z m -6.21506,-3.2021 c -1.90406,-1.76461 -4.27748,-2.88652 -5.28698,-2.49915 -1.11528,0.42798 -1.628238,0.0914 -1.31133,-0.8604 0.91532,-2.74901 4.81309,-2.60644 5.54776,0.20294 0.38704,1.48005 1.70074,2.60871 3.0364,2.60871 1.29482,0 2.35421,0.84375 2.35421,1.875 0,2.501 -0.31262,2.40541 -4.34006,-1.3271 z m -20.959583,-7.1104 c -2.157144,-1.66244 -2.585121,-3.25701 -2.348459,-8.75 0.0868,-2.01475 0.8608,-3.4375 1.870048,-3.4375 0.94707,0 2.422195,-0.84375 3.278056,-1.875 1.692695,-2.03957 5,-2.54943 5,-0.77079 0,0.60731 -1.194626,1.41661 -2.654726,1.79844 -2.13589,0.55855 -2.497683,1.31994 -1.851185,3.89579 0.663506,2.64362 0.36371,3.20156 -1.720274,3.20156 -3.652153,0 -3.097703,3.35881 0.913685,5.53504 2.021379,1.09661 2.634755,1.88549 1.488912,1.91491 -1.071723,0.0275 -2.860949,-0.65307 -3.976057,-1.51245 z m 33.549953,-6.00083 c -15.36313,-5.99203 -25.750308,-11.02411 -25.750308,-12.47475 0,-0.60731 5.203125,1.33944 11.562498,4.32609 6.35938,2.98666 14.14251,6.34886 17.29585,7.47156 4.71389,1.6783 12.13112,5.86414 9.89165,5.58225 -0.34375,-0.0433 -6.19361,-2.25058 -12.99969,-4.90515 z m 17.99969,-6.18667 c 0,-0.6875 0.24805,-1.25 0.55123,-1.25 0.30318,0 0.89887,0.5625 1.32377,1.25 0.4249,0.6875 0.17685,1.25 -0.55123,1.25 -0.72807,0 -1.32377,-0.5625 -1.32377,-1.25 z m -13.125,-4.33145 c -9.97046,-4.07641 -16.875,-7.50749 -16.875,-8.3857 0,-1.29343 5.76347,0.95495 9.85076,3.84286 1.80083,1.27239 5.09592,2.70791 7.32241,3.19004 2.22649,0.48212 4.36906,1.39581 4.76127,2.03043 0.88729,1.43566 -0.26951,1.28072 -5.05944,-0.67763 z m 10.28605,-11.90027 c -4.65517,-1.24084 -9.37769,-3.0182 -10.49449,-3.94968 -1.11679,-0.93148 -3.49551,-2.35104 -5.28604,-3.15458 -3.11514,-1.39798 -3.13425,-1.46535 -0.44302,-1.5625 1.54688,-0.0558 3.92287,1.00885 5.27998,2.36596 1.35711,1.35711 5.90549,3.26173 10.1075,4.23249 4.202,0.97077 8.26664,2.39164 9.03252,3.15753 0.76587,0.76587 1.13938,1.34173 0.83,1.27966 -0.30937,-0.062 -4.37128,-1.12806 -9.02645,-2.36888 z m 4.63153,-13.32552 c -2.79533,-1.58193 -8.08914,-3.645715 -11.76402,-4.586189 -3.99799,-1.02316 -6.07236,-2.08647 -5.16473,-2.64742 1.59097,-0.98327 20.8865,6.221089 22.15374,8.271529 1.33131,2.1541 -0.0799,1.87376 -5.22499,-1.03792 z m 18.207417,-9.192769 c 0,-0.6875 0.5625,-1.25 1.25,-1.25 0.6875,0 1.25,0.5625 1.25,1.25 0,0.6875 -0.5625,1.25 -1.25,1.25 -0.6875,0 -1.25,-0.5625 -1.25,-1.25 z m -21.874997,-4.36211 c -2.0625,-0.936222 -4.875,-2.1123 -6.25,-2.613505 -1.95099,-0.71116 -2.07587,-1.015344 -0.56869,-1.38515 1.06222,-0.260629 4.99972,0.91902 8.75,2.62144 3.75028,1.702421 5.69369,3.091735 4.31869,3.087375 -1.375,-0.004 -4.1875,-0.77394 -6.25,-1.71016 z m 1.5625,-16.465741 c 0.85938,-0.346765 2.26563,-0.346765 3.125,0 0.85938,0.346766 0.15625,0.630482 -1.5625,0.630482 -1.71875,0 -2.42187,-0.283716 -1.5625,-0.630482 z m -27.08881,-2.192983 c -0.0543,-1.317707 0.24116,-2.055989 0.65652,-1.640625 0.41536,0.415365 0.45977,1.49349 0.0987,2.395834 -0.39903,0.997166 -0.69523,0.70097 -0.75521,-0.755209 z M 23.120025,58.4974 c -2.844165,-1.147645 -1.619661,-2.984125 1.472285,-2.208097 1.669133,0.418925 4.200383,0.391737 5.625,-0.06042 4.189714,-1.329762 3.09968,-5.30066 -2.409785,-8.778632 -6.004503,-3.790476 -6.732909,-8.181923 -1.884106,-11.35898 3.223285,-2.111978 9.384106,-1.598837 9.384106,0.78161 0,0.710876 -1.354811,0.909964 -3.141233,0.461601 -3.377329,-0.847656 -6.858767,1.179361 -6.858767,3.99342 0,0.933096 2.180624,2.80901 4.845831,4.168698 6.83114,3.484987 8.091288,7.141532 3.904169,11.328651 -2.340922,2.340923 -7.373394,3.110298 -10.9375,1.672149 z m 17.4375,-0.672149 c -0.825,-0.825 -1.5,-4.153125 -1.5,-7.395834 0,-3.545197 -0.62296,-6.148606 -1.5625,-6.529836 -1.085576,-0.440485 -1.153131,-0.949204 -0.221323,-1.666666 0.737647,-0.567965 1.704368,-2.017039 2.148269,-3.220164 1.099333,-2.979574 3.385554,-2.768546 3.385554,0.3125 0,1.388889 0.833334,2.5 1.875,2.5 1.03125,0 1.875,0.5625 1.875,1.25 0,0.6875 -0.84375,1.25 -1.875,1.25 -1.416666,0 -1.875,1.527777 -1.875,6.25 0,4.722222 0.458334,6.25 1.875,6.25 1.03125,0 1.875,0.5625 1.875,1.25 0,1.740737 -4.183579,1.566421 -6,-0.25 z m 8.5,-7.25 c 0,-5 0.535718,-8.75 1.249998,-8.75 0.6875,0 1.29441,0.703125 1.34869,1.5625 0.079,1.25 0.22478,1.25 0.72916,0 0.67675,-1.677161 4.17215,-2.190883 4.17215,-0.613184 0,0.522124 -1.125,1.651891 -2.5,2.510593 -1.95758,1.222527 -2.5,2.915035 -2.5,7.800684 0,3.431673 -0.5625,6.239407 -1.25,6.239407 -0.71428,0 -1.249998,-3.75 -1.249998,-8.75 z m 11.499998,7.25 c -1.76773,-1.767732 -2.0456,-16 -0.31238,-16 0.65319,0 1.35632,3.228909 1.5625,7.175353 0.31014,5.936125 0.79238,7.254895 2.79226,7.635925 3.41635,0.650903 5.70762,-3.132749 5.70762,-9.42519 0,-2.962348 0.5625,-5.386088 1.25,-5.386088 0.71429,0 1.25,3.75 1.25,8.75 0,5 -0.53571,8.75 -1.25,8.75 -0.6875,0 -1.25,-0.675 -1.25,-1.5 0,-1.166666 -0.33333,-1.166666 -1.5,0 -0.825,0.825 -2.68125,1.5 -4.125,1.5 -1.44375,0 -3.3,-0.675 -4.125,-1.5 z m 17.25,-1 c -3.21416,-3.214159 -3.21416,-9.285841 0,-12.5 1.73955,-1.73955 4.16667,-2.5 7.97921,-2.5 4.57341,0 5.63287,-0.46495 6.40869,-2.8125 l 0.92948,-2.8125 0.55325,2.8125 c 0.34509,1.754329 1.46114,2.8125 2.96631,2.8125 1.32718,0 2.41306,0.5625 2.41306,1.25 0,0.6875 -1.125,1.25 -2.5,1.25 -2.01241,0 -2.5,0.833334 -2.5,4.272766 0,5.506526 1.07765,8.227234 3.25874,8.227234 0.95769,0 1.74126,0.5625 1.74126,1.25 0,1.740737 -4.18358,1.566421 -6,-0.25 -0.825,-0.825 -1.5,-4.162638 -1.5,-7.416973 0,-5.51827 -0.23163,-5.945677 -3.4375,-6.342982 -7.62949,-0.945525 -12.05046,4.296315 -8.36605,9.91943 1.25907,1.921586 3.08889,2.840525 5.65614,2.840525 2.21166,0 3.47264,0.521511 3.02241,1.25 -1.32944,2.151081 -8.00985,1.36515 -10.625,-1.25 z M 102.2534,56.547119 c -2.571447,-3.671254 -2.671467,-14.721868 -0.13326,-14.721868 1.32987,0 1.91246,1.914226 2.1875,7.1875 0.35119,6.733365 0.57233,7.1875 3.49988,7.1875 2.92755,0 3.14869,-0.454135 3.49988,-7.1875 0.27504,-5.273274 0.85763,-7.1875 2.1875,-7.1875 1.41086,0 1.81262,1.939389 1.81262,8.75 0,5 -0.53571,8.75 -1.25,8.75 -0.6875,0 -1.25,-0.582291 -1.25,-1.29398 0,-0.891973 -0.75116,-0.891973 -2.41782,0 -3.70243,1.981481 -6.00278,1.561873 -8.1363,-1.484152 z m 16.80412,-5.971868 c 0,-5 0.53571,-8.75 1.25,-8.75 0.6875,0 1.29441,0.703125 1.34868,1.5625 0.0789,1.25 0.22479,1.25 0.72917,0 0.67675,-1.677161 4.17215,-2.190883 4.17215,-0.613184 0,0.522124 -1.125,1.651891 -2.5,2.510593 -1.95758,1.222527 -2.5,2.915035 -2.5,7.800684 0,3.431673 -0.5625,6.239407 -1.25,6.239407 -0.71429,0 -1.25,-3.75 -1.25,-8.75 z m 11.52814,6.80412 c -3.57478,-2.503867 -3.86421,-10.433767 -0.49222,-13.485385 3.26265,-2.952657 8.44219,-2.611434 10.7682,0.709398 3.35089,4.784064 2.4948,5.971867 -4.30412,5.971867 -6.71576,0 -6.92171,0.159249 -4.95603,3.832176 0.9035,1.688204 2.62322,2.417824 5.69878,2.417824 2.61822,0 4.09145,0.506996 3.63225,1.25 -1.17421,1.899917 -7.22151,1.493205 -10.34686,-0.69588 z m 7.18698,-12.471147 c -1.97348,-2.377898 -3.05688,-2.310889 -5.73206,0.354527 -2.09271,2.08508 -1.99447,2.217284 2.09821,2.823624 4.73155,0.700989 5.96092,-0.374209 3.63385,-3.178151 z M 59.503773,15.585775 c -6.28971,-2.538214 -8.82408,-12.6663594 -4.65788,-18.6144334 2.52698,-3.607771 9.168,-6.5003343 12.76467,-5.5597828 4.47536,1.1703309 3.22089,3.7228562 -1.55558,3.1652299 -5.76041,-0.6724961 -9.50437,3.054733 -9.47832,9.4359619 0.0105,2.578125 0.43241,5.3064165 0.9375,6.0628704 1.70473,2.553065 6.75675,4.467094 9.78479,3.707104 3.31868,-0.832937 4.18045,1.075361 1.03134,2.28379 -2.61278,1.002617 -5.54673,0.842818 -8.82652,-0.48074 z m 15.69223,-1.099473 c -5.89685,-4.7749799 -2.27258,-16.4110514 5.11152,-16.4110514 1.22267,0 3.52286,1.05252709 5.11152,2.33894906 5.89685,4.77497994 2.27259,16.41105134 -5.11152,16.41105134 -1.22267,0 -3.52285,-1.052528 -5.11152,-2.338949 z m 9.04697,-3.193873 c 2.82993,-6.2110284 -1.32224,-12.20368601 -6.526,-9.4187164 -2.76352,1.478992 -3.34767,8.5133134 -0.90945,10.9515384 2.4424,2.442399 5.95406,1.718467 7.43545,-1.532823 z m 6.89789,4.699488 c -1.82022,-1.82021 -0.66845,-2.922912 2.28001,-2.182895 2.30981,0.579725 3.33572,0.201942 3.97489,-1.463722 0.50168,-1.307352 0.25247,-2.4481449 -0.59663,-2.7311789 -0.80199,-0.26733 -2.66214,-1.4609795 -4.13368,-2.6525555 -4.69923,-3.805212 -0.1948,-10.3761329 5.59098,-8.1559226 3.199827,1.22789259 2.409517,2.8908196 -1.24989,2.6299376 -4.65504,-0.331861 -5.05274,2.383994 -0.68022,4.645111 2.02304,1.046153 4.014897,2.779409 4.426367,3.8516795 1.44494,3.7654429 -6.743647,8.9277349 -9.611827,6.0595459 z m 14.416657,-0.666666 c -0.825,-0.825 -1.5,-4.153125 -1.5,-7.3958344 0,-3.242707 -0.57412,-6.087204 -1.27581,-6.321103 -0.82378,-0.274593 -0.71306,-1.63670411 0.3125,-3.8444139 1.7641,-3.7975778 3.46331,-4.5073356 3.46331,-1.4466246 0,1.0956135 1.125,2.2862186 2.5,2.6457893 3.07179,0.80329179 3.34909,3.1143452 0.3125,2.6044822 -1.59085,-0.267114 -2.29936,0.611493 -2.5976,3.22124 -0.59188,5.1791745 0.78235,9.5364644 3.00769,9.5364644 1.05872,0 1.57731,0.5625 1.15241,1.25 -1.04575,1.692057 -3.54939,1.575609 -5.375,-0.25 z"
     id="path3575"
     inkscape:connector-curvature="0"
     clip-path="url(#clipPath3579)"
     transform="matrix(1.0130406,0,0,1.0130406,-8.5419614,-58.618426)" />
</svg>
