<?xml version="1.0" encoding="iso-8859-1"?>
<!-- Generator: Adobe Illustrator 19.0.0, SVG Export Plug-In . SVG Version: 6.00 Build 0)  -->
<svg xmlns="http://www.w3.org/2000/svg" xmlns:xlink="http://www.w3.org/1999/xlink" version="1.1" id="Layer_1" x="0px" y="0px" viewBox="0 0 511.999 511.999" style="enable-background:new 0 0 511.999 511.999;" xml:space="preserve" width="512px" height="512px">
<g>
	<g>
		<path d="M475.926,179.167L208.534,446.558c-36.862,36.86-96.837,36.86-133.696,0c-17.855-17.856-27.689-41.596-27.689-66.848    s9.833-48.992,27.689-66.847L333.316,54.382c22.117-22.115,58.103-22.115,80.219,0c10.713,10.713,16.612,24.958,16.612,40.108    c0,15.152-5.9,29.396-16.613,40.109L155.056,393.08c-7.373,7.371-19.368,7.371-26.74,0c-7.371-7.373-7.371-19.366,0-26.739    L395.709,98.949L368.97,72.21L101.575,339.602c-22.114,22.117-22.114,58.102,0,80.217c22.117,22.117,58.101,22.117,80.218,0    L440.274,161.34c36.861-36.859,36.861-96.835,0-133.695c-36.861-36.86-96.837-36.86-133.696,0L48.098,286.123    C23.1,311.121,9.333,344.358,9.333,379.71c0,35.353,13.767,68.59,38.765,93.587c25.805,25.805,59.69,38.702,93.587,38.702    c33.889,0,67.788-12.904,93.588-38.702l267.392-267.392L475.926,179.167z" fill="#808080"/>
	</g>
</g>
<g>
</g>
<g>
</g>
<g>
</g>
<g>
</g>
<g>
</g>
<g>
</g>
<g>
</g>
<g>
</g>
<g>
</g>
<g>
</g>
<g>
</g>
<g>
</g>
<g>
</g>
<g>
</g>
<g>
</g>
</svg>
