<?xml version="1.0" encoding="UTF-8" standalone="no"?>
<!-- Generated by IcoMoon.io -->

<svg
   xmlns:dc="http://purl.org/dc/elements/1.1/"
   xmlns:cc="http://creativecommons.org/ns#"
   xmlns:rdf="http://www.w3.org/1999/02/22-rdf-syntax-ns#"
   xmlns:svg="http://www.w3.org/2000/svg"
   xmlns="http://www.w3.org/2000/svg"
   xmlns:sodipodi="http://sodipodi.sourceforge.net/DTD/sodipodi-0.dtd"
   xmlns:inkscape="http://www.inkscape.org/namespaces/inkscape"
   version="1.1"
   width="512px"
   height="512px"
   viewBox="0 0 16 16"
   id="svg2"
   inkscape:version="0.91 r13725"
   sodipodi:docname="fill.svg">
  <metadata
     id="metadata12">
    <rdf:RDF>
      <cc:Work
         rdf:about="">
        <dc:format>image/svg+xml</dc:format>
        <dc:type
           rdf:resource="http://purl.org/dc/dcmitype/StillImage" />
      </cc:Work>
    </rdf:RDF>
  </metadata>
  <defs
     id="defs10" />
  <sodipodi:namedview
     pagecolor="#ffffff"
     bordercolor="#666666"
     borderopacity="1"
     objecttolerance="10"
     gridtolerance="10"
     guidetolerance="10"
     inkscape:pageopacity="0"
     inkscape:pageshadow="2"
     inkscape:window-width="726"
     inkscape:window-height="480"
     id="namedview8"
     showgrid="false"
     inkscape:zoom="0.73142424"
     inkscape:cx="485.32494"
     inkscape:cy="252.10827"
     inkscape:window-x="0"
     inkscape:window-y="0"
     inkscape:window-maximized="0"
     inkscape:current-layer="svg2" />
  <path
     fill="#489595"
     d="M7.1 1.7l-1.2 1.1-2.3-2.4c-0.6-0.5-1.6-0.5-2.2 0-0.2 0.3-0.4 0.7-0.4 1.1s0.2 0.8 0.4 1.1l2.4 2.4-3.8 3.7 6.4 6.4 7-7.1-6.3-6.3zM2.1 1.9c0-0.1-0.1-0.3-0.1-0.4s0.1-0.3 0.1-0.4c0.2-0.1 0.6-0.1 0.8 0l2.4 2.4-0.8 0.7-2.4-2.3zM2.1 8l3.8-3.8 1.2 1.2c0.1 0.1 0.2 0.1 0.4 0.1s0.3 0 0.4-0.1c0.1-0.2 0.1-0.5-0.1-0.7l-1.2-1.2 0.4-0.4 5 4.9h-9.9z"
     id="path4"
     style="fill:#808080;fill-opacity:1" />
  <path
     fill="#489595"
     d="M13.5 9c0 0-1.5 4.7-1.5 5.5s0.7 1.5 1.5 1.5 1.5-0.7 1.5-1.5-1.5-5.5-1.5-5.5z"
     id="path6"
     style="fill:#808080;fill-opacity:1" />
</svg>
