<?xml version="1.0" encoding="UTF-8" standalone="no"?>
<!-- Generator: Adobe Illustrator 19.0.0, SVG Export Plug-In . SVG Version: 6.00 Build 0)  -->

<svg
   xmlns:dc="http://purl.org/dc/elements/1.1/"
   xmlns:cc="http://creativecommons.org/ns#"
   xmlns:rdf="http://www.w3.org/1999/02/22-rdf-syntax-ns#"
   xmlns:svg="http://www.w3.org/2000/svg"
   xmlns="http://www.w3.org/2000/svg"
   xmlns:sodipodi="http://sodipodi.sourceforge.net/DTD/sodipodi-0.dtd"
   xmlns:inkscape="http://www.inkscape.org/namespaces/inkscape"
   version="1.1"
   id="Layer_1"
   x="0px"
   y="0px"
   viewBox="0 0 330 330"
   style="enable-background:new 0 0 330 330;"
   xml:space="preserve"
   width="512px"
   height="512px"
   inkscape:version="0.91 r13725"
   sodipodi:docname="hide.svg"><metadata
   id="metadata38"><rdf:RDF><cc:Work
       rdf:about=""><dc:format>image/svg+xml</dc:format><dc:type
         rdf:resource="http://purl.org/dc/dcmitype/StillImage" /></cc:Work></rdf:RDF></metadata><defs
   id="defs36" /><sodipodi:namedview
   pagecolor="#ffffff"
   bordercolor="#666666"
   borderopacity="1"
   objecttolerance="10"
   gridtolerance="10"
   guidetolerance="10"
   inkscape:pageopacity="0"
   inkscape:pageshadow="2"
   inkscape:window-width="726"
   inkscape:window-height="480"
   id="namedview34"
   showgrid="false"
   inkscape:zoom="0.58063832"
   inkscape:cx="45.886415"
   inkscape:cy="253.83051"
   inkscape:window-x="0"
   inkscape:window-y="0"
   inkscape:window-maximized="0"
   inkscape:current-layer="Layer_1" />
<path
   id="XMLID_2_"
   d="M325.607,304.394l-63.479-63.479c38.57-29.035,63.522-64.92,65.247-67.437c3.501-5.11,3.501-11.846,0-16.956  c-2.925-4.269-72.659-104.544-162.371-104.544c-25.872,0-50.075,8.345-71.499,20.313L25.607,4.394  c-5.857-5.858-15.355-5.858-21.213,0c-5.858,5.858-5.858,15.355,0,21.213l63.478,63.478C29.299,118.12,4.35,154.006,2.625,156.523  c-3.5,5.109-3.5,11.845,0,16.955c2.925,4.268,72.65,104.546,162.378,104.546c25.868,0,50.069-8.345,71.493-20.314l67.897,67.898  C307.323,328.536,311.161,330,315,330c3.839,0,7.678-1.464,10.606-4.394C331.465,319.749,331.465,310.252,325.607,304.394z   M165.003,81.977c60.26,0,113.408,60.338,131.257,83.022c-9.673,12.294-29.705,35.629-55.609,54.439L115.673,94.461  C131.079,86.902,147.736,81.977,165.003,81.977z M165.003,248.023c-60.285,0-113.439-60.364-131.273-83.037  c9.651-12.303,29.652-35.658,55.574-54.47l124.99,124.99C198.884,243.084,182.236,248.023,165.003,248.023z"
   fill="#489595"
   style="fill:#808080;fill-opacity:1" />
<g
   id="g4">
</g>
<g
   id="g6">
</g>
<g
   id="g8">
</g>
<g
   id="g10">
</g>
<g
   id="g12">
</g>
<g
   id="g14">
</g>
<g
   id="g16">
</g>
<g
   id="g18">
</g>
<g
   id="g20">
</g>
<g
   id="g22">
</g>
<g
   id="g24">
</g>
<g
   id="g26">
</g>
<g
   id="g28">
</g>
<g
   id="g30">
</g>
<g
   id="g32">
</g>
</svg>