<?xml version="1.0" encoding="UTF-8" standalone="no"?>
<!-- Generator: Adobe Illustrator 19.0.0, SVG Export Plug-In . SVG Version: 6.00 Build 0)  -->

<svg
   xmlns:dc="http://purl.org/dc/elements/1.1/"
   xmlns:cc="http://creativecommons.org/ns#"
   xmlns:rdf="http://www.w3.org/1999/02/22-rdf-syntax-ns#"
   xmlns:svg="http://www.w3.org/2000/svg"
   xmlns="http://www.w3.org/2000/svg"
   xmlns:sodipodi="http://sodipodi.sourceforge.net/DTD/sodipodi-0.dtd"
   xmlns:inkscape="http://www.inkscape.org/namespaces/inkscape"
   version="1.1"
   id="Capa_1"
   x="0px"
   y="0px"
   viewBox="0 0 52 52"
   style="enable-background:new 0 0 52 52;"
   xml:space="preserve"
   width="512px"
   height="512px"
   inkscape:version="0.91 r13725"
   sodipodi:docname="icon.svg"><metadata
   id="metadata43"><rdf:RDF><cc:Work
       rdf:about=""><dc:format>image/svg+xml</dc:format><dc:type
         rdf:resource="http://purl.org/dc/dcmitype/StillImage" /></cc:Work></rdf:RDF></metadata><defs
   id="defs41" /><sodipodi:namedview
   pagecolor="#ffffff"
   bordercolor="#666666"
   borderopacity="1"
   objecttolerance="10"
   gridtolerance="10"
   guidetolerance="10"
   inkscape:pageopacity="0"
   inkscape:pageshadow="2"
   inkscape:window-width="898"
   inkscape:window-height="652"
   id="namedview39"
   showgrid="false"
   inkscape:zoom="0.9707547"
   inkscape:cx="45.886415"
   inkscape:cy="253.83051"
   inkscape:window-x="0"
   inkscape:window-y="0"
   inkscape:window-maximized="0"
   inkscape:current-layer="Capa_1" />
<g
   id="g3"
   style="fill:#808080;fill-opacity:1">
	<path
   d="M14,24.138c3.071,0,5.569-2.498,5.569-5.568C19.569,15.498,17.071,13,14,13s-5.569,2.498-5.569,5.569   C8.431,21.64,10.929,24.138,14,24.138z"
   fill="#489595"
   id="path5"
   style="fill:#808080;fill-opacity:1" />
	<path
   d="M1,0v40v12h50V40V0H1z M3,2h46v27.643L37.676,19.262c-0.196-0.179-0.454-0.268-0.72-0.262   c-0.265,0.012-0.515,0.129-0.694,0.325l-8.363,9.159l3.808,3.808c0.391,0.391,0.391,1.023,0,1.414C31.512,33.902,31.256,34,31,34   s-0.512-0.098-0.707-0.293l-3.826-3.654l-4.743-4.743c-0.374-0.373-0.972-0.392-1.368-0.044L3.621,40H3V2z M49,50H3v-8h46V50z"
   fill="#489595"
   id="path7"
   style="fill:#808080;fill-opacity:1" />
</g>
<g
   id="g9">
</g>
<g
   id="g11">
</g>
<g
   id="g13">
</g>
<g
   id="g15">
</g>
<g
   id="g17">
</g>
<g
   id="g19">
</g>
<g
   id="g21">
</g>
<g
   id="g23">
</g>
<g
   id="g25">
</g>
<g
   id="g27">
</g>
<g
   id="g29">
</g>
<g
   id="g31">
</g>
<g
   id="g33">
</g>
<g
   id="g35">
</g>
<g
   id="g37">
</g>
</svg>