<?xml version="1.0" encoding="UTF-8" standalone="no"?>
<!-- Created with Inkscape (http://www.inkscape.org/) -->

<svg
   xmlns:dc="http://purl.org/dc/elements/1.1/"
   xmlns:cc="http://creativecommons.org/ns#"
   xmlns:rdf="http://www.w3.org/1999/02/22-rdf-syntax-ns#"
   xmlns:svg="http://www.w3.org/2000/svg"
   xmlns="http://www.w3.org/2000/svg"
   xmlns:sodipodi="http://sodipodi.sourceforge.net/DTD/sodipodi-0.dtd"
   xmlns:inkscape="http://www.inkscape.org/namespaces/inkscape"
   id="svg3591"
   version="1.1"
   inkscape:version="0.91 r13725"
   width="150"
   height="160.20001"
   viewBox="0 0 150 160.20002"
   sodipodi:docname="ka.svg">
  <metadata
     id="metadata3597">
    <rdf:RDF>
      <cc:Work
         rdf:about="">
        <dc:format>image/svg+xml</dc:format>
        <dc:type
           rdf:resource="http://purl.org/dc/dcmitype/StillImage" />
        <dc:title></dc:title>
      </cc:Work>
    </rdf:RDF>
  </metadata>
  <defs
     id="defs3595">
    <clipPath
       clipPathUnits="userSpaceOnUse"
       id="clipPath3605">
      <rect
         style="fill:#0000ff;fill-rule:evenodd;stroke:#000000;stroke-width:1.01849794px;stroke-linecap:butt;stroke-linejoin:miter;stroke-opacity:1"
         id="rect3607"
         width="127.38717"
         height="124.33291"
         x="20.080004"
         y="72.438492" />
    </clipPath>
    <clipPath
       clipPathUnits="userSpaceOnUse"
       id="clipPath4137">
      <rect
         style="fill:#489595;fill-opacity:1"
         id="rect4139"
         width="115.31062"
         height="123.15176"
         x="27.921125"
         y="73.619644" />
    </clipPath>
  </defs>
  <sodipodi:namedview
     pagecolor="#ffffff"
     bordercolor="#666666"
     borderopacity="1"
     objecttolerance="10"
     gridtolerance="10"
     guidetolerance="10"
     inkscape:pageopacity="0"
     inkscape:pageshadow="2"
     inkscape:window-width="1366"
     inkscape:window-height="705"
     id="namedview3593"
     showgrid="false"
     fit-margin-top="0"
     fit-margin-left="0"
     fit-margin-right="0"
     fit-margin-bottom="0"
     inkscape:zoom="1.8412175"
     inkscape:cx="27.422242"
     inkscape:cy="35.626454"
     inkscape:window-x="-8"
     inkscape:window-y="-8"
     inkscape:window-maximized="1"
     inkscape:current-layer="svg3591" />
  <path
     style="fill:#489595;fill-opacity:1"
     d="m 10.48469,230.37499 c -1.4521714,-0.27707 -4.1802964,-2.11114 -6.0625005,-4.07574 -6.4785846,-6.76217 -3.49769645,-17.47785 5.6220825,-20.2102 4.103414,-1.22941 5.347892,-1.09111 8.924531,0.99173 2.285908,1.3312 4.935397,4.03353 5.887752,6.0052 4.246964,8.79251 -4.397774,19.19191 -14.371865,17.28901 z m 10.45281,-6.11675 c 8.131426,-9.10039 -4.140061,-21.8399 -13.7534546,-14.27802 -4.2124585,3.31353 -5.2142801,7.86857 -2.7701174,12.59505 3.5293521,6.82502 11.228346,7.60918 16.523572,1.68297 z M 7.75,221 c -2.0334931,-2.03349 -1.8854642,-4.12398 0.427977,-6.04396 1.4603238,-1.21197 2.27897,-1.24909 3.375,-0.15306 1.096031,1.09603 0.931579,1.44702 -0.677977,1.44702 -1.16875,0 -2.125,0.84375 -2.125,1.875 0,1.03125 0.876947,1.875 1.948771,1.875 1.071824,0 1.601127,0.5625 1.176229,1.25 -1.022871,1.65504 -2.2971917,1.57781 -4.125,-0.25 z m 7.5,0 c -2.033493,-2.03349 -1.885464,-4.12398 0.427978,-6.04396 1.460323,-1.21197 2.278968,-1.24909 3.374999,-0.15306 1.09603,1.09603 0.931579,1.44702 -0.677977,1.44702 -1.16875,0 -2.125,0.84375 -2.125,1.875 0,1.03125 0.876947,1.875 1.948771,1.875 1.071824,0 1.601128,0.5625 1.176229,1.25 -1.022871,1.65504 -2.297191,1.57781 -4.125,-0.25 z m 27.605167,9.37342 c -1.523407,-0.29486 -4.195282,-2.23017 -5.9375,-4.30067 -4.389643,-5.2168 -4.226037,-11.09879 0.454413,-16.33713 2.99743,-3.3547 4.528482,-4.05381 8.87792,-4.05381 4.349437,0 5.88049,0.69911 8.87792,4.05381 6.282635,7.03151 4.160774,16.10002 -4.626138,19.77142 -2.294317,0.95863 -4.330177,1.66636 -4.524133,1.57273 -0.193958,-0.0936 -1.599074,-0.41148 -3.122482,-0.70635 z m 8.305432,-3.45218 C 54.966065,224.95335 56.25,222.73426 56.25,218.125 c 0,-4.60926 -1.283935,-6.82835 -5.089401,-8.79624 -5.054455,-2.61375 -8.332299,-2.2707 -11.842418,1.23943 -5.138617,5.13861 -3.906755,13.2031 2.556819,16.7384 3.371536,1.84408 5.114189,1.77176 9.285599,-0.38535 z M 42.1875,222.39584 C 40.977182,221.07025 40,218.04564 40,215.625 c 0,-4.02778 0.297619,-4.375 3.75,-4.375 5.094182,0 8.75,3.91695 8.75,9.375 0,4.12394 -0.233135,4.36902 -4.0625,4.27084 -2.300229,-0.059 -5.011415,-1.14347 -6.25,-2.5 z M 50,220 c 0,-2.91666 -0.555555,-3.75 -2.5,-3.75 -1.944445,0 -2.5,0.83334 -2.5,3.75 0,2.91666 0.555555,3.75 2.5,3.75 1.944445,0 2.5,-0.83334 2.5,-3.75 z m -6.25,-2.43789 c 0,-1.34083 0.984375,-3.01123 2.1875,-3.71199 1.87014,-1.08926 1.688791,-1.27961 -1.25,-1.31211 -2.994558,-0.0331 -3.4375,0.4452 -3.4375,3.71199 0,2.0625 0.5625,3.75 1.25,3.75 0.6875,0 1.25,-1.09705 1.25,-2.43789 z m 29.949734,11.46275 C 65.960051,225.14621 64.013286,216.6 69.40879,210.1878 c 4.049735,-4.81284 9.179055,-5.9752 14.734421,-3.33901 7.702277,3.65497 9.496752,13.07461 3.669289,19.26099 -4.4605,4.73522 -8.72361,5.61579 -14.112766,2.91508 z M 86.5625,224.85775 c 3.227106,-3.88685 2.813661,-10.59523 -0.880681,-14.28956 -6.275046,-6.27505 -16.85231,-1.53205 -16.85231,7.55681 0,9.33322 11.841235,13.82902 17.732991,6.73275 z m -11.58757,-1.76296 c -1.917471,-2.31042 -0.539379,-4.15924 1.545904,-2.07395 2.250301,2.2503 4.467166,1.77385 5.398405,-1.16023 0.54053,-1.70305 0.105812,-3.36595 -1.225405,-4.6875 -1.912473,-1.89856 -2.228239,-1.83034 -4.324611,0.93443 -2.76683,3.64898 -4.521237,1.62961 -1.871215,-2.15383 C 78.147319,208.74359 85,211.90279 85,218.7953 c 0,5.45399 -6.686855,8.3218 -10.02507,4.29949 z m 31.66846,6.32563 c -4.02619,-1.75111 -7.897294,-7.41681 -7.888717,-11.54585 0.0088,-4.18753 4.679327,-10.07639 9.166397,-11.55727 3.49587,-1.15374 5.23661,-1.07605 8.74612,0.39031 5.06286,2.1154 7.33281,5.64978 7.33281,11.41739 0,5.63002 -1.92623,8.69924 -6.95819,11.08706 -5.10631,2.4231 -5.29743,2.42694 -10.39842,0.20836 z m 13.04411,-5.11378 c 1.54688,-1.75783 2.8125,-4.6142 2.8125,-6.3475 0,-4.21768 -6.34044,-10.45914 -10.625,-10.45914 -1.99983,0 -4.76844,1.45114 -6.97115,3.65385 -4.79134,4.79134 -4.74561,9.1967 0.14623,14.08854 3.1774,3.1774 4.45755,3.67392 7.8125,3.03018 2.20683,-0.42345 5.27805,-2.20812 6.82492,-3.96593 z M 113.75,222.5 c -1.03125,-0.66645 -3.70312,-1.22034 -5.9375,-1.23086 -3.22279,-0.0152 -4.0625,-0.53589 -4.0625,-2.51914 0,-1.375 0.5625,-2.5 1.25,-2.5 0.6875,0 1.25,-0.8614 1.25,-1.91423 0,-2.79938 3.26169,-3.59133 7.52245,-1.82647 3.86865,1.60245 4.22278,2.24567 2.9962,5.44209 -0.55836,1.45507 -1.44534,1.63441 -3.75,0.75817 -3.9461,-1.5003 -3.92554,0.47595 0.0237,2.27533 2.29019,1.04347 3.19288,1.01582 3.65131,-0.11188 0.33495,-0.82392 0.65341,-0.51366 0.70768,0.68946 0.11089,2.45805 -0.89771,2.71702 -3.65131,0.9375 z m 3.75,-3.75 c 0,-0.6875 0.5625,-1.25 1.25,-1.25 0.6875,0 1.25,0.5625 1.25,1.25 0,0.6875 -0.5625,1.25 -1.25,1.25 -0.6875,0 -1.25,-0.5625 -1.25,-1.25 z m 25.39339,10.67042 c -4.02619,-1.75111 -7.89729,-7.41681 -7.88871,-11.54585 0.009,-4.18753 4.67932,-10.07639 9.16638,-11.55727 3.49588,-1.15374 5.23661,-1.07605 8.74613,0.39031 5.06286,2.1154 7.33281,5.64978 7.33281,11.41739 0,5.72321 -2.26254,9.29889 -7.18546,11.35582 -5.0853,2.12478 -5.14781,2.1244 -10.17115,-0.0604 z m 12.66477,-4.42302 c 3.75789,-3.75789 3.26778,-10.86094 -1.00286,-14.53439 -4.63131,-3.98369 -8.94953,-3.76109 -13.40145,0.69084 -4.79134,4.79134 -4.74561,9.1967 0.14623,14.08854 3.19441,3.1944 4.43891,3.67231 7.80816,2.99846 2.20445,-0.44089 5.10691,-1.90044 6.44992,-3.24345 z m -9.90881,-4.64571 c -0.56069,-3.73899 -0.40955,-6.05663 0.41285,-6.33075 0.71355,-0.23785 0.98753,-1.23987 0.60884,-2.2267 -0.4332,-1.1289 0.10595,-1.79424 1.45396,-1.79424 1.34801,0 1.88716,0.66534 1.45396,1.79424 -0.37869,0.98684 -0.10475,1.98885 0.60884,2.2267 1.88975,0.62991 -0.0668,12.22906 -2.0628,12.22906 -0.93843,0 -1.95399,-2.41961 -2.47565,-5.89831 z M 95.402213,194.5924 c -2.185034,-0.80707 -4.388159,-1.88927 -4.895834,-2.4049 -0.507675,-0.51563 -4.62617,-0.95539 -9.152213,-0.97725 -7.111545,-0.0344 -7.932077,-0.26529 -6.041666,-1.70031 2.349703,-1.78368 2.996887,-5.75994 0.9375,-5.75994 -0.6875,0 -1.25,0.84375 -1.25,1.875 0,1.03125 -0.5625,1.875 -1.25,1.875 -0.6875,0 -1.25,-0.62268 -1.25,-1.38374 0,-0.76105 -0.84375,-1.05996 -1.875,-0.66422 -1.03125,0.39572 -1.875,0.14146 -1.875,-0.56504 0,-0.7065 -0.5625,-0.9369 -1.25,-0.512 -2.080216,1.28565 -1.411809,3.14052 1.5625,4.33605 3.997367,1.60674 -0.236086,1.62129 -4.839227,0.0166 -2.007383,-0.69977 -4.338957,-2.37586 -5.181277,-3.72462 -1.323075,-2.11858 -1.101495,-2.73405 1.62823,-4.52263 1.737845,-1.13868 7.381579,-2.4837 12.54163,-2.98892 5.160053,-0.50524 9.78269,-1.32036 10.272529,-1.81139 1.224058,-1.22705 -5.861421,-7.15365 -7.408988,-6.1972 -0.684017,0.42274 -1.551007,-0.40664 -1.926645,-1.84309 -0.375637,-1.43643 -1.135308,-2.33215 -1.688158,-1.99047 -1.598053,0.98765 -8.536396,-14.03048 -10.19745,-22.07251 -2.493224,-12.07099 -5.07523,-8.49255 -4.639504,6.42996 0.212609,7.28127 -0.205689,9.49009 -2.34523,12.38397 -1.432196,1.93714 -3.432523,5.50504 -4.44517,7.92864 -1.750185,4.18879 -1.708163,4.46759 0.850291,5.64131 2.348963,1.07763 1.925736,1.35325 -3.325784,2.1659 -7.829175,1.21154 -15.684268,0.10963 -18.217226,-2.55562 -1.527287,-1.60703 -1.631619,-2.26288 -0.4307,-2.70748 3.294833,-1.21982 5.041,-4.25515 8.415298,-14.62817 3.222162,-9.90535 3.368903,-11.21541 2.004872,-17.89898 -0.992937,-4.86525 -1.094711,-9.0414 -0.312829,-12.83637 0.970168,-4.70884 1.18123,-5.00224 1.29588,-1.80141 0.267178,7.45908 2.374263,8.67006 14.713185,8.4559 6.076825,-0.1055 10.064398,0.0829 8.861273,0.41852 -1.203125,0.33566 -2.173749,1.27218 -2.156943,2.08114 0.07344,3.5348 2.699802,12.54545 5.50645,18.89177 l 3.043965,6.88295 4.147014,-1.38503 c 6.24584,-2.08602 6.509504,-2.82129 3.003371,-8.37535 C 76.454111,149.85314 75,146.65429 75,145.55992 c 0,-1.09436 -1.4597,-4.48053 -3.243777,-7.52483 -1.784078,-3.0443 -2.639261,-5.53509 -1.900406,-5.53509 0.738856,0 2.471768,2.21184 3.850915,4.91519 3.823582,7.49484 5.456717,7.38196 2.129288,-0.14716 l -2.935821,-6.64303 -5.292365,0.40717 c -4.3903,0.33778 -5.401114,-0.009 -5.930388,-2.03262 -0.350912,-1.34189 -2.045388,-3.193 -3.765502,-4.11357 -1.720114,-0.92058 -5.319499,-4.42684 -7.998634,-7.79169 l -4.871155,-6.11792 -1.271078,3.34319 c -0.699092,1.83876 -1.315485,4.29095 -1.369761,5.44932 -0.06012,1.28331 -0.343579,1.49995 -0.725536,0.55451 -0.344768,-0.85338 0.09709,-3.66588 0.981891,-6.25 0.884809,-2.58411 1.442964,-7.61471 1.240346,-11.17911 C 43.425983,94.590396 44.509061,91.25 47.67352,91.25 c 2.27732,0 2.32648,0.178571 0.540766,1.964286 -2.785235,2.785234 -2.55085,13.247324 0.426178,19.023014 3.751442,7.27811 14.962811,16.5127 20.047461,16.5127 1.845109,0 1.640481,-3.40915 -0.250425,-4.17215 -0.960903,-0.38773 -0.747555,-0.66848 0.55412,-0.72917 2.651414,-0.12361 5.278001,3.56842 8.07786,11.35457 1.19591,3.32571 2.625763,6.04675 3.17745,6.04675 1.254394,0 1.17914,-12.39994 -0.123275,-20.3125 C 79.586131,117.67188 79.581756,115 80.113905,115 c 1.967689,0 2.765707,6.00015 2.701561,20.3125 -0.05741,12.80853 0.198048,14.69874 1.996838,14.77536 1.60317,0.0683 1.505746,0.3119 -0.437334,1.09358 -1.375,0.55315 -2.921875,0.76167 -3.4375,0.46337 -1.425644,-0.82475 -1.120084,1.8448 0.3125,2.73019 0.6875,0.4249 1.25,0.0694 1.25,-0.79014 0,-0.93112 0.64141,-0.6855 1.587062,0.60775 1.471945,2.013 1.928652,2.02771 6.296383,0.20277 6.13616,-2.56387 7.982846,-1.44807 12.728465,7.69074 l 3.78498,7.28888 11.08848,-0.26609 c 16.03394,-0.38477 16.91802,-2.32034 1.91998,-4.20356 -11.45884,-1.43882 -13.19524,-2.94794 -2.40532,-2.09049 8.14496,0.64727 15,2.89422 15,4.91673 0,2.02567 -6.39846,3.51841 -15.08138,3.51841 -4.76774,0 -8.66862,0.42187 -8.66862,0.9375 0,0.51562 5.20313,0.95181 11.5625,0.9693 11.95407,0.0329 19.91817,2.38389 21.43109,6.3265 0.43335,1.1293 -0.70219,0.76315 -3.07587,-0.99177 -3.16042,-2.33662 -5.78717,-2.86329 -16.40776,-3.28987 -11.27327,-0.4528 -12.56052,-0.28788 -11.86668,1.52023 0.42804,1.11546 0.28028,2.02811 -0.32836,2.02811 -0.60865,0 -3.4527,-4.64062 -6.32012,-10.3125 -2.86743,-5.67187 -5.819273,-11.04406 -6.559656,-11.9382 -1.67264,-2.01997 -7.92451,-1.44612 -7.497644,0.6882 0.171875,0.85938 -0.318875,1.5625 -1.090556,1.5625 -0.969383,0 -0.922074,0.57955 0.153056,1.875 1.269455,1.5296 1.198965,1.875 -0.382659,1.875 -1.066324,0 -2.682073,-0.72165 -3.590555,-1.60366 -1.345542,-1.30635 -2.409505,-1.24044 -5.738699,0.3555 l -4.086911,1.95917 9.711911,9.50262 c 9.420513,9.21748 9.871312,9.48818 15.024413,9.02187 l 5.3125,-0.48072 -0.14789,5.31011 c -0.13238,4.75291 -0.23176,4.91822 -0.94713,1.57537 -0.45583,-2.13002 -1.73313,-3.91458 -2.97273,-4.15331 -1.468345,-0.28277 -1.948831,0.16686 -1.481029,1.38594 1.079089,2.81206 -2.967135,3.65015 -4.42961,0.91749 -0.696589,-1.30159 -2.955346,-3.56907 -5.019462,-5.03885 -3.458154,-2.46242 -3.737349,-2.49379 -3.554489,-0.39943 0.10915,1.2501 0.08939,3.67915 -0.0439,5.3979 l -0.242349,3.125 -1.589976,-2.86442 c -1.547216,-2.7874 -1.646951,-2.80148 -3.708434,-0.52357 -2.641843,2.9192 -1.627827,4.01299 3.720333,4.01299 3.67223,0 4.186192,-0.40791 4.331217,-3.4375 0.147218,-3.07537 0.245979,-2.98784 0.9375,0.83092 0.625098,3.45197 1.609809,4.56952 5.147949,5.84242 6.02807,2.16868 16.5237,2.11895 28.92442,-0.13708 15.74937,-2.86523 16.07404,-2.97235 16.09472,-5.31007 0.01,-1.19003 0.48863,-2.90408 1.06245,-3.809 0.64521,-1.01749 0.93597,0.12262 0.76201,2.98792 -0.27829,4.58378 -3.094,7.70223 -5.5718,6.17087 -0.66461,-0.41075 -5.7848,0.12125 -11.37818,1.18235 -11.83997,2.24599 -23.84659,2.35656 -29.491407,0.27157 z M 75.452033,180.625 c 0.438279,-1.14214 0.002,-1.875 -1.116264,-1.875 -1.009673,0 -1.835769,0.84375 -1.835769,1.875 0,2.42651 2.020894,2.42651 2.952033,0 z M 81.25,179.92622 C 81.25,179.2793 80.6875,178.75 80,178.75 c -0.6875,0 -1.25,0.87695 -1.25,1.94877 0,1.07183 0.5625,1.60113 1.25,1.17623 0.6875,-0.4249 1.25,-1.30185 1.25,-1.94878 z M 85,180 c 0,-0.6875 -0.595698,-1.25 -1.323771,-1.25 -0.728074,0 -0.976128,0.5625 -0.551229,1.25 0.424899,0.6875 1.020595,1.25 1.323771,1.25 C 84.751947,181.25 85,180.6875 85,180 Z m -40.48317,-4.98624 c 1.944705,-0.01 2.604404,-0.75592 2.5,-2.82626 -0.112775,-2.23627 -0.992271,-2.8941 -4.292798,-3.2108 C 38.014162,168.52477 32.5,171.54001 32.5,174.56737 c 0,1.62677 0.893229,1.86209 4.6875,1.23494 2.578125,-0.42614 5.876324,-0.78098 7.32933,-0.78855 z m 7.247053,-11.35967 c 3.801312,-4.5176 3.668603,-3.91713 3.776593,-17.08824 l 0.08452,-10.30915 -4.769676,-0.004 c -2.623323,-0.001 -5.905874,-0.61143 -7.294559,-1.35463 -1.388685,-0.7432 -2.708292,-1.16507 -2.932462,-0.9375 -0.224169,0.22758 0.463845,4.29189 1.528921,9.03179 1.931494,8.59574 1.927976,8.63541 -1.360361,15.3402 -1.813275,3.6976 -3.296864,6.95224 -3.296864,7.23294 0,0.58775 4.377634,1.51519 8.326383,1.76402 1.623741,0.10238 3.992342,-1.36398 5.9375,-3.67568 z M 80,147.5 c 0,-0.6875 -0.5625,-1.25 -1.25,-1.25 -0.6875,0 -1.25,0.5625 -1.25,1.25 0,0.6875 0.5625,1.25 1.25,1.25 0.6875,0 1.25,-0.5625 1.25,-1.25 z m 33.857,40.625 c 0.0378,-1.375 0.55214,-3.625 1.143,-5 0.98387,-2.28958 1.08007,-2.23698 1.143,0.625 0.0378,1.71875 -0.47656,3.96875 -1.143,5 -1.00011,1.54756 -1.19972,1.43841 -1.143,-0.625 z m 3.74168,-4.89584 c -0.0543,-1.3177 0.24116,-2.05599 0.65653,-1.64062 0.41536,0.41536 0.45977,1.49348 0.0987,2.39583 -0.39904,0.99717 -0.69523,0.70098 -0.75521,-0.75521 z M 64.6875,172.92215 c 0.859375,-0.34676 2.265625,-0.34676 3.125,0 0.859375,0.34676 0.15625,0.63049 -1.5625,0.63049 -1.71875,0 -2.421875,-0.28373 -1.5625,-0.63049 z m 19.94548,-28.73731 c 2.933474,-10.5267 -1.103718,-32.78507 -7.146514,-39.40109 l -3.723796,-4.07703 5.244941,-5.344206 c 4.353803,-4.436203 5.255343,-6.194609 5.306165,-10.349396 0.06717,-5.491899 1.476449,-6.655235 2.606733,-2.151827 1.033376,4.117299 -1.385666,9.56005 -6.66304,14.991584 -4.400923,4.529475 -4.478935,4.757885 -1.859065,5.442995 4.662495,1.21927 8.393649,14.63367 8.439015,30.3403 0.0276,9.55384 -0.392095,13.15698 -1.579439,13.55986 -1.215935,0.41256 -1.37096,-0.33433 -0.625,-3.01119 z M 60.82894,122.72535 C 59.085038,120.79836 53.75,107.49766 53.75,105.07695 c 0,-0.42993 1.546875,-0.89022 3.4375,-1.02287 2.817331,-0.19768 3.054965,-0.0169 1.317169,1.00189 -1.925209,1.12868 -1.958101,1.78212 -0.357438,7.10073 0.969593,3.2217 2.924955,7.42942 4.345253,9.35047 2.860291,3.86876 1.582192,4.80468 -1.663544,1.21818 z M 75.9375,114.28533 C 75.421875,113.76173 75,111.90833 75,110.16667 c 0,-2.2759 0.38139,-2.78528 1.355831,-1.81084 0.745708,0.74571 1.167583,2.59911 0.9375,4.11867 -0.230082,1.51956 -0.840206,2.33444 -1.355831,1.81083 z M 63.978169,100.86041 c -3.737645,-3.85627 -3.913959,-4.421544 -2.576133,-8.259234 1.139118,-3.267677 1.095115,-4.330394 -0.212774,-5.138714 -1.254763,-0.775487 -0.560903,-2.346812 2.902884,-6.573907 4.919122,-6.00314 9.916919,-7.92868 15.28339,-5.888351 4.369801,1.661396 3.911158,2.015883 -1.892147,1.46245 C 72.054486,75.944925 66.25,78.724372 66.25,81.841704 c 0,0.981239 -0.984375,2.36423 -2.1875,3.073314 -1.772149,1.044447 -1.866316,1.500743 -0.495944,2.403145 1.354957,0.892248 1.391749,1.674097 0.184898,3.92912 C 61.987869,94.542572 64.156776,100 67.229988,100 c 1.496538,0 1.443011,-0.556337 -0.311104,-3.233455 -1.165253,-1.7784 -1.715436,-3.606525 -1.222632,-4.0625 0.492806,-0.455975 1.170563,-0.05561 1.506129,0.889705 0.335565,0.945312 1.55959,2.668221 2.720055,3.828686 1.752027,1.752027 1.826883,2.374347 0.44129,3.668684 -0.917755,0.85731 -1.341841,2.08753 -0.942415,2.73381 1.683283,2.72361 -1.733801,0.86255 -5.443142,-2.96452 z M 23.75,66.566761 c 0,-1.559172 6.211789,-19.569681 7.393375,-21.436407 2.138516,-3.37853 4.523611,-0.338298 7.922581,10.098756 C 42.939002,67.121891 43.004297,67.5 41.184975,67.5 40.461713,67.5 39.281685,65.8125 38.562694,63.75 37.465873,60.603656 36.59054,60 33.125,60 29.65946,60 28.784127,60.603656 27.687306,63.75 26.532788,67.061852 23.75,69.052669 23.75,66.566761 Z m 12.5,-10.173249 c 0,-0.608568 -0.76514,-2.92622 -1.700311,-5.150337 l -1.70031,-4.043849 -1.42469,4.086866 C 29.440074,56.979264 29.582565,57.5 33.125,57.5 c 1.71875,0 3.125,-0.49792 3.125,-1.106488 z m 9.44588,8.328356 C 43.043581,60.935181 43.25329,57.218611 46.340725,53.293574 48.42371,50.645486 49.987506,50 54.319936,50 c 4.479325,0 5.545309,-0.474533 6.317961,-2.8125 l 0.929477,-2.8125 0.553251,2.8125 C 62.465722,48.941829 63.581765,50 65.086939,50 66.414123,50 67.5,50.5625 67.5,51.25 c 0,0.6875 -1.125,1.25 -2.5,1.25 -2.137178,0 -2.5,0.833334 -2.5,5.742025 0,4.690769 0.457703,5.861716 2.5,6.395789 3.756055,0.98223 3.006716,3.086546 -0.9375,2.632713 C 60.80835,66.896096 60.605005,66.491631 60.25012,59.6875 L 59.87524,52.5 l -4.68762,0 C 49.677886,52.5 47.5,54.270611 47.5,58.75 c 0,4.201416 2.130526,6.25 6.5,6.25 1.925,0 3.5,0.5625 3.5,1.25 0,0.6875 -2.218104,1.25 -4.92912,1.25 -3.67659,0 -5.423584,-0.705946 -6.875,-2.778132 z M 69.005387,59.0625 C 69.208675,54.421875 69.9375,50.625 70.625,50.625 c 0.6875,0 1.416325,3.796875 1.619613,8.4375 0.308254,7.036837 0.03939,8.4375 -1.619613,8.4375 -1.659005,0 -1.927867,-1.400663 -1.619613,-8.4375 z m 8.009889,0.08541 c -1.775272,-4.593649 -2.992381,-8.587475 -2.704686,-8.87517 1.267454,-1.267454 3.156776,1.483908 5.15955,7.513698 l 2.16129,6.507035 2.551641,-7.146737 C 86.527824,50.579464 88.75,47.838291 88.75,51.513189 88.75,54.652609 83.076722,67.5 81.690386,67.5 c -0.796038,0 -2.899838,-3.75844 -4.67511,-8.352087 z M 91.25,58.75 c 0,-5 0.535714,-8.75 1.25,-8.75 0.714286,0 1.25,3.75 1.25,8.75 0,5 -0.535714,8.75 -1.25,8.75 -0.714286,0 -1.25,-3.75 -1.25,-8.75 z m 8.333334,7.916666 C 99.125,66.208334 98.75,62.880209 98.75,59.270834 98.75,55.192301 98.158579,52.468357 97.1875,52.07433 96.101924,51.633845 96.034369,51.125126 96.966177,50.407664 97.703824,49.839699 98.787166,48.25 99.373604,46.875 c 1.028596,-2.411709 1.083626,-2.400673 1.558266,0.3125 0.31059,1.775477 1.38175,2.8125 2.90507,2.8125 1.32718,0 2.41306,0.5625 2.41306,1.25 0,0.6875 -1.125,1.25 -2.5,1.25 -2.11931,0 -2.5,0.833334 -2.5,5.472535 0,4.260584 0.62286,5.907019 2.8125,7.434435 l 2.8125,1.9619 -3.22917,0.06556 c -1.77604,0.03606 -3.60416,-0.309435 -4.062496,-0.767768 z M 107.5,58.645834 c 0,-6.525354 0.41097,-8.718374 1.5625,-8.337879 0.98927,0.326878 1.6981,3.575192 1.93211,8.854166 0.30353,6.84707 0.0242,8.337879 -1.5625,8.337879 -1.56097,0 -1.93211,-1.700807 -1.93211,-8.854166 z m 8.21429,6.88988 c -2.73724,-2.73724 -2.5429,-10.874615 0.32164,-13.466979 4.43467,-4.013321 11.12704,-1.632378 11.75275,4.181265 0.31181,2.897235 -0.0964,3.152769 -5.60118,3.505989 -3.26562,0.209543 -5.9375,0.800169 -5.9375,1.3125 0,2.130003 3.26484,3.931511 7.125,3.931511 2.26875,0 4.125,0.5625 4.125,1.25 0,2.029634 -9.62514,1.446292 -11.78571,-0.714286 z M 125,55.585769 c 0,-4.025682 -7.10166,-3.655778 -8.46727,0.441035 C 116.21666,56.97501 117.63787,57.5 120.52083,57.5 123.70978,57.5 125,56.948608 125,55.585769 Z m 5,10.585659 c 0,-0.730715 0.98437,-1.228442 2.1875,-1.106058 6.2953,0.640369 7.46384,-2.647845 1.89029,-5.31918 C 128.18139,56.920123 129.33626,50 135.70429,50 c 4.16655,0 4.97325,2.254751 0.9758,2.727427 -4.67663,0.552985 -4.84087,2.511726 -0.4215,5.026935 4.14675,2.360054 5.1896,7.672444 1.76417,8.986902 C 134.84701,67.959915 130,67.615645 130,66.171428 Z M 69.583334,46.666666 C 68.145041,45.228375 68.673033,43.75 70.625,43.75 c 1.03125,0 1.875,0.84375 1.875,1.875 0,1.951968 -1.478375,2.479959 -2.916666,1.041666 z M 90.678381,46.336372 C 89.753955,44.84062 92.105412,43.358589 93.77039,44.387601 95.168338,45.251581 94.250599,47.5 92.5,47.5 c -0.606351,0 -1.42608,-0.523632 -1.821619,-1.163628 z M 107.5,45.729166 c 0,-1.088541 0.89063,-1.979166 1.97917,-1.979166 2.20741,0 1.82298,2.690949 -0.49479,3.463541 C 108.16797,47.485678 107.5,46.817709 107.5,45.729166 Z m -15,-14.086102 c 0,-0.471315 1.20885,-2.143698 2.686334,-3.716407 l 2.686334,-2.859471 -2.5649,-6.596094 C 93.897073,14.843243 92.346791,10.890625 91.862697,9.6875 91.242664,8.1465186 91.576212,7.5 92.991264,7.5 c 1.104805,0 2.023487,0.703125 2.041516,1.5625 0.01802,0.859375 1.047254,3.8125 2.287166,6.5625 l 2.254387,5 2.188297,-6.5625 c 1.99464,-5.9817745 4.53657,-8.835591 4.45355,-5 -0.0571,2.640432 -7.239829,18.615534 -9.485621,21.097106 C 94.605937,32.507286 92.5,33.24574 92.5,31.643064 Z M 60,12.5 C 60,5 60.5,0 61.25,0 c 0.6875,0 1.271613,2.671875 1.298026,5.9375 l 0.04803,5.9375 5.490691,-6.2321154 c 6.419688,-7.2865567 9.077219,-6.8598718 3.232983,0.5190775 l -3.981654,5.0272479 3.61824,5.342895 C 76.411704,24.587836 76.587281,25 74.563551,25 73.554856,25 71.131034,22.46984 69.17728,19.377424 67.223526,16.285006 65.0625,13.938099 64.375,14.162074 63.6875,14.386049 62.952033,16.916209 62.740627,19.784651 61.982152,30.076002 60,24.807395 60,12.5 Z M 78.318735,22.714074 C 75.522982,19.624804 75.64592,12.184154 78.535926,9.5687345 81.798575,6.6160774 86.978119,6.9573007 89.30412,10.278133 92.65501,15.062198 91.798921,16.25 85,16.25 c -4.294871,0 -6.25,0.508334 -6.25,1.625 0,2.800735 2.839451,4.625 7.198771,4.625 2.480877,0 3.882692,0.511427 3.426229,1.25 -1.311387,2.12187 -8.836588,1.41679 -11.056265,-1.035926 z M 87.5,13.085769 C 87.5,9.0600874 80.398336,9.4299917 79.032732,13.526804 78.716664,14.47501 80.137867,15 83.020834,15 86.20978,15 87.5,14.448608 87.5,13.085769 Z"
     id="path3601"
     inkscape:connector-curvature="0"
     clip-path="url(#clipPath4137)"
     transform="matrix(1.3008342,0,0,1.3008342,-36.320755,-95.766951)" />
</svg>
