<?xml version="1.0" encoding="UTF-8" standalone="no"?>
<!-- Created with Inkscape (http://www.inkscape.org/) -->

<svg
   xmlns:dc="http://purl.org/dc/elements/1.1/"
   xmlns:cc="http://creativecommons.org/ns#"
   xmlns:rdf="http://www.w3.org/1999/02/22-rdf-syntax-ns#"
   xmlns:svg="http://www.w3.org/2000/svg"
   xmlns="http://www.w3.org/2000/svg"
   xmlns:sodipodi="http://sodipodi.sourceforge.net/DTD/sodipodi-0.dtd"
   xmlns:inkscape="http://www.inkscape.org/namespaces/inkscape"
   id="svg3336"
   version="1.1"
   inkscape:version="0.91 r13725"
   width="150"
   height="150"
   viewBox="0 0 149.99999 150"
   sodipodi:docname="kp.svg">
  <metadata
     id="metadata3342">
    <rdf:RDF>
      <cc:Work
         rdf:about="">
        <dc:format>image/svg+xml</dc:format>
        <dc:type
           rdf:resource="http://purl.org/dc/dcmitype/StillImage" />
        <dc:title></dc:title>
      </cc:Work>
    </rdf:RDF>
  </metadata>
  <defs
     id="defs3340">
    <clipPath
       clipPathUnits="userSpaceOnUse"
       id="clipPath3460">
      <rect
         style="fill:#0000ff;fill-rule:evenodd;stroke:#000000;stroke-width:0.97758299px;stroke-linecap:butt;stroke-linejoin:miter;stroke-opacity:1"
         id="rect3462"
         width="151.98492"
         height="117.33682"
         x="7.5774155"
         y="71.119873" />
    </clipPath>
  </defs>
  <sodipodi:namedview
     pagecolor="#ffffff"
     bordercolor="#666666"
     borderopacity="1"
     objecttolerance="10"
     gridtolerance="10"
     guidetolerance="10"
     inkscape:pageopacity="0"
     inkscape:pageshadow="2"
     inkscape:window-width="1366"
     inkscape:window-height="705"
     id="namedview3338"
     showgrid="false"
     inkscape:snap-page="true"
     inkscape:zoom="1.9689321"
     inkscape:cx="1.4079727"
     inkscape:cy="96.501843"
     inkscape:window-x="-8"
     inkscape:window-y="-8"
     inkscape:window-maximized="1"
     inkscape:current-layer="svg3336"
     fit-margin-top="0"
     fit-margin-left="0"
     fit-margin-right="0"
     fit-margin-bottom="0" />
  <g
     id="g3448"
     transform="translate(-9.1665133,-38.456697)" />
  <path
     inkscape:connector-curvature="0"
     id="path3346"
     d="m 64.166513,0.90199367 c -0.740741,0 -1.25,4.58332473 -1.25,11.25000033 0,6.666666 0.509259,11.25 1.25,11.25 5.899122,-15.2560324 2.420884,-0.800149 12.101562,0 1.218105,0 0.582609,-1.723802 -2.041015,-5.53711 -2.095529,-3.045746 -3.810547,-5.896358 -3.810547,-6.333984 0,-0.437626 1.484207,-2.7420029 3.298828,-5.1210939 1.814622,-2.379091 2.911493,-4.7154592 2.435547,-5.1914062 -0.757521,-0.75752098 -2.310305,0.875065 -9.132813,9.6093751 -1.257924,1.610419 -1.52966,0.916624 -1.5625,-3.9882814 -0.02186,-3.265625 -0.601562,-5.93749993 -1.289062,-5.93749993 z M 84.830575,7.907853 C 84.039359,7.9076304 83.246507,8.0399615 82.494638,8.3258218 76.777827,10.49935 76.439805,21.132791 82.016122,23.376603 c 3.49305,1.405543 4.000582,1.447464 6.423828,0.517578 3.249999,-1.247141 2.238734,-2.596286 -1.53125,-2.042969 -3.717152,0.545561 -7.343546,-2.309455 -5.90039,-4.644531 0.443511,-0.717616 3.022996,-1.304687 5.732422,-1.304687 4.073748,0 4.925781,-0.427156 4.925781,-2.470703 0,-3.052715 -3.407334,-5.5224732 -6.835938,-5.523438 z m -0.189453,2.105469 c 1.761018,-0.0061 3.586836,1.199959 4.242188,3.166015 -2.351623,2.895969 -11.030704,1.518868 -6.486328,-2.363281 0.657402,-0.545595 1.443678,-0.799968 2.24414,-0.802734 z m 14.128906,4.035156 c -0.03957,-0.01568 -0.565764,1.60571 -1.453124,4.642578 0.941879,-2.719186 1.499392,-4.624244 1.453124,-4.642578 z m -1.453124,4.642578 c -1.0102,2.916414 -2.472937,6.790065 -4.400391,10.921875 0,0.709077 0.465544,1.289063 1.033203,1.289063 1.533518,-5.808031 2.582153,-9.524266 3.367188,-12.210938 z m -88.1503909,22.210938 0,11.25 c 0,6.666666 0.50926,11.25 1.2499999,11.25 0.6875,0 1.25,-1.96875 1.25,-4.375 0,-3.90813 0.357087,-4.375 3.339844,-4.375 3.96431,0 7.910156,-3.214285 7.910156,-6.44336 0,-3.770167 -4.53732,-7.30664 -9.375,-7.30664 l -4.3749999,0 z m 102.4999969,0 c -0.74074,0 -1.25,4.583334 -1.25,11.25 0,6.666666 0.50926,11.25 1.25,11.25 0.6875,0 1.25,-2.461135 1.25,-5.470703 0,-5.826307 2.33629,-9.088032 5.60937,-7.832032 1.3412,0.514665 1.89063,2.552827 1.89063,7.013672 0,4.757095 0.45677,6.289063 1.875,6.289063 1.37444,0 1.875,-1.426266 1.875,-5.345703 0,-8.515744 -5.41502,-13.739279 -9.75,-9.404297 -1.16667,1.166666 -1.5,0.472222 -1.5,-3.125 0,-2.54375 -0.5625,-4.625 -1.25,-4.625 z m 16.66797,1.265625 c -0.55229,0.03533 -1.22582,0.532894 -1.51172,1.390625 -0.25781,0.773437 0.16406,1.195312 0.9375,0.9375 0.77344,-0.257813 1.40625,-0.890625 1.40625,-1.40625 0,-0.548948 -0.25586,-0.840498 -0.60352,-0.908203 -0.0724,-0.01411 -0.14962,-0.01872 -0.22851,-0.01367 z M 14.729013,43.401994 c 3.73397,0 5.964019,3.397918 4.287109,6.53125 -0.65339,1.220879 -2.573018,2.21875 -4.267578,2.21875 -2.687827,0 -3.082031,-0.55832 -3.082031,-4.375 0,-3.809674 0.395389,-4.375 3.0625,-4.375 z m 35.6875,0 c -0.6875,0 -1.25,0.84375 -1.25,1.875 0,1.03125 -1.091355,1.875 -2.425781,1.875 -1.334426,0 -2.790799,0.589663 -3.236328,1.310547 -0.553762,0.896005 -1.368529,0.848293 -2.574219,-0.152344 -1.48809,-1.235006 -1.763672,-0.16995 -1.763672,6.814453 0,4.685371 0.5425,8.277344 1.25,8.277344 0.6875,0 1.25,-2.209264 1.25,-4.910157 0,-4.990109 2.459383,-8.839843 5.648437,-8.839843 1.19408,0 1.837372,2.007631 2.09961,6.5625 0.342894,5.955775 0.665869,6.595973 3.501953,6.910156 2.703771,0.299525 2.83014,0.164396 0.9375,-1 -2.899403,-1.78378 -3.167206,-12.472656 -0.3125,-12.472656 1.03125,0 1.875,-0.5625 1.875,-1.25 0,-0.6875 -0.84375,-1.25 -1.875,-1.25 -1.03125,0 -1.875,-0.84375 -1.875,-1.875 0,-1.03125 -0.5625,-1.875 -1.25,-1.875 z m 40,3.75 c -0.705129,0 -1.25,3.541666 -1.25,8.125 0,4.583334 0.544871,8.125 1.25,8.125 0.6875,0 1.25,-2.227954 1.25,-4.951172 0,-3.47595 0.812066,-5.706343 2.722656,-7.486328 2.989176,-2.784842 2.248802,-5.131787 -0.816406,-2.587891 -1.302898,1.08131 -1.90625,1.139184 -1.90625,0.179688 0,-0.771682 -0.5625,-1.404297 -1.25,-1.404297 z m -25.730469,0.02539 c -1.021095,0.03465 -1.912892,0.445802 -2.43164,1.285157 -0.553762,0.896005 -1.368525,0.848293 -2.574219,-0.152344 -1.48809,-1.235006 -1.763672,-0.16995 -1.763672,6.814453 0,4.685371 0.542501,8.277344 1.25,8.277344 0.6875,0 1.25,-2.461135 1.25,-5.470703 0,-5.826307 2.336293,-9.088032 5.609375,-7.832032 1.341196,0.514665 1.890625,2.552827 1.890625,7.013672 0,4.757095 0.456774,6.289063 1.875,6.289063 2.574816,0 2.523988,-9.766816 -0.07031,-13.470703 -1.27427,-1.819277 -3.333328,-2.811653 -5.035156,-2.753907 z m 15.828125,0.06445 c -5.051685,0.02253 -9.607749,7.282448 -5.832031,13.044922 1.617926,2.469268 3.089894,3.115235 7.08789,3.115235 2.774727,0 4.728759,-0.509856 4.34375,-1.132813 -0.385007,-0.622958 -1.843311,-0.832099 -3.240234,-0.466797 -2.723495,0.71221 -7.868897,-2.97123 -6.728516,-4.816406 0.368113,-0.595617 2.886278,-1.083984 5.595704,-1.083984 4.032078,0 4.925781,-0.437008 4.925781,-2.410157 0,-1.325893 -0.884487,-3.294644 -1.964844,-4.375 -1.32025,-1.320249 -2.773028,-1.881308 -4.1875,-1.875 z m 74.605461,0.105469 c -0.71785,-0.0042 -1.59722,0.266789 -2.79492,0.8125 -4.19705,1.912301 -3.99675,3.945841 0.77148,7.865235 4.46061,3.666527 3.93123,6.803031 -0.9414,5.580078 -1.68707,-0.423424 -2.98828,-0.195619 -2.98828,0.523437 0,0.700599 1.9311,1.273438 4.29101,1.273438 3.30823,0 4.48889,-0.622237 5.1543,-2.71875 0.67119,-2.114723 -0.0228,-3.441269 -3.11719,-5.966797 -4.1245,-3.366254 -3.99599,-5.064453 0.38086,-5.064453 1.94418,0 2.19567,-0.343389 1.07422,-1.464844 -0.55588,-0.555873 -1.11222,-0.835684 -1.83008,-0.839844 z m -124.882805,0.0059 c -0.255485,-0.0049 -0.515189,0.0093 -0.78125,0.04102 -4.32356,0.515386 -4.950044,2.997504 -0.740234,2.933594 4.82387,-0.07323 4.926003,2.345721 0.158203,3.75 -4.03432,1.188246 -5.596728,3.952901 -4.236328,7.498047 0.47208,1.230218 2.427639,1.700244 6.355469,1.529297 l 5.673828,-0.246094 0,-5.076172 c 0,-6.225353 -2.597406,-10.355778 -6.429688,-10.429688 z m 73.003905,0.01953 c -2.43145,-0.08342 -4.677441,1.76056 -5.089842,4.523437 -0.279244,1.870782 0.723372,3.186728 3.527342,4.636719 3.22433,1.667371 3.64777,2.348562 2.40039,3.851562 -0.85935,1.035365 -2.51998,1.506179 -3.83789,1.087891 -1.277934,-0.405602 -2.324217,-0.138126 -2.324217,0.595703 0,2.017299 6.974257,1.597761 8.736317,-0.52539 2.05438,-2.475374 0.8056,-5.333412 -3.10937,-7.117188 -3.790317,-1.726989 -3.48917,-3.769397 0.7168,-4.878906 2.77043,-0.73083 2.82762,-0.884953 0.67383,-1.794922 -0.56061,-0.236848 -1.13226,-0.359656 -1.69336,-0.378906 z m 37.8164,0.101562 c -0.90138,0.0036 -1.84329,0.233026 -2.79101,0.740235 -1.77144,0.948042 -2.87299,0.914133 -3.90821,-0.121094 -1.08866,-1.08866 -1.4414,1.373451 -1.4414,10.058594 0,6.833334 0.50725,11.5 1.25,11.5 0.6875,0 1.25045,-1.546876 1.25,-3.4375 -7.3e-4,-3.130829 0.41031,-3.4375 4.62304,-3.4375 3.66203,0 5.00427,-0.668215 6.44336,-3.210938 3.11546,-5.504718 -0.5583,-12.111367 -5.42578,-12.091797 z m -12.99804,0.25 c -0.0465,0.0051 -0.0935,0.02242 -0.14258,0.05273 -0.6875,0.424899 -1.25,4.114792 -1.25,8.199218 0,4.117486 0.55694,7.425782 1.25,7.425782 0.70629,0 1.25,-3.564753 1.25,-8.197266 0,-4.825822 -0.40966,-7.557648 -1.10742,-7.480469 z m 11.98046,1.875 c 3.65078,-0.206517 6.58328,4.900809 3.65039,9.376953 -2.2985,3.507954 -2.89237,3.686252 -6.08593,1.826172 -2.5128,-1.463571 -2.93585,-7.402044 -0.6875,-9.65039 1.02171,-1.021718 2.10083,-1.49491 3.12304,-1.552735 z M 80.416513,50.27703 c 1.949765,0 3.245964,0.807546 3.511719,2.1875 0.329149,1.709131 -0.438557,2.1875 -3.511719,2.1875 -3.073163,0 -3.840868,-0.478369 -3.511719,-2.1875 0.265755,-1.379954 1.561954,-2.1875 3.511719,-2.1875 z m -49.300781,5.625 c 3.51747,0 3.891787,1.481259 1.085937,4.287109 -2.45042,2.450417 -4.158157,2.500042 -5.060547,0.148438 -1.03267,-2.691094 0.53064,-4.435547 3.97461,-4.435547 z M 130.3833,72.327775 c -4.9711,-0.01298 -10.44359,0.714617 -16.28515,2.189453 -12.05811,3.044339 -26.346279,9.473969 -35.2207,15.849609 l -6.083984,4.371094 -3.232422,-2.542969 c -1.77755,-1.39822 -4.70209,-2.476184 -6.5,-2.396484 -2.54693,0.11298 -2.729506,0.281155 -0.822266,0.765625 3.336861,0.84761 8.177735,4.118011 8.177735,5.525391 0,0.63262 -1.150201,0.535903 -2.556641,-0.216797 -2.332794,-1.24848 -2.422304,-1.154789 -1.02539,1.082031 1.254026,2.00801 1.142668,3.043715 -0.611328,5.720702 -1.746899,2.66611 -2.580332,3.03481 -4.517579,1.99805 -3.393542,-1.81616 -11.339149,-1.55467 -15.28125,0.50195 -2.99333,1.56165 -3.440007,1.52599 -4.023437,-0.32031 -0.36095,-1.14228 -0.397772,0.73437 -0.08203,4.17187 0.86066,9.37004 9.28715,25.48355 17.876953,34.1875 9.250391,9.3733 23.612327,17.6875 30.554687,17.6875 4.281633,0 5.789996,-0.73675 9.265622,-4.53125 2.68765,-2.93424 4.15039,-5.79885 4.15039,-8.125 0,-1.97609 0.5625,-3.59375 1.25,-3.59375 1.80663,0 1.53752,4.288 -0.69141,11.01563 -2.09524,6.32419 -5.096993,11.11198 -6.246086,9.96289 -0.392519,-0.39252 -2.061197,0.63345 -3.707031,2.27929 -2.581385,2.58138 -4.182178,2.99219 -11.66211,2.99219 -7.738789,0 -9.879688,-0.59668 -19.904297,-5.54883 -18.775724,-9.27518 -31.849478,-23.42466 -35.855468,-38.80468 -2.86305,-10.99198 -1.302218,-17.14439 6.664062,-26.27149 2.79824,-3.205986 2.57018,-3.115307 -1.5625,0.625 -8.89923,8.05434 -10.260059,15.69404 -5.255859,29.48047 4.14435,11.41754 10.407968,19.98097 20.039062,27.39453 7.919189,6.09582 9.126692,8.01831 5.742188,9.14649 -0.988574,0.32952 -1.305422,-0.0176 -0.785156,-0.85938 0.622233,-1.00679 -2.10884,-1.40568 -9.513672,-1.39258 -11.12014,0.0198 -24.836439,2.67492 -29.455078,5.70117 -2.67268,1.7512 -2.726382,2.05738 -0.951172,5.49024 1.03439,2.00029 3.148418,4.5345 4.699218,5.63086 4.23647,2.99505 15.358733,5.91605 26.570313,6.97851 5.500003,0.52121 15.90625,0.61589 23.125,0.21094 7.21875,-0.40493 17.625,-0.83064 23.125,-0.94726 12.624456,-0.26781 39.487136,-2.83454 46.855466,-4.47657 14.24492,-3.17447 20.77465,-8.8392 17.77539,-15.42187 -1.76531,-3.87443 -6.36315,-6.23955 -15.88086,-8.17188 -4.125,-0.83747 -8.50562,-2.4144 -9.73438,-3.5039 -1.96856,-1.74543 -3.3547,-1.79172 -11.66992,-0.39454 -5.19032,0.87213 -9.70258,1.32085 -10.02539,0.99805 -0.3228,-0.32282 0.33527,-3.40223 1.46094,-6.84375 2.02621,-6.1948 2.13798,-6.29105 11.21484,-9.60156 11.34678,-4.1384 18.34922,-8.59997 25.62891,-16.32813 l 5.625,-5.9707 -8.125,6.64844 c -8.66369,7.09034 -23.19795,14.62992 -29.375,15.23828 -6.72364,0.66222 -4.08463,-2.52802 6.25,-7.55664 9.59336,-4.66792 20.05415,-11.86619 29.375,-20.21094 5.02835,-4.50176 3.94391,-4.497 -2.79688,0.0117 -2.56961,1.71875 -4.6785,3.69669 -4.6875,4.39453 -0.0329,2.69891 -26.95724,18.10547 -31.64062,18.10547 -1.9514,0 -8.84004,-16.3297 -7.42773,-17.60742 0.51078,-0.46211 3.17773,-1.54658 5.92773,-2.41016 10.58543,-3.32417 26.57799,-13.88581 28.37304,-18.738276 1.993,-5.3876 16.0847,-1.070424 17.25196,5.285156 0.47036,2.56103 1.0637,3.12745 2.40039,2.29297 1.5124,-0.94418 1.4643,-1.58482 -0.32422,-4.314454 -3.85899,-5.88955 -8.98823,-7.641368 -22.07617,-7.541015 -9.87954,0.07575 -13.71494,0.733738 -22.82618,3.917968 -6.02333,2.10505 -14.093906,5.721521 -17.935535,8.035151 -7.463938,4.49515 -18.277611,14.4126 -20.65625,18.94727 l -1.445312,2.75781 2.753906,-2.44727 c 3.76509,-3.3447 5.985294,-1.72621 11.097656,8.08985 4.767473,9.15394 4.11695,10.41938 -4.738281,9.21289 -13.15495,-1.79232 -17.5,-7.29666 -17.5,-22.16602 0,-6.71573 0.570511,-8.74673 3.849609,-13.69726 4.976608,-7.513357 14.533909,-15.141616 25.525391,-20.373046 11.778866,-5.60618 21.515626,-8.068282 35.121086,-8.882812 13.25898,-0.793787 19.96948,0.84642 22.03906,5.388672 0.75192,1.65027 1.84635,3 2.4336,3 0.58725,0 2.18259,1.82813 3.54492,4.0625 1.42002,2.32901 2.48042,3.208657 2.48242,2.060547 0.008,-3.62464 -5.62202,-10.444946 -11.13477,-13.488282 -4.44228,-2.452399 -10.00311,-3.692296 -16.39453,-3.708984 z M 52.56495,89.735978 c -4.429675,-0.10747 -10.976977,2.612956 -13.398437,5.566406 -1.79363,2.18769 -1.720693,2.186 1.685547,-0.03125 1.95843,-1.27481 6.177177,-3.021462 9.375,-3.882812 4.498397,-1.21167 5.028508,-1.587044 2.33789,-1.652344 z m 79.85742,3.705078 c 1.89833,0.0285 2.99414,0.372653 2.99414,1.052735 0,2.43505 -11.96542,11.889759 -19.17383,15.150389 -13.69887,6.19652 -15.98741,6.45999 -20.916011,2.41601 -4.208399,-3.45305 -4.239987,-3.55178 -1.785156,-5.49218 5.095287,-4.02754 14.884137,-8.398628 24.070307,-10.748048 6.25516,-1.5998 11.64666,-2.426398 14.81055,-2.378906 z M 53.324716,104.98207 c 1.06961,0.0143 2.230002,0.16986 3.556641,0.46289 l 4.896484,1.08203 0.291016,11.875 c 0.456779,18.60839 3.70905,22.4516 20.617187,24.36914 6.956899,0.78898 8.039061,1.27976 9.123047,4.13086 0.676474,1.77927 1.060969,4.95352 0.855469,7.05469 -0.317638,3.24777 -0.935068,3.86546 -4.123047,4.11914 -4.962095,0.39486 -21.596932,-10.57857 -29.689453,-19.58594 -6.639882,-7.3905 -13.193578,-20.00124 -13.716797,-26.39453 -0.291172,-3.55789 0.212545,-4.48262 3.251953,-5.9707 1.623639,-0.79493 3.154816,-1.16636 4.9375,-1.14258 z m 104.228514,1.45703 c -0.28026,0.01 -0.79429,0.83825 -1.71875,2.58789 -1.08976,2.0625 -2.88586,4.875 -3.99219,6.25 -1.10633,1.375 -0.19238,0.84933 2.03125,-1.16992 2.22362,-2.01925 4.01969,-4.83175 3.99219,-6.25 -0.0182,-0.93576 -0.0945,-1.42538 -0.3125,-1.41797 z m -67.865233,3.57617 c 0.560675,-0.0502 2.922626,1.83083 5.480469,4.38867 4.790498,4.7905 8.988374,13.62092 10.664054,22.43555 1.31,6.89101 -1.13932,4.48453 -3.2832,-3.22656 -1.22286,-4.39839 -4.313054,-10.39858 -7.79101,-15.12305 -3.170668,-4.30704 -5.492427,-8.10328 -5.158203,-8.4375 0.02089,-0.0209 0.05051,-0.0338 0.08789,-0.0371 z m -4.009765,2.375 c 1.492831,-0.15166 3.006563,1.08519 5.609375,3.82422 7.459687,7.8501 12.718173,22.8626 11.076173,31.61523 -0.4385,2.33742 -2.22991,5.95242 -3.982423,8.03516 -1.752509,2.08274 -3.559161,3.78616 -4.013672,3.78516 -0.45451,-0.002 -0.826172,-4.07971 -0.826172,-9.0625 0,-9.91026 -3.032839,-17.6006 -10.822266,-27.43555 l -3.865234,-4.87891 2.873047,-3.06054 c 1.640236,-1.74596 2.790081,-2.70431 3.951172,-2.82227 z m -14.320313,16.21485 c -0.23299,-0.0574 -0.623368,0.2456 -1.253906,0.88671 -1.253589,1.27464 -0.978891,2.06545 1.388672,4 1.827322,1.49313 4.68313,2.35543 7.5,2.26563 2.501961,-0.0798 3.423828,-0.39275 2.048828,-0.69531 -5.591797,-1.23045 -9.375,-3.32244 -9.375,-5.18555 0,-0.79633 -0.0756,-1.21413 -0.308594,-1.27148 z m 35.308591,34.79687 c 0.6875,0 1.25,0.24958 1.25,0.55273 0,0.30318 -0.5625,0.89737 -1.25,1.32227 -0.6875,0.4249 -1.25,0.1773 -1.25,-0.55078 0,-0.72807 0.5625,-1.32422 1.25,-1.32422 z m 10.35156,1.22852 c 2.42509,-0.0636 4.70625,0.44261 6.1582,1.58398 3.2388,2.54598 3.95556,6.85789 1.36328,8.20313 -1.23616,0.64149 -4.99854,1.56471 -8.35937,2.05273 -5.27263,0.76564 -6.00635,0.61652 -5.35156,-1.08984 0.52876,-1.37794 0.0363,-1.97852 -1.62696,-1.97852 -4.0345,0 -4.40427,-2.72209 -0.79101,-5.83008 2.1337,-1.83533 5.48945,-2.85958 8.60742,-2.9414 z m -57.242182,5.05859 c 3.830266,0.0337 8.593064,0.67444 11.890625,1.83789 2.922874,1.03125 8.057139,1.875 11.408203,1.875 5.97559,0 8.026029,1.49148 4.115234,2.99219 -1.08748,0.41731 -3.478105,0.63306 -5.3125,0.48047 -1.834396,-0.15257 -11.914062,-0.44717 -22.398437,-0.65625 -10.484375,-0.20907 -19.0625,-0.86373 -19.0625,-1.45313 0,-1.30027 4.405871,-2.5724 8.988281,-2.5957 1.850051,-0.009 3.71182,-0.58008 4.136719,-1.26758 0.43559,-0.7048 2.246196,-1.0926 4.65625,-1.18945 0.502094,-0.0202 1.030944,-0.0283 1.578125,-0.0234 z m 85.052732,21.73438 c -2.8877,-0.0263 -5.76541,1.3886 -8.32032,4.24804 -5.92668,6.63309 -4.00325,14.85155 4.29297,18.33985 6.96423,2.92824 14.11339,-1.54483 15.42969,-9.65625 0.58838,-3.62586 0.0813,-5.06082 -3.01953,-8.53125 -2.59677,-2.90628 -5.49512,-4.37415 -8.38281,-4.40039 z m -64.386716,0.0742 c -1.226773,-0.009 -2.4369,0.38025 -4.298829,1.15821 -5.007622,2.09232 -6.976562,5.20977 -6.976562,11.05468 0,4.19333 4.235502,9.66979 8.75,11.3125 1.03125,0.37525 2.034556,0.72695 2.228515,0.78125 0.193957,0.0543 2.323511,-0.7259 4.732422,-1.73242 9.641622,-4.02852 9.615772,-17.32061 -0.04101,-21.35547 -1.925353,-0.80449 -3.167766,-1.21016 -4.394531,-1.21875 z m 30.669916,0.0469 c -2.93363,-0.0503 -5.84756,1.32254 -8.35156,4.125 -5.928637,6.6353 -4.006409,14.85297 4.29101,18.3418 6.96423,2.92824 14.11339,-1.54483 15.42969,-9.65625 0.58467,-3.6029 0.0817,-5.05894 -2.90039,-8.39649 -2.58187,-2.8896 -5.53512,-4.3638 -8.46875,-4.41406 z m -0.0703,1.85742 c 4.10107,0 9.375,5.1853 9.375,9.2168 0,4.77165 -1.24941,6.9691 -5.08985,8.95508 -4.16809,2.1554 -4.74809,2.18264 -8.03515,0.38476 -3.82395,-2.09154 -5.625,-4.92518 -5.625,-8.85156 0,-4.49873 5.02891,-9.70508 9.375,-9.70508 z m 33.75,0 c 4.10107,0 9.375,5.1853 9.375,9.2168 0,4.77165 -1.24941,6.9691 -5.08985,8.95508 -4.16809,2.1554 -4.74809,2.18264 -8.03515,0.38476 -3.82395,-2.09154 -5.625,-4.92518 -5.625,-8.85156 0,-4.49873 5.02891,-9.70508 9.375,-9.70508 z m -64.371091,0.41992 c 1.120475,-0.01 2.265756,0.21853 3.412109,0.69336 3.66198,1.51685 6.583985,5.80717 6.583985,9.66797 0,1.05178 -1.644682,3.5568 -3.654297,5.56641 -2.009615,2.00963 -4.40024,3.64476 -5.3125,3.63476 -3.19131,-0.0355 -7.849602,-3.17222 -9.746094,-6.5625 -1.714646,-3.06519 -1.714098,-3.7723 -0.0059,-6.82617 2.228923,-3.98461 5.36123,-6.14446 8.722656,-6.17383 z m 64.371091,2.08008 c -1.34801,0 -1.88633,0.66602 -1.45313,1.79492 0.37868,0.98684 0.12996,1.97947 -0.55273,2.20703 -0.74292,0.24765 -0.90299,2.53962 -0.39649,5.70704 0.46919,2.93415 1.53991,5.29101 2.40235,5.29101 1.90022,0 3.79908,-10.40094 2.00781,-10.99805 -0.68269,-0.22756 -0.93144,-1.22019 -0.55273,-2.20703 0.43318,-1.1289 -0.10707,-1.79492 -1.45508,-1.79492 z m -64.140622,1.45313 c -0.19279,4.8e-4 -0.384491,0.0145 -0.574219,0.043 -2.897566,0.43426 -5.679979,4.1501 -4.208984,5.6211 0.542874,0.54286 1.534981,0.008 2.205078,-1.18946 2.408806,-4.3043 7.07736,-1.19431 5.271484,3.51172 -0.558175,1.45458 -1.713532,1.72693 -4.623047,1.08789 -3.48516,-0.76546 -3.708602,-0.64492 -2.189453,1.18555 3.270506,3.94072 10.134766,1.08717 10.134766,-4.21289 0,-3.01912 -3.123771,-6.05414 -6.015625,-6.04687 z m 28.351552,0.10546 c -2.44843,-0.0244 -3.7824,0.86316 -2.90234,2.28711 0.39854,0.64485 -0.15369,1.50943 -1.22851,1.92188 -2.33816,0.8972 -2.5898,3.81152 -0.39258,4.55078 2.3153,0.77901 6.01453,-0.43087 5.22461,-1.70898 -0.87719,-1.41933 2.05888,-1.40473 4.31054,0.0215 0.94743,0.60011 1.33569,1.71609 0.86328,2.48047 -0.4724,0.76436 -0.26323,1.38867 0.46485,1.38867 0.72807,0 1.32422,-0.84375 1.32422,-1.875 0,-1.03125 0.70312,-1.88453 1.5625,-1.89453 1.05028,-0.0129 1.12221,-0.3202 0.2207,-0.9375 -0.73764,-0.5051 -1.68253,-1.84804 -2.10156,-2.98633 -0.41902,-1.1383 -2.47423,-2.44672 -4.56641,-2.90625 -1.02329,-0.22475 -1.96315,-0.33367 -2.7793,-0.3418 z m -67.740224,10.36329 c 0.0043,0.01 -2.67e-4,0.022 0.0059,0.0312 0.004,0.006 0.0031,-0.0146 0.0059,-0.0137 -0.0035,-0.006 -0.0082,-0.0115 -0.01172,-0.0176 z m -29.023437,3.29492 c 0.04251,0.0376 0.08342,0.0759 0.121093,0.10351 -0.0032,-0.008 -0.0066,-0.0156 -0.0098,-0.0234 -0.0143,-0.0157 -0.03078,-0.029 -0.04492,-0.0449 -0.02388,-0.0126 -0.04394,-0.0232 -0.06641,-0.0352 z m 2.507812,1.64062 c 0.0012,7.7e-4 0.0027,9.6e-4 0.0039,0.002 -0.0014,-6.4e-4 0.01063,-9.6e-4 0.0078,-0.002 -0.0037,-7.2e-4 -0.008,6.9e-4 -0.01172,0 z m 30.9375,1.23633 c 0.02322,0.0126 0.04696,0.0246 0.07031,0.0371 0.01559,-0.004 0.0499,-0.002 0.06055,-0.008 -0.04374,-0.009 -0.08716,-0.0201 -0.130859,-0.0293 z m 1.582031,0.44922 c 0.01674,0.0211 0.02504,0.023 0.0293,0.01 -0.0098,-0.003 -0.01949,-0.007 -0.0293,-0.01 z"
     style="fill:#489595;fill-opacity:1"
     clip-path="url(#clipPath3460)"
     transform="matrix(1.002143,0,0,1.002143,-9.1861569,-56.860555)" />
</svg>
