<?xml version="1.0" encoding="UTF-8" standalone="no"?>
<!-- Created with Inkscape (http://www.inkscape.org/) -->

<svg
   xmlns:dc="http://purl.org/dc/elements/1.1/"
   xmlns:cc="http://creativecommons.org/ns#"
   xmlns:rdf="http://www.w3.org/1999/02/22-rdf-syntax-ns#"
   xmlns:svg="http://www.w3.org/2000/svg"
   xmlns="http://www.w3.org/2000/svg"
   xmlns:sodipodi="http://sodipodi.sourceforge.net/DTD/sodipodi-0.dtd"
   xmlns:inkscape="http://www.inkscape.org/namespaces/inkscape"
   id="svg3617"
   version="1.1"
   inkscape:version="0.91 r13725"
   width="150"
   height="150"
   viewBox="0 0 150 150.00001"
   sodipodi:docname="kr.svg">
  <metadata
     id="metadata3623">
    <rdf:RDF>
      <cc:Work
         rdf:about="">
        <dc:format>image/svg+xml</dc:format>
        <dc:type
           rdf:resource="http://purl.org/dc/dcmitype/StillImage" />
        <dc:title></dc:title>
      </cc:Work>
    </rdf:RDF>
  </metadata>
  <defs
     id="defs3621">
    <clipPath
       clipPathUnits="userSpaceOnUse"
       id="clipPath3631">
      <rect
         style="fill:#0000ff;fill-rule:evenodd;stroke:#000000;stroke-width:0.85694134px;stroke-linecap:butt;stroke-linejoin:miter;stroke-opacity:1"
         id="rect3633"
         width="115.75332"
         height="127.87375"
         x="24.169333"
         y="72.362877" />
    </clipPath>
  </defs>
  <sodipodi:namedview
     pagecolor="#ffffff"
     bordercolor="#666666"
     borderopacity="1"
     objecttolerance="10"
     gridtolerance="10"
     guidetolerance="10"
     inkscape:pageopacity="0"
     inkscape:pageshadow="2"
     inkscape:window-width="1366"
     inkscape:window-height="705"
     id="namedview3619"
     showgrid="false"
     fit-margin-top="0"
     fit-margin-left="0"
     fit-margin-right="0"
     fit-margin-bottom="0"
     inkscape:zoom="1.7233214"
     inkscape:cx="-43.466692"
     inkscape:cy="83.866937"
     inkscape:window-x="-8"
     inkscape:window-y="-8"
     inkscape:window-maximized="1"
     inkscape:current-layer="svg3617" />
  <path
     style="fill:#489595;fill-opacity:1"
     d="M 9.1512313,227.98339 C 6.9269444,226.88646 4.2599834,224.09025 3.093503,221.63207 1.2679734,217.78505 1.2212081,216.67525 2.7163911,212.68272 7.5941316,199.65789 26.5,202.84727 26.5,216.69497 c 0,5.80889 -1.883706,8.85909 -6.95819,11.26709 -5.213513,2.47398 -5.416361,2.47439 -10.3905787,0.0214 z m 12.3808867,-4.00404 c 1.186414,-1.16216 2.517846,-3.91666 2.958734,-6.12111 0.67385,-3.36925 0.195942,-4.61375 -2.998465,-7.80817 -4.891843,-4.89183 -9.297205,-4.93756 -14.0885409,-0.14622 -4.093839,4.09384 -4.63095,8.14487 -1.645098,12.40777 3.799855,5.42505 11.1448459,6.20164 15.7733689,1.66773 z M 9.0625,220.42215 c -2.2349383,-0.90181 -1.9333333,-6.60831 0.3965218,-7.50236 1.0774622,-0.41347 2.5962122,-0.1145 3.3749992,0.66423 C 13.88866,214.63866 13.707725,215 12.125,215 10.95625,215 10,215.84375 10,216.875 c 0,1.03125 0.876947,1.875 1.948771,1.875 1.071824,0 1.601128,0.5625 1.176229,1.25 -0.826998,1.33811 -1.594783,1.4179 -4.0625,0.42215 z m 7.5,-0.0855 c -2.238888,-0.78098 -1.931886,-6.52341 0.396521,-7.41691 1.077463,-0.41346 2.596213,-0.1145 3.375,0.66423 1.054639,1.05464 0.68763,1.41598 -1.438187,1.41598 -1.743975,0 -2.639765,0.60777 -2.302965,1.5625 0.303162,0.85937 1.475037,1.48437 2.604167,1.38889 1.12913,-0.0954 2.052964,0.26626 2.052964,0.80381 0,1.32126 -2.762066,2.25317 -4.6875,1.58155 z m 25.430857,7.7848 c -5.125447,-2.71638 -6.907831,-5.5303 -6.953603,-10.97798 -0.05109,-6.07977 2.83013,-10.40917 8.080437,-12.14193 5.681111,-1.87494 12.233525,0.88933 15.058839,6.3529 5.270895,10.19279 -6.189476,22.06477 -16.185673,16.76701 z M 53.846154,223.8461 C 56.048866,221.64344 57.5,218.87484 57.5,216.875 c 0,-4.2232 -6.242299,-10.625 -10.360273,-10.625 -4.004056,0 -9.151903,4.13619 -10.163327,8.16602 -1.519561,6.05442 4.302056,13.01205 10.932254,13.06555 1.25601,0.01 3.927885,-1.6258 5.9375,-3.63542 z M 43.4375,221.14584 c -1.210318,-1.32559 -2.1875,-4.3502 -2.1875,-6.77084 0,-4.07105 0.272663,-4.375 3.924696,-4.375 4.890127,0 7.233412,2.91481 7.28555,9.0625 0.03659,4.3147 -0.233636,4.67921 -3.397746,4.58334 -1.890625,-0.0572 -4.421875,-1.1823 -5.625,-2.5 z M 51.25,218.75 c 0,-2.91666 -0.555555,-3.75 -2.5,-3.75 -1.944445,0 -2.5,0.83334 -2.5,3.75 0,2.91666 0.555555,3.75 2.5,3.75 1.944445,0 2.5,-0.83334 2.5,-3.75 z M 45,216.25 c 0,-1.375 0.5625,-2.5 1.25,-2.5 0.6875,0 1.25,-0.5625 1.25,-1.25 0,-0.6875 -1.125,-1.25 -2.5,-1.25 -1.944445,0 -2.5,0.83334 -2.5,3.75 0,2.0625 0.5625,3.75 1.25,3.75 0.6875,0 1.25,-1.125 1.25,-2.5 z m 30.485146,12.52491 c -1.451919,-0.58664 -3.842544,-2.59559 -5.3125,-4.46434 -6.473181,-8.22932 -0.529521,-20.03371 9.948884,-19.75895 12.596008,0.33028 16.676285,16.34059 5.847127,22.94313 -4.420358,2.6951 -6.387181,2.93526 -10.483511,1.28016 z m 10.668948,-4.51102 c 5.86476,-4.93488 5.258744,-12.82268 -1.243495,-16.18513 -5.054455,-2.61375 -8.332299,-2.2707 -11.842418,1.23943 -5.138617,5.13861 -3.906755,13.2031 2.556819,16.7384 3.894144,2.12992 6.36785,1.70875 10.529094,-1.7927 z M 75.546875,221.6183 c -2.518404,-2.5184 -0.245399,-3.96161 2.565396,-1.62886 2.377341,1.97301 4.387729,0.54604 4.387729,-3.11444 0,-4.27483 -2.482826,-5.21209 -4.992656,-1.88474 -1.289375,1.70936 -2.472937,2.32668 -2.957538,1.54258 -1.353177,-2.18949 0.552051,-5.26078 3.763439,-6.06678 6.300603,-1.58135 10.525459,6.80373 5.650829,11.2152 -2.925216,2.64729 -5.727916,2.62633 -8.417199,-0.063 z m 31.095405,5.94391 c -7.680424,-4.68308 -8.914741,-12.47945 -3.0202,-19.07659 2.99743,-3.3547 4.52848,-4.05381 8.87792,-4.05381 4.34944,0 5.88049,0.69911 8.87792,4.05381 6.05819,6.7803 4.35424,15.38237 -3.89173,19.64652 -4.68914,2.42485 -6.04965,2.35335 -10.84391,-0.56993 z m 10.76832,-1.89097 c 3.80547,-1.96789 5.0894,-4.18698 5.0894,-8.79624 0,-4.64706 -1.29047,-6.83173 -5.24271,-8.87551 -12.30663,-6.364 -21.293451,11.40546 -9.13229,18.0571 3.37154,1.84408 5.11419,1.77176 9.2856,-0.38535 z m -1.1606,-4.32959 c 0,-0.63709 0.82894,-1.34021 1.84208,-1.5625 1.37386,-0.30143 1.50854,-0.88075 0.52984,-2.27915 -0.98026,-1.40065 -1.4718,-1.48223 -1.94292,-0.32249 -0.47714,1.17456 -1.26089,1.21524 -3.21937,0.16709 -2.18076,-1.16711 -2.46653,-1.06705 -1.8134,0.63499 0.60449,1.57526 -0.026,2.02041 -2.86169,2.02041 -4.4085,0 -6.17995,-2.321 -3.35051,-4.38994 1.13628,-0.83086 2.06597,-2.11859 2.06597,-2.8616 0,-4.3044 7.76454,-2.64335 11.38034,2.43459 2.08953,2.93446 2.30306,4.01604 1.0831,5.48601 -1.71075,2.06133 -3.71344,2.42407 -3.71344,0.67259 z m 26.64227,6.22056 c -7.68042,-4.68308 -8.91473,-12.47945 -3.0202,-19.07659 6.57197,-7.3553 17.23769,-4.73102 21.3759,5.25949 1.87165,4.51855 -0.91321,10.32515 -6.62116,13.80549 -5.00349,3.05081 -6.74732,3.05254 -11.73454,0.0112 z m 10.76833,-1.89097 c 3.92754,-2.03101 5.0894,-4.17352 5.0894,-9.38499 0,-5.73845 -3.86554,-9.35444 -10,-9.35444 -6.29934,0 -10,3.64248 -10,9.84275 0,4.3295 1.70044,7.13545 5.625,9.28203 3.37154,1.84408 5.11419,1.77176 9.2856,-0.38535 z m -8.00188,-6.50703 c -0.59218,-3.949 -0.43231,-6.11469 0.4737,-6.41669 0.75217,-0.25072 1.36758,-1.25273 1.36758,-2.22668 0,-2.95198 1.79254,-1.99039 3.50609,1.88078 1.94567,4.39558 0.45296,11.77852 -2.49625,12.34648 -1.46352,0.28185 -2.18272,-1.1267 -2.85112,-5.58389 z M 74.192833,195.46433 c -3.298198,-1.75368 -7.682365,-4.38878 -9.742598,-5.85579 -2.060231,-1.46701 -9.579371,-5.77595 -16.709199,-9.57543 -12.203572,-6.50323 -13.11606,-7.26392 -15.569393,-12.97926 -2.102517,-4.89808 -2.320524,-6.5284 -1.128264,-8.4375 0.903807,-1.44724 0.988176,-2.36635 0.217214,-2.36635 -1.866453,0 -1.591959,-15.67006 0.301907,-17.23509 0.859375,-0.71016 3.651834,-1.68162 6.205464,-2.15881 2.553631,-0.47719 5.294381,-1.65253 6.090556,-2.61186 0.90151,-1.08625 3.629686,-1.68124 7.232036,-1.57723 l 5.784444,0.16703 -5.625,0.88276 c -3.09375,0.48552 -7.3125,1.81315 -9.375,2.95029 -2.0625,1.13712 -4.6655,2.07097 -5.784444,2.07521 -3.619279,0.0137 -4.817016,2.96194 -4.001315,9.84925 0.711474,6.00729 1.231506,6.85304 6.400453,10.40936 3.094332,2.12896 7.65314,4.50866 10.130682,5.28824 5.976629,1.88057 25.557238,11.9499 24.769451,12.73769 -0.340377,0.34037 -5.998157,-1.89489 -12.572845,-4.96725 -6.574688,-3.07238 -13.671812,-5.96343 -15.771388,-6.42458 -2.099575,-0.46114 -3.51286,-1.33121 -3.140632,-1.93349 0.677654,-1.09647 -5.623138,-4.95152 -8.092887,-4.95152 -0.721641,0 -1.312075,1.58152 -1.312075,3.51451 0,3.18231 1.388276,4.29909 14.6875,11.81515 8.078125,4.56536 18.0625,9.76822 22.1875,11.56189 4.125,1.79369 8.434353,3.76289 9.576339,4.37601 1.418512,0.7616 2.281452,0.58026 2.723752,-0.57235 0.356078,-0.92792 5.213927,-3.55422 10.79522,-5.83621 9.787149,-4.00161 10.134599,-4.28386 9.776249,-7.94154 -0.31241,-3.18875 -0.86902,-3.75532 -3.49656,-3.55917 -1.71875,0.1283 -2.41837,-0.0604 -1.554711,-0.41928 0.863657,-0.35889 1.276357,-1.12812 0.91711,-1.7094 -0.359249,-0.58127 -0.0815,-1.41019 0.617211,-1.84201 0.698715,-0.43182 1.27039,-0.18945 1.27039,0.53862 0,0.72808 0.62268,1.32378 1.38374,1.32378 0.76105,0 1.11278,-0.70609 0.78162,-1.56908 -0.33116,-0.863 0.17116,-2.29142 1.11626,-3.17428 0.99283,-0.92744 1.71838,-1.05662 1.71838,-0.30593 0,0.71461 0.84375,1.29929 1.875,1.29929 2.44955,0 2.24052,-3.43484 -0.49446,-8.125 -1.56024,-2.67563 -4.19318,-4.46926 -9.189989,-6.26051 -7.901326,-2.83247 -10.99887,-4.92369 -4.556067,-3.07592 2.323206,0.66628 4.6496,1.21143 5.169764,1.21143 0.520163,0 0.945752,-3.62305 0.945752,-8.05123 0,-4.42817 0.5625,-8.39887 1.25,-8.82377 1.49709,-0.92525 1.56319,5.32089 0.13436,12.69787 -0.92578,4.77982 -0.757601,5.31142 2.09097,6.6093 1.70376,0.77629 3.21109,1.24974 3.34964,1.05213 0.32748,-0.46709 5.37039,-26.54346 5.1866,-26.81931 -0.077,-0.1155 -3.23293,0.6083 -7.01325,1.60847 -3.780327,1.00018 -8.692131,1.49281 -10.915121,1.09476 -3.934284,-0.70448 -4.021815,-0.6238 -3.290448,3.03303 1.079573,5.39786 -0.343227,9.68961 -3.484642,10.51111 -2.408508,0.62984 -2.517199,0.95598 -0.951173,2.85403 1.615758,1.95831 1.532867,2.0176 -0.96226,0.68826 -3.909097,-2.08268 -4.373878,-1.94324 -10.229447,3.06891 -2.906621,2.48796 -5.67506,4.13328 -6.152085,3.65625 -0.477025,-0.47702 -0.02825,-1.33835 0.997269,-1.91406 1.025523,-0.5757 3.197025,-2.20431 4.82556,-3.61914 1.628535,-1.41481 4.159785,-2.94014 5.625,-3.3896 1.465215,-0.44946 3.640367,-1.84027 4.833672,-3.09067 1.963963,-2.05795 1.985124,-2.458 0.223215,-4.2199 -2.309832,-2.30984 -2.408315,-2.32029 -5.912536,-0.62748 -2.637478,1.2741 -2.647813,1.25285 -0.303911,-0.625 3.046631,-2.44086 4.964292,-2.45989 6.948587,-0.069 2.08434,2.51148 3.759004,2.37043 3.710246,-0.3125 -0.04891,-2.69135 -2.861957,-6.5625 -4.768775,-6.5625 -0.774356,0 -2.172086,-1.82812 -3.106066,-4.0625 -0.93398,-2.23437 -2.629029,-4.8345 -3.766775,-5.77805 -2.910104,-2.41341 -2.635875,-3.7446 2.161396,-10.49206 2.326515,-3.2723 4.926008,-7.62987 5.776652,-9.683507 C 85.85732,96.680246 87.415989,95 88.470385,95 c 1.577967,0 1.495863,-0.472479 -0.46415,-2.671005 L 85.625,89.65799 l 4.0625,2.078105 c 4.823601,2.467434 4.965576,2.982434 1.215279,4.408294 -3.685033,1.401047 -13.788898,18.169861 -12.808765,21.257981 0.395895,1.24736 1.83045,3.27304 3.187897,4.50151 1.357449,1.22847 2.468089,2.99016 2.468089,3.91486 0,2.30553 1.275907,2.1074 3.259943,-0.50624 1.479468,-1.94896 1.664883,-1.96485 1.700303,-0.14572 0.08364,4.29561 16.596314,3.45572 21.630544,-1.10019 2.42468,-2.1943 2.4373,-3.2316 0.16969,-13.94845 -0.61403,-2.90193 -0.47537,-3.99398 0.43563,-3.43095 0.735,0.45425 1.72012,3.09738 2.18916,5.87362 0.70116,4.1501 1.16506,4.78857 2.60877,3.5904 3.86573,-3.20828 0.3829,-9.96727 -9.30687,-18.061456 -2.91535,-2.43529 -2.93448,-2.435326 -2.5,-0.0048 0.2842,1.589927 -0.3644,2.613736 -1.84854,2.917856 -3.173731,0.65037 -8.33863,-0.78705 -8.33863,-2.320655 0,-0.852011 0.795976,-0.844171 2.417824,0.02381 3.309921,1.771415 5.476456,1.624435 4.729966,-0.320885 -0.34083,-0.888175 0.16149,-2.683186 1.11626,-3.988911 C 104.67424,90.758202 104.23354,81.733536 101.25,78.75 95.970689,73.470689 85.093121,77.72046 86.771265,84.406716 c 0.405851,1.617039 0.313971,3.201339 -0.204178,3.520669 -0.518147,0.319329 -1.094766,-1.594084 -1.281372,-4.252027 -0.281741,-4.012988 0.206797,-5.190433 2.880461,-6.942284 5.08369,-3.330962 10.629391,-2.532415 14.797994,2.130821 3.20942,3.590229 3.51357,4.653404 2.87464,10.048217 -0.58906,4.973703 -0.30666,6.318859 1.60815,7.660043 C 111.25381,99.238583 120,110.42043 120,112.62101 c 0,1.12302 -1.125,3.47205 -2.5,5.22008 -1.375,1.74803 -2.5,4.07388 -2.5,5.16857 0,1.09469 -0.4309,1.99034 -0.95756,1.99034 -0.97465,0 -4.67824,15.17265 -5.98742,24.52884 -0.45251,3.23396 -0.0427,6.77751 1.10001,9.5125 1.77531,4.24891 2.04363,4.38057 10.65682,5.2293 8.51516,0.83906 15.81081,4.26171 13.6684,6.41235 -1.0344,1.03836 -22.21787,0.93147 -26.46117,-0.13353 -2.6112,-0.65536 -2.87019,-0.27019 -3.05904,4.54946 -0.11348,2.89599 -0.81808,6.00257 -1.56579,6.9035 -2.16037,2.60308 -0.15032,4.23159 4.21672,3.41634 7.37909,-1.37755 1.9546,1.70149 -9.07946,5.15366 -5.82642,1.82289 -10.88892,3.70544 -11.25,4.18345 -0.361081,0.47803 -1.879485,1.55039 -3.374234,2.38303 -2.29761,1.27989 -3.644712,1.02102 -8.714444,-1.67458 z M 78.125,193.75 c -0.424899,-0.6875 -1.335043,-1.25 -2.022543,-1.25 -0.6875,0 -0.902356,0.5625 -0.477457,1.25 0.424899,0.6875 1.335042,1.25 2.022542,1.25 0.6875,0 0.902357,-0.5625 0.477458,-1.25 z m 17.164487,-6.40493 C 96.50527,186.6944 97.5,185.62754 97.5,184.97426 c 0,-1.0893 -12.313204,3.0938 -13.75,4.67122 -0.945779,1.03835 9.009054,-0.94617 11.539487,-2.3004 z M 77.5,178.75 c 0,-0.6875 0.876947,-1.25 1.948771,-1.25 1.071824,0 1.601128,0.5625 1.176229,1.25 C 80.200101,179.4375 79.323155,180 78.676229,180 78.029302,180 77.5,179.4375 77.5,178.75 Z m 7.5,-5.42326 c 0,-0.32545 2.53125,-1.45421 5.625,-2.50836 5.65256,-1.92603 8.071531,-1.67174 2.8125,0.29565 C 88.14643,173.0934 85,173.91854 85,173.32674 Z M 80.243686,168.125 c -0.02548,-2.0625 0.233832,-3.05757 0.576235,-2.21129 0.342404,0.84629 0.363246,2.53379 0.04631,3.75 -0.31693,1.21622 -0.597079,0.52379 -0.622553,-1.53871 z m -17.662069,0.0984 c -1.209877,-1.45781 -1.013016,-1.65597 1.096944,-1.1042 1.414291,0.3698 2.571439,1.1693 2.571439,1.77662 0,1.68602 -2.018035,1.3161 -3.668383,-0.67245 z m 6.365702,-3.78222 c 1.243812,-2.72988 1.153122,-3.62639 -0.537901,-5.31741 -1.768121,-1.76812 -2.328042,-1.80293 -4.284183,-0.26633 -1.991503,1.56439 -2.076594,1.54457 -0.740049,-0.17242 2.44646,-3.14282 0.600534,-7.42887 -3.218475,-7.47297 -2.730608,-0.0315 -2.937143,-0.24493 -1.211638,-1.25198 2.683501,-1.56617 5.747608,-0.36598 6.696228,2.62287 0.410559,1.29355 2.092464,3.41068 3.737569,4.70471 2.443215,1.92183 2.817885,3.00047 2.045464,5.88865 -0.520099,1.94473 -1.629055,3.76368 -2.464348,4.0421 -1.187095,0.39571 -1.192045,-0.21072 -0.02266,-2.77722 z m -13.393942,0.0361 c -1.333446,-0.97503 -2.093757,-2.10348 -1.689582,-2.50766 0.404176,-0.40417 1.756097,0.39359 3.00427,1.7728 2.655542,2.93434 2.110174,3.23919 -1.314688,0.73486 z m -11.25,-7.5 c -1.333446,-0.97503 -2.144081,-2.05161 -1.801412,-2.3924 0.34267,-0.34077 1.950976,0.45698 3.574015,1.7728 3.394481,2.75195 1.871562,3.28428 -1.772603,0.6196 z M 46.875,151.25 c -0.91375,-1.47848 0.309395,-1.47848 3.75,0 2.410295,1.03574 2.401729,1.07744 -0.238729,1.16214 C 48.87997,152.46046 47.299899,151.9375 46.875,151.25 Z m 16.875,-5.061 c 4.335744,-2.94303 6.804916,-3.79946 3.75,-1.30069 -1.71875,1.40585 -3.6875,2.55999 -4.375,2.56475 -0.6875,0.005 -0.40625,-0.56406 0.625,-1.26406 z m -27.5,-3.064 c -1.71875,-0.98252 -2.529385,-1.80635 -1.801412,-1.8307 0.727973,-0.0244 2.415473,0.78156 3.75,1.79095 3.086221,2.3343 2.10048,2.35441 -1.948588,0.0397 z m 31.25,-3.75 c -3.359223,-1.9203 -2.217862,-2.34131 1.875,-0.69163 1.494196,0.60227 3.254352,0.44119 4.375,-0.40035 1.629865,-1.22393 1.650711,-1.12203 0.159444,0.77948 -2.042073,2.60384 -2.372943,2.61997 -6.409444,0.3125 z M 85,119.07377 c 0,-1.27807 -0.627597,-2.95137 -1.394661,-3.71843 -1.026216,-1.02622 -0.823437,-2.16551 0.767573,-4.3125 l 2.162235,-2.91784 -0.685631,2.94665 c -0.377096,1.62066 -0.181497,4.27262 0.434664,5.89325 0.688898,1.81194 0.657344,3.23272 -0.08195,3.68962 C 85.541006,121.06318 85,120.35184 85,119.07377 Z M 17.5,55.625 l 0,-11.875 6,0 c 3.3,0 6.675,0.675 7.5,1.5 2.083749,2.083749 1.875131,6.632556 -0.390414,8.512793 -1.195012,0.991772 -1.47273,2.082671 -0.75496,2.965556 0.6245,0.768157 1.711095,3.506026 2.414655,6.084151 1.817196,6.658932 -1.371453,6.36339 -3.371598,-0.3125 -0.82392,-2.75 -1.991952,-5 -2.595625,-5 -0.603674,0 -1.987344,-0.341431 -3.074824,-0.758736 -1.626653,-0.624205 -1.977234,0.26234 -1.977234,5 C 21.25,66.026808 20.77034,67.5 19.375,67.5 17.839912,67.5 17.5,65.347222 17.5,55.625 Z m 10.535714,-2.589286 c 3.22978,-3.229779 1.790475,-6.521292 -3.090357,-7.067263 C 22.22591,45.664253 21.83066,46.160734 21.487044,50.3125 21.158014,54.288014 21.476669,55 23.585257,55 c 1.367394,0 3.3701,-0.883929 4.450457,-1.964286 z m 9.24947,13.168829 C 32.963994,63.683073 33.41692,54.016598 37.99963,50.956641 42.107027,48.214059 48.75,51.540155 48.75,56.339286 48.75,58.363095 47.847222,58.75 43.125,58.75 38.439304,58.75 37.5,59.145136 37.5,61.116264 37.5,63.710536 39.816556,65 44.477234,65 46.139755,65 47.5,65.5625 47.5,66.25 c 0,1.594746 -7.460805,1.561545 -10.214816,-0.04546 z M 46.230859,56.5625 c -0.08828,-4.323392 -7.698112,-5.442849 -8.497244,-1.25 -0.334112,1.753001 0.470277,2.1875 4.04973,2.1875 2.45666,0 4.458041,-0.421875 4.447514,-0.9375 z M 50.625,66.25 C 50.175546,65.522769 51.420762,65 53.602457,65 59.599304,65 59.830522,61.930688 54.0625,58.89315 50.783141,57.166185 50.242803,51.90397 53.227234,50.758736 56.274779,49.589284 60,49.859494 60,51.25 c 0,0.6875 -1.40625,1.25 -3.125,1.25 -4.216619,0 -4.03692,3.176514 0.297214,5.25381 3.850066,1.845288 5.030887,5.216615 2.77795,7.931239 C 58.238205,67.747832 51.792073,68.138362 50.625,66.25 Z M 65,65 C 59.666821,59.666821 63.56981,50 71.056265,50 75.607315,50 78.75,53.486699 78.75,58.535926 78.75,63.324209 74.96508,67.5 70.625,67.5 68.90625,67.5 66.375,66.375 65,65 Z M 75.227442,61.875 C 77.27084,57.39023 74.867934,52.5 70.62086,52.5 68.376106,52.5 67.087971,53.420967 66.25,55.625 64.471179,60.303655 66.660732,65 70.62086,65 c 2.181894,0 3.630479,-0.982687 4.606582,-3.125 z m 7.316538,3.207176 C 80.886614,61.98536 80.851664,50 82.5,50 c 0.6875,0 1.25,2.42374 1.25,5.386088 0,12.062674 7.799529,13.023688 8.502825,1.047669 C 92.821626,46.747958 95,48.705989 95,58.903056 c 0,7.522432 -0.273505,8.676066 -1.763715,7.439302 -1.205694,-1.000637 -2.02001,-1.049062 -2.573771,-0.153056 -1.363382,2.205997 -6.737635,1.473109 -8.118534,-1.107126 z M 98.75,58.75 c 0,-5 0.535714,-8.75 1.25,-8.75 0.6875,0 1.25,0.567266 1.25,1.260593 0,0.757006 0.976,0.65107 2.44315,-0.265182 3.44545,-2.151719 4.8674,-0.09862 1.54393,2.22922 -2.18843,1.532838 -2.73708,3.155741 -2.73708,8.096249 0,4.659217 -0.4612,6.17912 -1.875,6.17912 -1.488095,0 -1.875,-1.805555 -1.875,-8.75 z m 11.96616,6.787591 c -5.76063,-5.760635 -2.3128,-14.596331 5.97052,-15.300547 2.62598,-0.223252 4.56332,0.17476 4.56332,0.9375 0,0.729001 -1.575,1.325456 -3.5,1.325456 -4.36947,0 -6.5,2.048584 -6.5,6.25 0,4.221295 2.1338,6.25 6.57377,6.25 2.06421,0 3.24745,0.528 2.80123,1.25 -1.19984,1.941379 -7.72412,1.472306 -9.90884,-0.712409 z m 13.85258,-0.323517 c -2.79576,-3.08927 -2.67282,-10.52992 0.21719,-13.145339 2.69926,-2.442794 8.13643,-2.720598 9.90803,-0.506235 0.68754,0.859375 1.63807,2.828125 2.11229,4.375 0.8155,2.660088 0.51896,2.8125 -5.47201,2.8125 -4.36399,0 -6.33424,0.505452 -6.33424,1.625 0,2.800735 2.83945,4.625 7.19877,4.625 2.48088,0 3.88269,0.511427 3.42623,1.25 -1.31139,2.12187 -8.83659,1.41679 -11.05627,-1.035926 z M 133.75,55.585769 c 0,-4.025682 -7.10166,-3.655778 -8.46726,0.441035 -0.31608,0.948206 1.10512,1.473196 3.9881,1.473196 3.18893,0 4.47916,-0.551392 4.47916,-1.914231 z m 5,10.747258 c 0,-0.641833 1.5035,-1.344958 3.3411,-1.5625 4.74521,-0.561749 4.97104,-3.036353 0.48862,-5.354299 C 136.74626,56.399626 138.08617,50 144.55122,50 c 4.09522,0 4.82377,2.260965 0.87887,2.727427 -4.67663,0.552985 -4.84087,2.511726 -0.4215,5.026935 C 151.10105,61.221787 149.32395,67.5 142.25,67.5 c -1.925,0 -3.5,-0.525138 -3.5,-1.166973 z M 92.5,31.29398 c 0,-0.663311 1.125,-1.808103 2.5,-2.54398 3.185172,-1.704652 3.148251,-4.333555 -0.183125,-13.038979 -2.563689,-6.6993339 -2.587691,-9.2984795 -0.0715,-7.7433916 0.638934,0.3948825 1.87446,3.2637086 2.745615,6.3751696 1.880496,6.716474 3.19527,7.17914 4.2608,1.499367 0.85869,-4.577226 3.84982,-9.407222 5.07005,-8.1869886 C 107.96355,8.7968823 100.7701,26.234385 97.766187,29.606826 95.113124,32.585375 92.5,33.422554 92.5,31.29398 Z M 60.267235,12.8125 C 60.640031,0.11293215 62.637969,-3.6969148 63.75,6.1712486 L 64.375,11.717497 68.75,5.8973996 C 71.15625,2.696346 73.828125,0.05990911 74.6875,0.03865105 77.048199,-0.01974479 76.611745,1.1329574 72.5,5.8159765 c -2.0625,2.3490578 -3.734351,4.9545665 -3.715225,5.7900185 0.01913,0.835453 1.706626,3.728584 3.75,6.429179 C 76.40404,23.148932 77.075191,25 75.060051,25 74.405579,25 72.120592,22.457176 69.982304,19.349279 67.844015,16.241382 65.566991,14.02458 64.922252,14.42305 64.277514,14.821521 63.75,17.364345 63.75,20.073771 63.75,23.670918 63.231918,25 61.829735,25 60.209552,25 59.965379,23.095441 60.267235,12.8125 Z M 80.390701,24.017919 C 78.197396,22.623294 76.203991,16.599066 77.100065,14.073355 78.457969,10.245911 81.540584,7.5 84.479449,7.5 87.954361,7.5 91.25,10.585715 91.25,13.839286 91.25,15.863095 90.347222,16.25 85.625,16.25 81.842949,16.25 80,16.782408 80,17.875 c 0,2.657541 2.765078,4.625 6.5,4.625 1.925,0 3.5,0.5625 3.5,1.25 0,1.452599 -7.420783,1.659499 -9.609299,0.267919 z M 88.516385,12.8125 C 88.007002,10.139895 82.562755,9.142276 81.098004,11.453135 79.260381,14.352251 79.875584,15 84.466655,15 c 3.579453,0 4.383843,-0.434499 4.04973,-2.1875 z"
     id="path3627"
     inkscape:connector-curvature="0"
     clip-path="url(#clipPath3631)"
     transform="matrix(1.173032,0,0,1.173032,-20.351401,-84.883971)" />
</svg>
