<?xml version="1.0" encoding="UTF-8" standalone="no"?>
<!-- Generator: Adobe Illustrator 18.0.0, SVG Export Plug-In . SVG Version: 6.00 Build 0)  -->

<svg
   xmlns:dc="http://purl.org/dc/elements/1.1/"
   xmlns:cc="http://creativecommons.org/ns#"
   xmlns:rdf="http://www.w3.org/1999/02/22-rdf-syntax-ns#"
   xmlns:svg="http://www.w3.org/2000/svg"
   xmlns="http://www.w3.org/2000/svg"
   xmlns:sodipodi="http://sodipodi.sourceforge.net/DTD/sodipodi-0.dtd"
   xmlns:inkscape="http://www.inkscape.org/namespaces/inkscape"
   version="1.1"
   id="Capa_1"
   x="0px"
   y="0px"
   viewBox="0 0 370.32 370.32"
   style="enable-background:new 0 0 370.32 370.32;"
   xml:space="preserve"
   width="512px"
   height="512px"
   inkscape:version="0.91 r13725"
   sodipodi:docname="new.svg"><metadata
   id="metadata39"><rdf:RDF><cc:Work
       rdf:about=""><dc:format>image/svg+xml</dc:format><dc:type
         rdf:resource="http://purl.org/dc/dcmitype/StillImage" /></cc:Work></rdf:RDF></metadata><defs
   id="defs37" /><sodipodi:namedview
   pagecolor="#ffffff"
   bordercolor="#666666"
   borderopacity="1"
   objecttolerance="10"
   gridtolerance="10"
   guidetolerance="10"
   inkscape:pageopacity="0"
   inkscape:pageshadow="2"
   inkscape:window-width="1366"
   inkscape:window-height="705"
   id="namedview35"
   showgrid="false"
   inkscape:zoom="1.2474651"
   inkscape:cx="189.04072"
   inkscape:cy="253.83051"
   inkscape:window-x="-8"
   inkscape:window-y="-8"
   inkscape:window-maximized="1"
   inkscape:current-layer="Capa_1" />
<path
   d="M316.242,223.775h-10.051v-10.051c0-14.585-6.906-27.579-17.611-35.91V73.703  c0-3.934-1.561-7.705-4.344-10.483L225.361,4.34C222.576,1.562,218.811,0,214.877,0H37.691C21.639,0,8.58,13.061,8.58,29.113  v312.095c0,16.054,13.058,29.112,29.111,29.112h221.777h1.225c25.088,0,45.498-20.41,45.498-45.498v-10.051h10.051  c25.088,0,45.498-20.41,45.498-45.498S341.33,223.775,316.242,223.775z M40.193,337.907V32.414h154.088v43.577  c0,10.554,8.555,19.106,19.105,19.106h43.58v73.294c-23.35,1.903-41.771,21.501-41.771,45.333v10.051h-10.051  c-25.088,0-45.498,20.41-45.498,45.498s20.41,45.498,45.498,45.498h10.051v10.051c0,4.548,0.678,8.939,1.926,13.085H40.193z   M316.107,289.205h-35.051v35.051c0,11.303-9.195,20.498-20.498,20.498c-11.303,0-20.498-9.195-20.498-20.498v-35.051H205.01  c-11.303,0-20.498-9.195-20.498-20.498c0-11.303,9.195-20.498,20.498-20.498h35.051v-35.051c0-11.303,9.195-20.498,20.498-20.498  c11.303,0,20.498,9.195,20.498,20.498v35.051h35.051c11.303,0,20.498,9.195,20.498,20.498  C336.605,280.01,327.41,289.205,316.107,289.205z"
   fill="#ffff99"
   id="path3"
   style="fill:#808080;fill-opacity:1" />
<g
   id="g5">
</g>
<g
   id="g7">
</g>
<g
   id="g9">
</g>
<g
   id="g11">
</g>
<g
   id="g13">
</g>
<g
   id="g15">
</g>
<g
   id="g17">
</g>
<g
   id="g19">
</g>
<g
   id="g21">
</g>
<g
   id="g23">
</g>
<g
   id="g25">
</g>
<g
   id="g27">
</g>
<g
   id="g29">
</g>
<g
   id="g31">
</g>
<g
   id="g33">
</g>
</svg>