<?xml version="1.0" encoding="UTF-8" standalone="no"?>
<!-- Generator: Adobe Illustrator 18.0.0, SVG Export Plug-In . SVG Version: 6.00 Build 0)  -->

<svg
   xmlns:dc="http://purl.org/dc/elements/1.1/"
   xmlns:cc="http://creativecommons.org/ns#"
   xmlns:rdf="http://www.w3.org/1999/02/22-rdf-syntax-ns#"
   xmlns:svg="http://www.w3.org/2000/svg"
   xmlns="http://www.w3.org/2000/svg"
   xmlns:sodipodi="http://sodipodi.sourceforge.net/DTD/sodipodi-0.dtd"
   xmlns:inkscape="http://www.inkscape.org/namespaces/inkscape"
   version="1.1"
   id="Capa_1"
   x="0px"
   y="0px"
   viewBox="0 0 490.106 490.106"
   style="enable-background:new 0 0 490.106 490.106;"
   xml:space="preserve"
   width="512px"
   height="512px"
   inkscape:version="0.91 r13725"
   sodipodi:docname="open.svg"><metadata
   id="metadata43"><rdf:RDF><cc:Work
       rdf:about=""><dc:format>image/svg+xml</dc:format><dc:type
         rdf:resource="http://purl.org/dc/dcmitype/StillImage" /></cc:Work></rdf:RDF></metadata><defs
   id="defs41" /><sodipodi:namedview
   pagecolor="#ffffff"
   bordercolor="#666666"
   borderopacity="1"
   objecttolerance="10"
   gridtolerance="10"
   guidetolerance="10"
   inkscape:pageopacity="0"
   inkscape:pageshadow="2"
   inkscape:window-width="1366"
   inkscape:window-height="705"
   id="namedview39"
   showgrid="false"
   inkscape:zoom="1.2474651"
   inkscape:cx="45.886415"
   inkscape:cy="253.83051"
   inkscape:window-x="-8"
   inkscape:window-y="-8"
   inkscape:window-maximized="1"
   inkscape:current-layer="Capa_1" />
<g
   id="g3"
   style="fill:#808080;fill-opacity:1">
	<path
   d="M480.91,54.024c-7.67-9.339-18.997-14.701-31.1-14.701H91.821c-19.739,0-36.458,14.136-39.75,33.603l-4.024,24.053h32.748   l3.144-18.678c0.643-3.864,3.948-6.674,7.883-6.674H449.81c2.407,0,4.636,1.059,6.176,2.922c1.51,1.859,2.122,4.251,1.674,6.592   l-21.104,108.105c5.89,9.227,9.417,20.123,9.417,31.85v88.449L489.348,87.35C491.673,75.494,488.594,63.33,480.91,54.024z"
   fill="#ffff99"
   id="path5"
   style="fill:#808080;fill-opacity:1" />
	<path
   d="M386.523,193.949H172.771c-2.146,0-3.883-1.736-3.883-3.883v-33.633c0-14.987-12.165-27.152-27.152-27.152H27.153   C12.164,129.281,0,141.446,0,156.433v267.2c0,14.989,12.164,27.149,27.153,27.149h359.37c15.004,0,27.168-12.16,27.168-27.149   V221.096C413.691,206.092,401.527,193.949,386.523,193.949z"
   fill="#ffff99"
   id="path7"
   style="fill:#808080;fill-opacity:1" />
</g>
<g
   id="g9">
</g>
<g
   id="g11">
</g>
<g
   id="g13">
</g>
<g
   id="g15">
</g>
<g
   id="g17">
</g>
<g
   id="g19">
</g>
<g
   id="g21">
</g>
<g
   id="g23">
</g>
<g
   id="g25">
</g>
<g
   id="g27">
</g>
<g
   id="g29">
</g>
<g
   id="g31">
</g>
<g
   id="g33">
</g>
<g
   id="g35">
</g>
<g
   id="g37">
</g>
</svg>