<?xml version="1.0" encoding="UTF-8" standalone="no"?>
<!-- Created with Inkscape (http://www.inkscape.org/) -->

<svg
   xmlns:dc="http://purl.org/dc/elements/1.1/"
   xmlns:cc="http://creativecommons.org/ns#"
   xmlns:rdf="http://www.w3.org/1999/02/22-rdf-syntax-ns#"
   xmlns:svg="http://www.w3.org/2000/svg"
   xmlns="http://www.w3.org/2000/svg"
   xmlns:sodipodi="http://sodipodi.sourceforge.net/DTD/sodipodi-0.dtd"
   xmlns:inkscape="http://www.inkscape.org/namespaces/inkscape"
   id="svg3635"
   version="1.1"
   inkscape:version="0.91 r13725"
   width="150"
   height="150"
   viewBox="0 0 150 150"
   sodipodi:docname="rs.svg">
  <metadata
     id="metadata3641">
    <rdf:RDF>
      <cc:Work
         rdf:about="">
        <dc:format>image/svg+xml</dc:format>
        <dc:type
           rdf:resource="http://purl.org/dc/dcmitype/StillImage" />
        <dc:title></dc:title>
      </cc:Work>
    </rdf:RDF>
  </metadata>
  <defs
     id="defs3639">
    <clipPath
       clipPathUnits="userSpaceOnUse"
       id="clipPath3649">
      <rect
         style="fill:#0000ff;fill-rule:evenodd;stroke:#000000;stroke-width:0.89761066px;stroke-linecap:butt;stroke-linejoin:miter;stroke-opacity:1"
         id="rect3651"
         width="102.41059"
         height="129.89639"
         x="32.01556"
         y="69.892029" />
    </clipPath>
  </defs>
  <sodipodi:namedview
     pagecolor="#ffffff"
     bordercolor="#666666"
     borderopacity="1"
     objecttolerance="10"
     gridtolerance="10"
     guidetolerance="10"
     inkscape:pageopacity="0"
     inkscape:pageshadow="2"
     inkscape:window-width="1366"
     inkscape:window-height="705"
     id="namedview3637"
     showgrid="false"
     inkscape:zoom="1.2591273"
     inkscape:cx="-117.3624"
     inkscape:cy="84.115744"
     inkscape:window-x="-8"
     inkscape:window-y="-8"
     inkscape:window-maximized="1"
     inkscape:current-layer="svg3635"
     fit-margin-top="0"
     fit-margin-left="0"
     fit-margin-right="0"
     fit-margin-bottom="0" />
  <path
     style="fill:#489595;fill-opacity:1"
     d="M 7.984836,226.77387 C 0.05602606,222.86221 -1.4000772,213.70777 4.9038461,207.40385 7.6783565,204.62934 9.7171989,203.75 13.375714,203.75 c 6.268771,0 9.961102,2.70586 11.724711,8.59227 1.865679,6.22708 -0.949233,12.09538 -7.018299,14.6312 -5.205762,2.1751 -5.287092,2.1735 -10.09729,-0.1996 z m 12.111318,-4.17772 c 4.090664,-4.09066 4.631121,-8.14463 1.652703,-12.39691 -3.000722,-4.28414 -7.344477,-5.5062 -12.2644919,-3.45049 -7.4548045,3.11481 -8.4462745,12.83446 -1.78513,17.50011 4.2522869,2.97841 8.3062549,2.43795 12.3969189,-1.65271 z M 7.4130419,218.02022 c -1.1923527,-1.4367 -1.2826905,-2.55109 -0.3293228,-4.0625 1.5483049,-2.45457 4.3635089,-2.74103 5.1040639,-0.51937 0.330821,0.99246 -0.20172,1.28597 -1.458333,0.80376 -1.2998672,-0.4988 -1.97945,-0.07 -1.97945,1.24915 0,1.10481 0.876947,2.00874 1.948771,2.00874 1.071824,0 1.601127,0.5625 1.176229,1.25 -1.104575,1.78724 -2.5722386,1.5472 -4.4619581,-0.72978 z m 7.1702921,1.14644 c -1.295221,-1.29521 -0.982571,-4.76742 0.568985,-6.31899 C 16.64578,211.35423 20,212.04395 20,213.8445 c 0,0.59237 -0.84375,0.75326 -1.875,0.35754 -1.187304,-0.45561 -1.875,0.0172 -1.875,1.28922 0,1.10482 0.876947,2.00874 1.948771,2.00874 1.071824,0 1.601128,0.5625 1.176229,1.25 -0.880371,1.42448 -3.551584,1.65675 -4.791666,0.41666 z m 25.827587,7.76114 C 35.558285,224.81694 33.75,221.66461 33.75,215.31604 c 0,-6.75287 5.029324,-11.56604 12.085444,-11.56604 13.088385,0 16.905499,18.1432 4.874691,23.16999 -5.242079,2.19027 -5.281896,2.19031 -10.299214,0.007 z m 12.331467,-4.47788 c 3.194406,-3.19441 3.672315,-4.43891 2.998465,-7.80816 -1.322162,-6.61081 -4.865085,-8.94664 -12.946725,-8.5357 -3.730734,0.18969 -8.098873,7.1512 -7.149367,11.39394 0.933699,4.1721 6.24202,8.75 10.146098,8.75 1.844172,0 4.727789,-1.57634 6.951529,-3.80008 z M 43.75,221.25 C 43.75,220.5625 42.90625,220 41.875,220 40.486111,220 40,218.54166 40,214.375 c 0,-5.31666 0.190334,-5.625 3.472199,-5.625 4.531602,0 7.777801,3.91877 7.777801,9.38929 0,4.0119 -0.29996,4.36071 -3.75,4.36071 -2.0625,0 -3.75,-0.5625 -3.75,-1.25 z M 50,217.5 c 0,-2.91666 -0.555555,-3.75 -2.5,-3.75 -1.944445,0 -2.5,0.83334 -2.5,3.75 0,2.91666 0.555555,3.75 2.5,3.75 1.944445,0 2.5,-0.83334 2.5,-3.75 z M 43.75,215 c 0,-1.375 0.5625,-2.5 1.25,-2.5 0.6875,0 1.25,-0.5625 1.25,-1.25 0,-0.6875 -1.125,-1.25 -2.5,-1.25 -1.944445,0 -2.5,0.83334 -2.5,3.75 0,2.0625 0.5625,3.75 1.25,3.75 0.6875,0 1.25,-1.125 1.25,-2.5 z m 29.160921,11.9278 C 61.057541,221.77166 65.111694,203.75 78.125,203.75 c 6.90588,0 11.875,4.90136 11.875,11.71307 0,6.30709 -1.860876,9.39745 -6.935466,11.51775 -5.083412,2.12399 -5.149712,2.12364 -10.153613,-0.053 z m 11.644374,-3.64081 C 91.803586,217.05227 87.692437,206 78.125,206 c -5.553491,0 -8.971484,2.91992 -10.115852,8.64176 -0.67385,3.36925 -0.195942,4.61375 2.998465,7.80816 4.60122,4.60122 8.865301,4.86468 13.547682,0.83707 z m -10.830365,-2.6922 c -2.04621,-2.46553 -0.608019,-3.92632 1.853944,-1.88308 4.038678,3.35181 7.896702,-2.23614 4.138565,-5.99427 -1.210083,-1.21009 -1.981164,-0.93784 -3.66451,1.29382 -2.428425,3.21944 -4.177209,2.42488 -2.978122,-1.35312 1.640768,-5.1696 8.733402,-4.64044 10.804158,0.80606 2.432585,6.39819 -5.903521,12.25215 -10.154035,7.13059 z m 31.66846,6.32563 c -5.758395,-2.50448 -8.563424,-8.50483 -6.771602,-14.48541 2.722532,-9.08701 13.489942,-11.76559 20.224362,-5.03116 6.34014,6.34012 4.67883,16.25089 -3.28162,19.57697 -5.08529,2.12478 -5.1478,2.1244 -10.17114,-0.0604 z m 10.65738,-2.67156 c 9.05433,-6.3419 2.86989,-20.36852 -8.05945,-18.27925 -3.8251,0.73121 -7.99132,5.903 -7.99132,9.92011 0,3.89925 6.3927,10.36028 10.25071,10.36028 1.61866,0 4.22869,-0.90051 5.80005,-2.00114 z m -1.09475,-5.41669 c 1.72035,-3.21451 1.63283,-4.19226 -0.26852,-2.99965 -0.85937,0.53905 -2.6875,0.83627 -4.0625,0.66048 -2.32256,-0.29691 -2.34744,-0.19818 -0.35058,1.39116 1.92157,1.5294 1.69665,1.69503 -2.1217,1.56243 -5.61063,-0.19484 -6.25872,-1.05093 -4.243,-5.60475 2.04491,-4.61979 3.90497,-5.4644 7.96256,-3.61564 3.30635,1.50648 7.79136,7.2738 5.65654,7.2738 -0.70335,0 -1.27882,0.5957 -1.27882,1.32377 0,0.72808 0.64941,0.92242 1.44314,0.43187 0.89412,-0.5526 1.10382,-0.3429 0.55123,0.55122 -0.49055,0.79373 -1.72226,1.44314 -2.73712,1.44314 -1.43696,0 -1.55892,-0.53494 -0.55123,-2.41783 z m 26.77913,8.74005 C 129.422,222.3765 132.78917,203.75 146.04157,203.75 c 5.79469,0 9.94614,2.81694 12.23909,8.30476 1.52273,3.64439 1.52216,4.70068 -0.004,7.65208 -3.6211,7.00243 -10.6575,10.3482 -16.54145,7.86538 z m 9.42545,-3.15098 c 8.97896,-4.6432 5.29501,-18.5879 -4.9106,-18.5879 -10.52115,0 -13.71781,13.86312 -4.375,18.97325 3.37154,1.84408 5.11419,1.77176 9.2856,-0.38535 z m -7.4106,-2.38999 c 0,-0.94531 -0.35156,-3.47656 -0.78125,-5.625 -0.74166,-3.70834 -0.58334,-3.90625 3.125,-3.90625 3.03332,0 3.90625,0.54219 3.90625,2.42622 0,1.33443 -0.50969,2.74124 -1.13265,3.12626 -0.62296,0.38501 -0.8386,1.82445 -0.47921,3.19877 0.50133,1.91713 0.0376,2.49875 -1.99235,2.49875 -1.45519,0 -2.64579,-0.77344 -2.64579,-1.71875 z M 145,209.375 c 0,-1.03125 0.5625,-1.875 1.25,-1.875 0.6875,0 1.25,0.84375 1.25,1.875 0,1.03125 -0.5625,1.875 -1.25,1.875 -0.6875,0 -1.25,-0.84375 -1.25,-1.875 z M 75.381074,196.79742 c -5.820466,-2.54833 -38.129694,-38.1167 -36.455977,-40.1334 0.70957,-0.85498 0.98131,-2.05418 0.603868,-2.66489 -0.377443,-0.61073 -0.75076,-12.82234 -0.829595,-27.13693 l -0.143336,-26.02654 6.034482,-2.291811 c 3.318967,-1.260498 7.078772,-2.292271 8.355123,-2.29283 2.088294,-9.16e-4 2.27602,-0.907989 1.875,-9.059789 -0.410204,-8.338469 -0.246854,-9.06964 2.054361,-9.195492 1.375,-0.0752 6.61207,-1.464153 11.637934,-3.086568 l 9.137932,-2.949843 5.801076,3.077463 c 4.249966,2.254601 5.181429,3.196797 3.483628,3.523764 -1.274596,0.245465 -2.821976,-0.455243 -3.438621,-1.557128 -1.59766,-2.85486 -9.706605,-2.563178 -19.885966,0.715304 l -8.441385,2.71873 0.69648,6.34377 c 0.782571,7.127925 4.167477,11.07653 8.821422,10.29048 1.771966,-0.299285 2.8125,0.154529 2.8125,1.22663 0,0.935912 0.140625,1.695571 0.3125,1.68813 0.171875,-0.0075 3.125,-0.866996 6.5625,-1.910121 3.4375,-1.043125 8.332911,-2.457842 10.878693,-3.143815 l 4.628692,-1.247224 0.442959,-7.780155 0.442957,-7.780155 0.240849,7.528245 c 0.232263,7.259824 0.400285,7.614106 4.712437,9.936354 2.459373,1.32446 5.344593,4.096323 6.411613,6.159701 l 1.94002,3.75158 2.90343,-3.37544 c 3.2186,-3.741838 5.52335,-4.367935 5.52335,-1.50044 0,1.03125 0.84375,1.875 1.875,1.875 2.26942,0 2.49269,-2.05857 0.3125,-2.881308 C 112.62753,98.841321 121.56346,95 125.4318,95 c 1.65665,0 3.6938,0.821409 4.527,1.825353 1.2465,1.50194 0.7753,2.276263 -2.65945,4.370327 -4.09561,2.49697 -5.39942,2.88227 -10.42435,3.08063 -3.50287,0.13828 -8.60473,10.79992 -8.68659,18.15285 -0.0509,4.57405 0.34795,5.66489 2.02524,5.5387 1.14876,-0.0864 1.85253,0.47608 1.56393,1.25 -0.2886,0.77393 2.87636,5.62589 7.03324,10.78214 l 7.55797,9.375 -0.37189,11.77164 c -0.25361,8.02766 -0.86885,11.93703 -1.9344,12.29167 -2.18676,0.72779 -1.95515,2.81169 0.3125,2.81169 6.36525,0 -2.22043,5.41525 -19.61324,12.37066 -5.025218,2.00959 -12.23051,5.1053 -16.01176,6.87937 -7.806544,3.66261 -7.93768,3.67533 -13.368926,1.2974 z M 86.875,192.22757 c 0.862156,-0.92803 0.668235,-1.14773 -0.625,-0.70808 -6.173429,2.09877 -8.051905,2.43702 -6.875,1.238 0.6875,-0.70043 7.369816,-3.56567 14.849591,-6.36719 7.479779,-2.80153 17.040819,-6.98201 21.246749,-9.28996 8.46529,-4.64522 9.30396,-6.47862 9.45662,-20.6731 0.0666,-6.19733 -0.39182,-7.2807 -6.13626,-14.49984 -7.65019,-9.61411 -9.47169,-11.1636 -11.98819,-10.19794 -1.59825,0.61331 -0.8434,2.20374 3.92901,8.27825 3.24903,4.1355 5.63829,7.78815 5.30945,8.11699 -0.32883,0.32882 -2.48984,-1.9272 -4.80224,-5.01341 -2.58467,-3.44959 -5.19836,-5.61867 -6.78455,-5.63043 -2.10317,-0.0156 -2.23547,-0.23707 -0.71563,-1.19795 1.27264,-0.80459 1.45805,-1.58531 0.58406,-2.4593 -0.874,-0.874 -3.81295,-0.0829 -9.25782,2.49218 -6.233904,2.94817 -7.64732,4.10268 -6.467334,5.28266 1.179987,1.17999 2.354691,1.0252 5.37507,-0.70826 2.125795,-1.22004 4.123225,-1.9601 4.438734,-1.6446 0.315509,0.31551 -1.506491,1.64083 -4.04889,2.94516 -3.946319,2.02459 -4.372876,2.6321 -2.915876,4.15287 0.938666,0.97977 2.407782,3.36472 3.264704,5.2999 1.258044,2.84105 2.097624,3.35769 4.360421,2.68322 2.758121,-0.82212 2.762891,-0.80428 0.302381,1.12922 -2.767169,2.17448 -6.20192,2.73879 -5.018872,0.82458 1.068421,-1.72874 -4.686322,-11.39084 -6.402147,-10.74908 -0.871136,0.32583 -1.1775,-0.39972 -0.791711,-1.87499 0.909585,-3.47825 -2.144845,-3.08226 -11.102094,1.43935 -5.440646,2.74643 -8.003257,3.4611 -8.964354,2.5 -0.961096,-0.9611 -0.877627,-1.34582 0.291988,-1.34582 0.900795,0 10.013295,-3.77696 20.25,-8.39325 14.23784,-6.42061 18.61219,-8.936 18.61219,-10.70256 0,-1.27013 -1.22096,-7.6246 -2.71324,-14.12104 -2.41212,-10.50082 -3.183,-12.17002 -6.945925,-15.040146 C 93.800182,95.864469 91.42413,94.999006 89.616578,95.452673 88.10871,95.831124 86.59375,96.123586 86.25,96.10259 c -0.34375,-0.021 -4.350264,1.314024 -8.903365,2.966711 -6.9593,2.526089 -8.631824,2.746429 -10.496653,1.382829 -3.182717,-2.327256 -4.92115,-0.655115 -2.313995,2.22576 1.896264,2.09535 1.919488,2.3225 0.168774,1.65068 -1.116539,-0.42845 -2.612751,-2.45048 -3.324916,-4.493403 -1.20811,-3.465586 -1.611686,-3.660736 -6.024845,-2.913321 -2.6015,0.440591 -7.187645,1.696684 -10.191433,2.791315 l -5.461432,1.990239 0.550857,24.47185 0.550857,24.47185 6.210083,6.23895 c 4.220844,4.24046 4.492503,4.65406 0.848075,1.29119 C 44.640462,155.20457 42.5,153.94982 42.5,155.03399 c 0,0.99247 7.893866,9.57027 17.541925,19.06178 9.648059,9.4915 17.238304,17.74855 16.867211,18.34899 -1.712012,2.7701 7.37462,2.57206 9.965864,-0.21719 z m 1.140052,-15.95888 0.10995,-8.1063 15.605678,-5.9562 c 8.58312,-3.2759 16.17687,-5.93625 16.875,-5.91189 1.86112,0.065 -4.28405,3.38896 -9.35568,5.06064 -2.40625,0.79312 -8.42629,3.10405 -13.377858,5.13537 l -9.00286,3.69333 -0.482087,7.09567 c -0.465179,6.84681 -0.478231,6.81136 -0.37214,-1.01062 z m 15.584238,3.04735 c 3.69837,-1.73751 6.99354,-2.88988 7.32261,-2.5608 0.65383,0.65382 -6.22127,3.74428 -11.030781,4.95848 -1.658865,0.41879 0.0099,-0.66016 3.708171,-2.39768 z M 77.455256,159.79456 c -1.431399,-2.79107 -1.397871,-2.8246 0.76182,-0.76182 1.242513,1.18676 1.916295,2.50056 1.497294,2.91956 -0.419,0.419 -1.435601,-0.55199 -2.259114,-2.15774 z m 19.13143,1.34178 c 3.320038,-1.93292 16.655374,-6.36442 15.254304,-5.06919 -1.2564,1.16148 -14.995963,6.46225 -16.575381,6.39484 -0.489835,-0.0209 0.10465,-0.61745 1.321077,-1.32565 z m -9.6783,-1.19037 c 1.326833,-2.14685 -5.58835,-10.23927 -7.974006,-9.33148 -1.578515,0.60065 -1.717345,0.43889 -0.594561,-0.69275 0.80565,-0.812 1.122207,-2.39222 0.703461,-3.51157 -0.653562,-1.74703 -0.470509,-1.79871 1.292925,-0.36506 1.129856,0.91856 2.782048,1.25791 3.671539,0.75413 1.273347,-0.72122 1.296024,-0.56907 0.106637,0.7155 -1.198001,1.29387 -0.722591,2.62647 2.297245,6.43932 2.094327,2.64431 4.461606,4.48219 5.260622,4.08419 0.799015,-0.398 0.36087,0.16182 -0.973658,1.24405 -2.750879,2.23082 -5.002411,2.62507 -3.790201,0.66367 z M 105,151.875 c 1.71875,-0.98252 3.6875,-1.78641 4.375,-1.78641 0.6875,0 -0.15625,0.80388 -1.875,1.78641 -1.71875,0.98252 -3.6875,1.78641 -4.375,1.78641 -0.6875,0 0.15625,-0.80389 1.875,-1.78641 z M 99.375,145 c 0.424899,-0.6875 1.33504,-1.25 2.02254,-1.25 0.6875,0 0.90236,0.5625 0.47746,1.25 -0.4249,0.6875 -1.33504,1.25 -2.022542,1.25 -0.6875,0 -0.902357,-0.5625 -0.477458,-1.25 z m -35.417493,-4.56133 c -2.399236,-9.57002 -2.896205,-12.29403 -2.097138,-11.49497 1.200305,1.20031 4.641221,14.97137 3.920832,15.69176 -0.339289,0.33929 -1.159951,-1.54926 -1.823694,-4.19679 z M 100.19737,121.25 c 0,-1.71875 0.28371,-2.42187 0.63048,-1.5625 0.34677,0.85938 0.34677,2.26563 0,3.125 -0.34677,0.85938 -0.63048,0.15625 -0.63048,-1.5625 z M 70,115 c 1.03125,-0.66645 2.4375,-1.21172 3.125,-1.21172 0.6875,0 0.40625,0.54527 -0.625,1.21172 -1.03125,0.66645 -2.4375,1.21172 -3.125,1.21172 -0.6875,0 -0.40625,-0.54527 0.625,-1.21172 z m 14.375,-5 c 1.375,-0.59086 3.34375,-1.07429 4.375,-1.07429 1.181849,0 0.950799,0.39715 -0.625,1.07429 -1.375,0.59086 -3.34375,1.07429 -4.375,1.07429 -1.181849,0 -0.950799,-0.39715 0.625,-1.07429 z M 70,104.47546 c 0,-0.99177 12.512202,-4.679716 14.068072,-4.14653 0.85631,0.29345 -1.623395,1.46448 -5.510456,2.6023 C 71.07749,105.12082 70,105.31525 70,104.47546 Z M 119.375,178.75 c 0.4249,-0.6875 0.21004,-1.25 -0.47746,-1.25 -0.6875,0 -1.59764,0.5625 -2.02254,1.25 -0.4249,0.6875 -0.21004,1.25 0.47746,1.25 0.6875,0 1.59764,-0.5625 2.02254,-1.25 z M 44.202033,160.625 c -0.395728,-1.03125 -1.290699,-1.875 -1.988825,-1.875 -0.731631,0 -0.610144,0.79426 0.286792,1.875 0.855861,1.03125 1.750833,1.875 1.988825,1.875 0.237992,0 0.108938,-0.84375 -0.286792,-1.875 z m 67.687447,-57.91302 c -0.56979,-1.48485 -1.29681,-1.28023 -3.7971,1.06867 -3.11586,2.92719 -3.69843,5.70478 -2.29513,10.94277 0.66848,2.4952 1.13724,2.04092 3.78003,-3.66327 1.6593,-3.58144 2.69979,-7.33811 2.3122,-8.34817 z m 7.25199,-0.67914 c 0.36241,-0.94444 2.67259,-2.094932 5.13373,-2.556645 4.64271,-0.870979 6.22055,-3.226195 2.16133,-3.226195 -4.79845,0 -9.65082,2.528497 -9.65082,5.02891 0,2.84131 1.3847,3.28446 2.35576,0.75393 z M 64.677832,91.362847 c -0.519856,-2.344183 -0.660037,-4.547308 -0.311512,-4.895833 1.303381,-1.303382 2.047034,0.927688 1.658355,4.975313 L 65.623027,95.625 64.677832,91.362847 Z M 71.25,90.073771 C 71.25,89.345697 71.8125,88.75 72.5,88.75 c 0.6875,0 1.25,0.248052 1.25,0.551229 0,0.303176 -0.5625,0.898872 -1.25,1.323771 -0.6875,0.424899 -1.25,0.176845 -1.25,-0.551229 z M 80,87.848927 c 1.71875,-0.30834 3.659375,-1.075487 4.3125,-1.704772 1.97226,-1.90027 3.608801,-1.28295 1.9375,0.730845 -0.855861,1.03125 -3.315361,1.798397 -5.465556,1.704772 C 77.384343,88.431723 77.282141,88.336505 80,87.848927 Z m -8.929522,-6.133739 c 2.307513,-1.006984 5.963763,-2.092465 8.125,-2.412182 2.918923,-0.431802 2.322139,0.04037 -2.320478,1.835967 -7.268416,2.811153 -12.002904,3.281146 -5.804523,0.576215 z M 29.583334,66.666666 C 27.840115,64.923449 28.855824,63.615117 31.340215,64.403632 35.432821,65.702576 40,64.040185 40,61.25159 40,59.650815 38.265849,57.916111 35,56.25 30.977624,54.197936 30,53.019821 30,50.224595 30,48.313568 30.675,46.075 31.5,45.25 c 1.892115,-1.892115 9.75,-1.976102 9.75,-0.104213 0,0.769309 -1.096015,1.109176 -2.441905,0.757218 -5.674215,-1.483841 -8.391561,5.490415 -2.898946,7.440345 6.493783,2.305354 9.068832,10.242514 4.173027,12.862669 -2.71163,1.451221 -9.222594,1.736896 -10.498842,0.460646 z m 17.425402,-1.1439 C 46.591431,64.435286 46.25,61.107161 46.25,58.126932 46.25,54.963521 45.599697,52.444465 44.6875,52.07433 43.601924,51.633845 43.534369,51.125126 44.466177,50.407664 45.203824,49.839699 46.287166,48.25 46.873604,46.875 47.902196,44.463291 47.957229,44.474327 48.431865,47.1875 48.742462,48.962977 49.81362,50 51.336939,50 52.664123,50 53.75,50.5625 53.75,51.25 c 0,0.6875 -1.125,1.25 -2.5,1.25 -2.137178,0 -2.5,0.833334 -2.5,5.742025 0,4.690769 0.457703,5.861716 2.5,6.395789 C 54.721554,65.545645 54.38611,67.5 50.758736,67.5 c -1.645195,0 -3.332695,-0.889755 -3.75,-1.977234 z M 55,58.854166 C 55,53.784722 55.534314,50 56.25,50 c 0.6875,0 1.25,0.567266 1.25,1.260593 0,0.757006 0.976,0.65107 2.443152,-0.265182 3.402648,-2.124988 4.888369,-0.113312 1.611458,2.181923 -1.947464,1.364057 -2.772353,3.443071 -3.049584,7.686037 C 58.29296,64.108992 57.434423,66.906916 56.5625,67.193955 55.411146,67.572982 55,65.378501 55,58.854166 Z m 12.285184,7.350377 C 62.963994,63.683073 63.41692,54.016598 67.99963,50.956641 71.987,48.294202 78.75,51.882737 78.75,56.660926 78.75,58.303533 77.54785,58.75 73.125,58.75 68.439304,58.75 67.5,59.145136 67.5,61.116264 67.5,63.710536 69.816556,65 74.477234,65 76.139755,65 77.5,65.5625 77.5,66.25 c 0,1.594746 -7.460805,1.561545 -10.214816,-0.04546 z M 76.230859,56.5625 c -0.08827,-4.323392 -7.698112,-5.442849 -8.497244,-1.25 -0.334113,1.753001 0.470277,2.1875 4.04973,2.1875 2.45666,0 4.458041,-0.421875 4.447514,-0.9375 z M 81.5625,66.630681 C 76.923597,64.881957 82.178766,56.25 87.8823,56.25 c 1.313168,0 2.09279,-0.680386 1.790394,-1.5625 -0.294601,-0.859375 -2.312076,-1.556953 -4.483276,-1.550171 -4.763263,0.01487 -4.524198,-2.346968 0.295071,-2.915152 C 90.826359,49.592381 92.5,51.898155 92.5,59.88744 l 0,7.081327 -4.6875,0.125464 c -2.578125,0.06901 -5.390625,-0.139592 -6.25,-0.46355 z M 89.774439,61.5625 C 90.071331,59.472037 89.54904,58.75 87.739995,58.75 c -2.93655,0 -5.786306,3.104779 -4.604657,5.016726 1.485461,2.403527 6.207345,0.83583 6.639101,-2.204226 z M 96.25,58.75 c 0,-5 0.535714,-8.75 1.25,-8.75 0.6875,0 1.25,0.675 1.25,1.5 0,1.166666 0.333334,1.166666 1.5,0 1.87114,-1.871141 6.81876,-1.95903 7.94231,-0.141085 0.60478,0.978554 1.22022,0.978554 2.19878,0 1.80604,-1.80604 6.23891,-1.728914 8.10891,0.141085 1.76773,1.767733 2.0456,16 0.31238,16 -0.65319,0 -1.35632,-3.234375 -1.5625,-7.1875 -0.35119,-6.733365 -0.57233,-7.1875 -3.49988,-7.1875 -2.93188,0 -3.14832,0.449288 -3.50234,7.270053 -0.48019,9.251544 -3.2103,9.072602 -3.75275,-0.245972 C 105.83639,48.836401 98.75,50.634169 98.75,62.113912 98.75,65.07626 98.1875,67.5 97.5,67.5 c -0.714286,0 -1.25,-3.75 -1.25,-8.75 z m 26.875,7.5 c -0.44945,-0.727231 0.79576,-1.25 2.97746,-1.25 5.99684,0 6.22806,-3.069312 0.46004,-6.10685 -3.27936,-1.726965 -3.8197,-6.98918 -0.83526,-8.134414 C 128.77477,49.589284 132.5,49.859494 132.5,51.25 c 0,0.6875 -1.40625,1.25 -3.125,1.25 -4.21661,0 -4.03692,3.176514 0.29721,5.25381 3.85006,1.845288 5.03089,5.216615 2.77795,7.931239 -1.71196,2.062783 -8.15809,2.453313 -9.32516,0.564951 z M 25.265592,13.4375 25.625,1.875 30.78385,1.4981355 c 7.82976,-0.57198004 12.143892,5.395551 7.359459,10.1799845 -1.639876,1.639876 -1.640775,2.270671 -0.0078,5.401786 1.016945,1.949801 1.852456,4.529469 1.856691,5.732594 0.01213,3.454385 -2.358814,2.546896 -3.265843,-1.25 C 35.630944,16.976604 33.935354,15 31.096944,15 29.192176,15 28.75,15.942025 28.75,20 c 0,3.665347 -0.513015,5 -1.921908,5 -1.616596,0 -1.864812,-1.836795 -1.5625,-11.5625 z M 36.292763,9.9200971 C 38.054172,6.6288737 35.921497,3.75 31.721944,3.75 29.15877,3.75 28.75,4.3517502 28.75,8.125 c 0,3.81668 0.393187,4.375 3.08102,4.375 1.833509,0 3.640077,-1.044608 4.461742,-2.5799029 z M 43.19588,22.221868 C 42.125646,20.693894 41.25,18.238502 41.25,16.76544 41.25,13.13996 45.870545,7.5 48.840725,7.5 51.98312,7.5 56.25,11.819127 56.25,15 c 0,2.168996 -0.833334,2.5 -6.29398,2.5 -5.906633,0 -6.211638,0.153856 -4.95602,2.5 0.942746,1.761536 2.617279,2.5 5.66898,2.5 C 53.051041,22.5 55,23.0625 55,23.75 55,24.4375 52.781896,25 50.07088,25 c -3.67659,0 -5.423584,-0.705946 -6.875,-2.778132 z m 9.263524,-9.797723 C 50.796589,9.3171481 45.849129,9.5830531 45.233615,12.8125 44.898889,14.568723 45.705986,15 49.327325,15 c 4.167565,0 4.405784,-0.195914 3.132079,-2.575855 z m 7.055872,4.223767 C 57.740004,12.054264 56.522895,8.0604379 56.81059,7.772743 c 1.26382,-1.2638191 3.153954,1.4754101 5.136273,7.443614 l 2.138011,6.436952 2.290805,-6.034895 C 68.840031,9.1263194 71.25,5.7369501 71.25,8.7631884 71.25,12.091733 65.637606,25 64.190386,25 c -0.796039,0 -2.899838,-3.75844 -4.67511,-8.352088 z m 15.053459,6.066162 C 70.147635,17.828814 73.672716,7.5 79.761088,7.5 c 3.415777,0 6.401222,2.753052 6.777583,6.25 0.311815,2.897235 -0.09642,3.152769 -5.601171,3.505989 C 77.671875,17.465533 75,18.056157 75,18.568489 75,20.698492 78.264837,22.5 82.125,22.5 c 2.26875,0 4.125,0.5625 4.125,1.25 0,2.252338 -9.465063,1.41295 -11.681265,-1.035926 z M 83.75,13.085769 c 0,-4.0256816 -7.101664,-3.6557773 -8.467268,0.441035 C 74.966664,14.47501 76.387867,15 79.270834,15 82.45978,15 83.75,14.448608 83.75,13.085769 Z m 5,3.997565 c 0,-8.4711909 0.721675,-10.3279169 3.211204,-8.2617913 1.085131,0.9005792 1.815051,0.8972479 2.376282,-0.01085 1.199611,-1.9410112 5.205115,-1.5895251 7.448224,0.6535879 C 103.99804,11.676615 104.61061,25 102.5,25 c -0.6875,0 -1.25,-2.42374 -1.25,-5.386088 0,-12.062675 -7.799529,-13.0236885 -8.502825,-1.047669 C 92.476548,23.174602 91.855906,25 90.559675,25 89.1706,25 88.75,23.160027 88.75,17.083334 Z M 109,23.5 c -1.8063,-1.806298 -2.02807,-16 -0.25,-16 0.6875,0 1.25,3.111404 1.25,6.914231 0,5.248193 0.49273,7.103311 2.0449,7.698934 3.81536,1.464089 6.05918,-1.388735 6.45906,-8.212105 0.21469,-3.663365 0.892,-6.1493769 1.5625,-5.7349864 C 121.65889,9.150249 121.59632,25 120,25 c -0.6875,0 -1.25,-0.675 -1.25,-1.5 0,-1.166666 -0.33333,-1.166666 -1.5,0 -1.92813,1.928126 -6.32187,1.928126 -8.25,0 z m 16.81874,-0.785926 C 121.39764,17.828814 124.92272,7.5 131.01109,7.5 c 3.41577,0 6.40122,2.753052 6.77758,6.25 0.31182,2.897235 -0.0964,3.152769 -5.60117,3.505989 -3.26563,0.209544 -5.9375,0.800168 -5.9375,1.3125 0,2.130003 3.26484,3.931511 7.125,3.931511 2.26875,0 4.125,0.5625 4.125,1.25 0,2.252338 -9.46506,1.41295 -11.68126,-1.035926 z M 135,13.085769 c 0,-4.0256816 -7.10166,-3.6557773 -8.46726,0.441035 C 126.21666,14.47501 127.63786,15 130.52084,15 133.70977,15 135,14.448608 135,13.085769 Z"
     id="path3645"
     inkscape:connector-curvature="0"
     clip-path="url(#clipPath3649)"
     transform="matrix(1.1547665,0,0,1.1547665,-17.878896,-80.708976)" />
</svg>
