<?xml version="1.0" encoding="UTF-8" standalone="no"?>
<!-- Generator: Adobe Illustrator 16.0.0, SVG Export Plug-In . SVG Version: 6.00 Build 0)  -->

<svg
   xmlns:dc="http://purl.org/dc/elements/1.1/"
   xmlns:cc="http://creativecommons.org/ns#"
   xmlns:rdf="http://www.w3.org/1999/02/22-rdf-syntax-ns#"
   xmlns:svg="http://www.w3.org/2000/svg"
   xmlns="http://www.w3.org/2000/svg"
   xmlns:sodipodi="http://sodipodi.sourceforge.net/DTD/sodipodi-0.dtd"
   xmlns:inkscape="http://www.inkscape.org/namespaces/inkscape"
   version="1.1"
   id="Capa_1"
   x="0px"
   y="0px"
   width="512px"
   height="512px"
   viewBox="0 0 438.533 438.533"
   style="enable-background:new 0 0 438.533 438.533;"
   xml:space="preserve"
   inkscape:version="0.91 r13725"
   sodipodi:docname="save.svg"><metadata
   id="metadata41"><rdf:RDF><cc:Work
       rdf:about=""><dc:format>image/svg+xml</dc:format><dc:type
         rdf:resource="http://purl.org/dc/dcmitype/StillImage" /></cc:Work></rdf:RDF></metadata><defs
   id="defs39" /><sodipodi:namedview
   pagecolor="#ffffff"
   bordercolor="#666666"
   borderopacity="1"
   objecttolerance="10"
   gridtolerance="10"
   guidetolerance="10"
   inkscape:pageopacity="0"
   inkscape:pageshadow="2"
   inkscape:window-width="1366"
   inkscape:window-height="705"
   id="namedview37"
   showgrid="false"
   inkscape:zoom="1.2474651"
   inkscape:cx="45.886415"
   inkscape:cy="253.83051"
   inkscape:window-x="-8"
   inkscape:window-y="-8"
   inkscape:window-maximized="1"
   inkscape:current-layer="Capa_1" />
<g
   id="g3"
   style="fill:#808080;fill-opacity:1">
	<path
   d="M432.823,121.049c-3.806-9.132-8.377-16.367-13.709-21.695l-79.941-79.942c-5.325-5.325-12.56-9.895-21.696-13.704   C308.346,1.903,299.969,0,292.357,0H27.409C19.798,0,13.325,2.663,7.995,7.993c-5.33,5.327-7.992,11.799-7.992,19.414v383.719   c0,7.617,2.662,14.089,7.992,19.417c5.33,5.325,11.803,7.991,19.414,7.991h383.718c7.618,0,14.089-2.666,19.417-7.991   c5.325-5.328,7.987-11.8,7.987-19.417V146.178C438.531,138.562,436.629,130.188,432.823,121.049z M182.725,45.677   c0-2.474,0.905-4.611,2.714-6.423c1.807-1.804,3.949-2.708,6.423-2.708h54.819c2.468,0,4.609,0.902,6.417,2.708   c1.813,1.812,2.717,3.949,2.717,6.423v91.362c0,2.478-0.91,4.618-2.717,6.427c-1.808,1.803-3.949,2.708-6.417,2.708h-54.819   c-2.474,0-4.617-0.902-6.423-2.708c-1.809-1.812-2.714-3.949-2.714-6.427V45.677z M328.906,401.991H109.633V292.355h219.273   V401.991z M402,401.991h-36.552h-0.007V283.218c0-7.617-2.663-14.085-7.991-19.417c-5.328-5.328-11.8-7.994-19.41-7.994H100.498   c-7.614,0-14.087,2.666-19.417,7.994c-5.327,5.328-7.992,11.8-7.992,19.417v118.773H36.544V36.542h36.544v118.771   c0,7.615,2.662,14.084,7.992,19.414c5.33,5.327,11.803,7.993,19.417,7.993h164.456c7.61,0,14.089-2.666,19.41-7.993   c5.325-5.327,7.994-11.799,7.994-19.414V36.542c2.854,0,6.563,0.95,11.136,2.853c4.572,1.902,7.806,3.805,9.709,5.708l80.232,80.23   c1.902,1.903,3.806,5.19,5.708,9.851c1.909,4.665,2.857,8.33,2.857,10.994V401.991z"
   fill="#ffff99"
   id="path5"
   style="fill:#808080;fill-opacity:1" />
</g>
<g
   id="g7">
</g>
<g
   id="g9">
</g>
<g
   id="g11">
</g>
<g
   id="g13">
</g>
<g
   id="g15">
</g>
<g
   id="g17">
</g>
<g
   id="g19">
</g>
<g
   id="g21">
</g>
<g
   id="g23">
</g>
<g
   id="g25">
</g>
<g
   id="g27">
</g>
<g
   id="g29">
</g>
<g
   id="g31">
</g>
<g
   id="g33">
</g>
<g
   id="g35">
</g>
</svg>