<?xml version="1.0" encoding="UTF-8" standalone="no"?>
<!-- Created with Inkscape (http://www.inkscape.org/) -->

<svg
   xmlns:dc="http://purl.org/dc/elements/1.1/"
   xmlns:cc="http://creativecommons.org/ns#"
   xmlns:rdf="http://www.w3.org/1999/02/22-rdf-syntax-ns#"
   xmlns:svg="http://www.w3.org/2000/svg"
   xmlns="http://www.w3.org/2000/svg"
   xmlns:sodipodi="http://sodipodi.sourceforge.net/DTD/sodipodi-0.dtd"
   xmlns:inkscape="http://www.inkscape.org/namespaces/inkscape"
   id="svg3653"
   version="1.1"
   inkscape:version="0.91 r13725"
   width="150"
   height="136.97063"
   viewBox="0 0 150 136.97063"
   sodipodi:docname="vp.svg">
  <metadata
     id="metadata3659">
    <rdf:RDF>
      <cc:Work
         rdf:about="">
        <dc:format>image/svg+xml</dc:format>
        <dc:type
           rdf:resource="http://purl.org/dc/dcmitype/StillImage" />
        <dc:title />
      </cc:Work>
    </rdf:RDF>
  </metadata>
  <defs
     id="defs3657">
    <clipPath
       clipPathUnits="userSpaceOnUse"
       id="clipPath3667">
      <rect
         style="fill:#0000ff;fill-rule:evenodd;stroke:#000000;stroke-width:0.8555221px;stroke-linecap:butt;stroke-linejoin:miter;stroke-opacity:1"
         id="rect3669"
         width="133.7184"
         height="122.10328"
         x="20.254229"
         y="66.431145" />
    </clipPath>
  </defs>
  <sodipodi:namedview
     pagecolor="#ffffff"
     bordercolor="#666666"
     borderopacity="1"
     objecttolerance="10"
     gridtolerance="10"
     guidetolerance="10"
     inkscape:pageopacity="0"
     inkscape:pageshadow="2"
     inkscape:window-width="1366"
     inkscape:window-height="705"
     id="namedview3655"
     showgrid="false"
     inkscape:zoom="2.2132839"
     inkscape:cx="-17.293066"
     inkscape:cy="78.717951"
     inkscape:window-x="-8"
     inkscape:window-y="-8"
     inkscape:window-maximized="1"
     inkscape:current-layer="svg3653"
     fit-margin-top="0"
     fit-margin-left="0"
     fit-margin-right="0"
     fit-margin-bottom="0" />
  <path
     style="fill:#489595;fill-opacity:1"
     clip-path="url(#clipPath3667)"
     d="m 80,0 c -0.745614,0 -1.25,4.7916666 -1.25,11.875 0,7.083334 0.504386,11.875 1.25,11.875 0.745614,0 1.25,-4.791666 1.25,-11.875 C 81.25,4.7916666 80.745614,0 80,0 Z M 46.597656,1.25 C 45.71878,1.25 45,1.4329172 45,1.65625 c 0,0.3760431 5.543979,17.002847 6.845703,20.53125 1.458446,3.953206 4.095266,0.662609 7.767578,-9.693359 C 62.368631,4.7240125 63.112232,1.25 62.023438,1.25 c -0.866605,0 -3.021096,4.359375 -4.789063,9.6875 -1.801172,5.428195 -3.515069,8.863119 -3.896484,7.8125 C 52.963507,17.71875 51.654848,13.359375 50.427734,9.0625 49.186706,4.716903 47.486499,1.25 46.597656,1.25 Z M 69.294922,7.5 c -4.166552,0 -4.972053,2.2538869 -0.97461,2.726562 4.69119,0.554708 5.036267,3.039622 0.546876,3.9375 -2.051968,0.410392 -4.398434,1.994056 -5.214844,3.519532 -1.271914,2.376591 -1.08733,3.09673 1.296875,5.027344 2.06148,1.669284 3.37706,1.934728 5.076172,1.02539 1.261356,-0.675061 3.038087,-0.941132 3.947265,-0.591797 1.273677,0.489386 1.550733,-0.875686 1.210938,-5.943359 C 74.677018,9.6461193 73.373547,7.5 69.294922,7.5 Z M 86.25,7.5 c -1.754529,0 -1.56749,12.93251 0.212891,14.712891 0.805011,0.805012 3.922603,1.357352 6.927734,1.226562 l 5.464844,-0.238281 -0.365235,-7.53711 C 98.059311,6.764949 95.789678,5.5738962 95.248047,13.962891 94.517137,25.283512 87.5,24.952799 87.5,13.597656 87.5,10.244337 86.9375,7.5 86.25,7.5 Z m 21.44531,0.029297 c -1.24566,-0.02853 -2.49196,0.2773842 -3.55469,0.953125 -3.79175,2.411015 -4.469663,9.599585 -1.29296,13.705078 1.44329,1.865279 10.90234,2.116127 10.90234,0.289062 0,-0.736311 -1.32488,-0.942051 -3.14062,-0.486328 -3.38959,0.850732 -6.85938,-1.18075 -6.85938,-4.017578 0,-1.207489 1.68055,-1.722656 5.625,-1.722656 6.14914,0 6.95126,-1.301841 3.67969,-5.972656 -1.20954,-1.7268548 -3.28328,-2.7004971 -5.35938,-2.748047 z M 107.5,10.625 c 1.75353,0 3.24631,0.81123 3.45117,1.875 0.25726,1.335796 -0.73473,1.875 -3.45117,1.875 -2.71644,0 -3.70842,-0.539204 -3.45117,-1.875 0.20486,-1.06377 1.69764,-1.875 3.45117,-1.875 z m -36.287109,5.076172 c 0.987958,0.01887 1.287109,0.706574 1.287109,2.40625 0,1.580831 -0.889083,3.21746 -1.976562,3.634766 -2.762866,1.060209 -3.013217,0.990631 -3.798829,-1.056641 -0.917873,-2.39194 0.1636,-3.984324 3.25586,-4.792969 0.49663,-0.129872 0.903102,-0.197698 1.232422,-0.191406 z M 5,41.25 5,52.5 c 0,6.666666 0.5092593,11.25 1.25,11.25 0.6875,0 1.25,-1.96875 1.25,-4.375 C 7.5,55.46687 7.8570925,55 10.839844,55 17.955562,55 21.427122,47.015769 15.972656,43.195312 14.444682,42.125079 11.350933,41.25 9.0976562,41.25 L 5,41.25 Z m 88.75,0 c -0.6875,0 -1.25,0.84375 -1.25,1.875 C 92.5,44.15625 93.0625,45 93.75,45 94.4375,45 95,44.15625 95,43.125 95,42.09375 94.4375,41.25 93.75,41.25 Z m 15.58789,0.972656 c -0.65491,0.06338 -1.31431,0.583562 -1.62891,1.527344 -0.22916,0.6875 0.52019,1.25 1.66602,1.25 1.14583,0 1.84896,-0.703125 1.5625,-1.5625 -0.29493,-0.884795 -0.9447,-1.278222 -1.59961,-1.214844 z M 101.25,43.75 c -0.6875,0 -1.25,0.797525 -1.25,1.771484 0,0.973957 -0.703125,2.028645 -1.5625,2.34375 -1.25,0.458332 -1.25,0.903516 0,2.228516 0.859375,0.910938 1.5625,4.310025 1.5625,7.552734 0,3.547075 0.62246,6.146077 1.5625,6.525391 2.42409,0.978141 3.23448,0.91909 3.98242,-0.291016 0.38038,-0.615461 -0.15042,-1.441724 -1.17773,-1.835937 C 101.72162,61.02979 101.729,50 104.375,50 c 1.03125,0 1.875,-0.5625 1.875,-1.25 0,-0.6875 -0.84375,-1.25 -1.875,-1.25 -1.03125,0 -1.875,-0.84375 -1.875,-1.875 0,-1.03125 -0.5625,-1.875 -1.25,-1.875 z M 9.796875,43.882812 c 0.298143,0.01752 0.634068,0.05036 1.013672,0.0957 4.329086,0.517082 6.509951,3.850888 4.277344,6.541015 C 14.184202,51.60841 12.107225,52.5 10.472656,52.5 7.8989391,52.5 7.5,51.901689 7.5,48.041016 c 0,-3.577314 0.2098759,-4.280829 2.296875,-4.158204 z m 44.939453,3.541016 c -1.133704,0.08618 -2.299281,0.607259 -3.392578,1.638672 -1.325184,1.250163 -1.771948,1.248595 -2.232422,-0.0078 -0.316532,-0.863657 -1.089969,-1.251889 -1.71875,-0.863282 -0.498787,0.308268 -0.843644,3.566365 -1.013672,7.486328 1.519933,-0.0455 3.041572,1.182273 3.533203,3.658204 0.227889,-0.02727 0.453682,-0.04939 0.677735,-0.0625 -0.379669,-1.057141 -0.536793,-2.333684 -0.367188,-3.759766 0.522657,-4.394606 3.8386,-6.59923 6.546875,-4.351563 C 59.104722,53.100145 59.386465,58.863535 57.25,61 c -1.057094,1.057094 -2.195326,1.46525 -3.244141,1.365234 -0.05908,0.623682 -0.234776,1.254469 -0.435547,1.84375 3.969656,1.299783 7.679688,-2.318225 7.679688,-7.898437 0,-5.49399 -3.112559,-9.145269 -6.513672,-8.886719 z m 83.843752,0.03516 c -1.12448,-0.0018 -2.28663,0.497565 -3.38281,1.59375 -1.23608,1.236068 -1.79166,1.172446 -2.73047,-0.3125 -0.80699,-1.27644 -1.18417,0.796096 -1.19727,6.572266 -0.0109,4.804428 0.51871,8.4375 1.23047,8.4375 0.6875,0 1.25,-2.463087 1.25,-5.472656 0,-5.826305 2.33629,-9.088032 5.60938,-7.832032 1.34117,0.514665 1.89062,2.554781 1.89062,7.015626 0,4.757094 0.45677,6.289062 1.875,6.289062 1.37444,0 1.875,-1.428219 1.875,-5.347656 0,-6.425811 -3.04649,-10.938038 -6.41992,-10.94336 z M 70.992188,47.5 C 67.142253,47.390014 63.75,50.845602 63.75,56.373047 c 0,3.47639 0.737833,5.253111 2.777344,6.681641 3.811417,2.669619 5.57902,2.452228 9.154297,-1.123047 C 79.397899,58.215381 79.628417,53.378417 76.25,50 74.58592,48.33592 72.742158,47.549994 70.992188,47.5 Z M 93.75,47.5 c -0.705129,0 -1.25,3.541666 -1.25,8.125 0,4.583334 0.544871,8.125 1.25,8.125 0.705129,0 1.25,-3.541666 1.25,-8.125 C 95,51.041666 94.455129,47.5 93.75,47.5 Z m 27.24219,0 c -3.84994,-0.109986 -7.24219,3.345602 -7.24219,8.873047 0,3.47639 0.73783,5.253111 2.77734,6.681641 3.81142,2.669619 5.57903,2.452228 9.1543,-1.123047 C 129.3979,58.215381 129.62841,53.378417 126.25,50 c -1.66408,-1.66408 -3.50784,-2.450006 -5.25781,-2.5 z M 37.978516,47.53906 C 33.713694,47.256844 28.75,51.223974 28.75,55.917969 c 0,1.620364 1.380859,4.326172 3.068359,6.013672 3.544336,3.544335 5.345594,3.789142 9.009766,1.222656 0.810243,-0.567516 1.471075,-1.28491 2.001953,-2.087891 l 0,-0.0078 c 0,-2.083692 0.619649,-3.542592 1.486328,-4.417969 C 44.570165,53.495244 43.383029,50.215151 40.75,48.457031 39.909921,47.896096 38.962705,47.60419 37.978516,47.539062 Z m 49.21875,0.07227 c -2.020744,-0.117279 -5.414629,1.086764 -6.445313,2.796875 -1.148974,1.906374 -0.683838,2.868875 2.824219,5.832031 4.617882,3.900596 4.305011,6.940931 -0.587891,5.712891 -3.058527,-0.767642 -4.24629,1.08065 -1.425781,2.21875 2.461094,0.993073 3.433738,0.917078 6.019531,-0.466797 3.536288,-1.892564 2.954421,-5.651495 -1.347656,-8.714844 C 82.250618,52.153554 82.290174,50 86.324219,50 87.658645,50 88.75,49.399181 88.75,48.666016 c 0,-0.675341 -0.634215,-1.001379 -1.552734,-1.054688 z m -59.597657,0.06836 c -0.496107,0.02619 -1.091603,0.312306 -1.589843,0.810546 -1.057342,1.05734 -1.898351,1.07799 -3.105469,0.07617 C 21.559639,47.450438 21.25,48.745832 21.25,55.472656 c 0,4.685371 0.542501,8.277344 1.25,8.277344 0.6875,0 1.25,-2.499921 1.25,-5.554688 0,-4.297462 0.618527,-5.98734 2.736328,-7.470703 1.505396,-1.054421 2.341074,-2.315176 1.855469,-2.800781 -0.182102,-0.182102 -0.444523,-0.259857 -0.742188,-0.24414 z m 125.218751,0.0625 c -2.4355,-0.13462 -4.66769,1.711396 -5.0918,4.560546 -0.28029,1.882952 0.56529,3.112061 2.86133,4.158204 3.747,1.707235 3.75755,5.322465 0.0156,5.59375 -4.57521,0.331696 -4.99111,0.615618 -2.47852,1.695312 3.55405,1.527229 3.79703,1.492561 6.8125,-0.949219 3.2745,-2.651523 2.37873,-6.207127 -1.98242,-7.865234 -4.04265,-1.537013 -3.75534,-4.660734 0.48242,-5.240235 3.01086,-0.411725 3.14489,-0.601151 1.08008,-1.53125 -0.56401,-0.254056 -1.13718,-0.390808 -1.69922,-0.421874 z M 109.375,48.125 c -0.6875,0 -1.41837,3.515625 -1.62305,7.8125 -0.3084,6.474315 -0.0296,7.8125 1.62305,7.8125 1.65265,0 1.93145,-1.338185 1.62305,-7.8125 C 110.79337,51.640625 110.0625,48.125 109.375,48.125 Z M 120.83008,50 c 3.5946,-0.126967 6.46154,5.097618 3.54883,9.542969 -1.06536,1.625952 -2.6553,2.957031 -3.53321,2.957031 -4.13479,0 -6.3223,-7.773401 -3.0957,-11 1.00945,-1.009446 2.07359,-1.464449 3.08008,-1.5 z m -84.603518,0.02344 c 0.731178,0.03902 1.534951,0.312468 2.38086,0.841796 2.523971,1.579375 3.316844,7.442031 1.330078,9.835938 C 36.655675,64.65553 32.5,61.657619 32.5,55.33594 c 0,-3.445811 1.533031,-5.429559 3.726562,-5.3125 z m 35.125,0.107421 c 3.107519,0.290841 5.300713,4.52114 3.197266,8.740235 -1.723208,3.45641 -4.561757,4.365977 -6.761719,2.166015 -2.101885,-2.101885 -1.93722,-7.898403 0.277344,-9.736328 1.113887,-0.924444 2.25127,-1.266868 3.287109,-1.169922 z M 78.044922,70 c -1.256232,0 -3.817212,1.470033 -5.691406,3.265625 -3.227417,3.092062 -3.558914,3.158167 -6.283204,1.25 C 64.488288,73.407533 62.630859,72.5 61.943359,72.5 c -0.6875,0 0.0013,0.875079 1.529297,1.945312 1.830025,1.281801 2.812032,3.308121 2.878906,5.9375 L 66.453125,84.375 67.951172,80.998047 C 70.180658,75.974805 75.082618,71.25 78.064453,71.25 c 2.631214,0 8.000927,3.06497 9.728516,5.552734 0.622153,0.895913 0.92454,0.850796 0.9375,-0.138672 C 88.754872,74.801973 81.054782,70 78.044922,70 Z M 57.742188,74.078125 C 55.552436,74.135449 50,77.675015 50,79.349609 c 0,1.199883 1.007164,0.779945 3.068359,-1.28125 C 54.755859,76.380859 56.81901,75 57.652344,75 c 0.833334,0 1.191319,-0.322353 0.796875,-0.716797 -0.149542,-0.149542 -0.39421,-0.213267 -0.707031,-0.205078 z M 61.324219,75 c -1.452814,0 -2.876009,8.329246 -1.931641,11.304688 1.124801,3.54384 2.046471,3.005449 1.126953,-0.658204 -0.428334,-1.706615 -0.188065,-4.800365 0.535157,-6.875 C 61.77791,76.69685 61.899444,75 61.324219,75 Z m 20.853515,1.25 c -4.322827,0 -10.964172,8.14847 -10.90039,13.375 0.0151,1.237266 1.051786,0 2.302734,-2.75 2.466584,-5.422375 5.951307,-9.011586 7.371094,-7.591797 0.489438,0.489438 -0.322549,3.100454 -1.802734,5.802735 -3.012282,5.499333 -2.055915,6.860956 1.037109,1.476562 C 83.138367,81.422175 84.13797,76.25 82.177734,76.25 Z M 50.900391,86.929688 c -0.354072,-0.01 -1.039391,0.749948 -2.322266,2.380859 -1.469956,1.868747 -3.860582,3.878202 -5.3125,4.464844 -2.275859,0.91955 -2.08047,1.076221 1.421875,1.144531 2.394967,0.04671 3.934229,-0.497145 3.75,-1.326172 -0.171875,-0.773438 0.390625,-1.663413 1.25,-1.978516 0.920139,-0.337385 1.5625,0.453561 1.5625,1.925782 0,1.375 0.703125,2.751673 1.5625,3.058593 2.472881,0.883171 2.595388,0.03115 0.439453,-3.046875 -1.101374,-1.572431 -2.001953,-3.935258 -2.001953,-5.25 0,-0.892434 -0.07422,-1.365282 -0.349609,-1.373046 z m 37.46875,0.246093 c -0.265814,0.129126 -0.689453,0.910157 -1.146485,2.199219 -3.084497,8.699856 -9.127302,13.71204 -12.828125,10.64062 -1.323857,-1.0987 -3.541718,-0.93234 -9.349609,0.69727 -4.187424,1.17493 -7.965835,2.70823 -8.398438,3.4082 -0.508958,0.82351 0.274333,0.93014 2.220704,0.30274 1.654381,-0.53328 4.574944,-0.92464 6.490234,-0.86914 1.91529,0.0555 3.186854,-0.37539 2.826172,-0.95899 -0.886128,-1.43381 3.652915,-2.52877 5.570312,-1.34375 1.174394,0.72581 1.132284,1.10286 -0.175781,1.62305 -1.335964,0.53129 -1.298206,0.69823 0.171875,0.76953 1.03125,0.05 3.5625,-0.82848 5.625,-1.95117 2.0625,-1.12269 5.418597,-1.94403 7.457031,-1.826172 5.23132,0.302462 10.106314,-2.015828 11.728516,-5.576172 C 99.854429,91.451252 99.708065,91.25 96.326172,91.25 c -5.051012,0 -7.560253,-1.166006 -7.675781,-3.570312 -0.02035,-0.423589 -0.121762,-0.581382 -0.28125,-0.503907 z M 66.25,87.5 c -1.386094,0 -1.732806,6.599228 -0.416016,7.916016 C 67.272666,96.8547 67.5,96.370885 67.5,91.875 67.5,89.46875 66.9375,87.5 66.25,87.5 Z m 23.867188,3.841797 c 0.242781,-0.0033 0.458555,0.06793 0.621093,0.230469 0.314624,0.314624 -0.28612,1.282693 -1.333984,2.152343 C 88.216317,94.710545 87.5,94.80543 87.5,93.976562 c 0,-1.227438 1.565133,-2.620558 2.617188,-2.634765 z m 6.232421,1.451172 c 0.371072,-0.01886 0.640651,0.03128 0.775391,0.166015 0.467694,0.467694 0.04111,1.624486 -0.949219,2.570313 C 93.965686,97.640085 86.25,99.396634 86.25,97.789062 c 0,-1.362045 7.502106,-4.864068 10.099609,-4.996093 z m 6.216801,0.412109 c -1.02662,0.0028 -1.31641,0.68834 -1.31641,2.435547 0,4.995595 -1.449449,7.038465 -6.746094,9.515625 -3.036613,1.42018 -3.853973,2.14013 -2.003906,1.76367 1.71875,-0.34973 3.96875,-0.65067 5,-0.66797 1.03125,-0.0173 2.99088,-2.41413 4.35547,-5.32812 1.36458,-2.913991 2.95882,-5.642259 3.54297,-6.062502 0.58416,-0.420243 -0.10985,-1.070543 -1.54297,-1.445312 -0.52226,-0.136574 -0.94686,-0.211862 -1.28906,-0.210938 z m -66.134769,1.878906 c -0.691684,-0.01303 -2.435753,0.395484 -5.021485,1.296875 -4.193173,1.461747 -7.08167,5.269741 -5.697265,7.509761 0.455274,0.73664 1.010804,5.64734 1.236328,10.91211 0.709679,16.56722 3.060729,34.38288 4.800781,36.39063 0.921003,1.06268 1.418753,2.63476 1.107422,3.49414 -0.311328,0.85937 -0.362969,1.5625 -0.115234,1.5625 0.247734,0 11.031779,3.59407 23.964843,7.98633 20.758411,7.04987 28.921746,10.57653 25.105469,10.84765 -1.209208,0.0859 10.478004,3.51058 12.324219,3.61133 0.556199,0.0303 0.66318,-0.50781 0.238281,-1.19531 -1.206986,-1.95295 2.707844,-1.48659 12.36523,1.47266 4.88662,1.49737 7.90289,2.94372 6.70313,3.21484 -1.19976,0.27114 -5.33876,-0.42517 -9.19727,-1.54688 -3.85851,-1.1217 -7.328449,-1.72427 -7.712887,-1.33984 -0.384438,0.38444 0.210595,0.69922 1.322266,0.69922 1.111671,0 2.475751,0.81445 3.033201,1.81055 0.69176,1.2361 3.7874,1.95276 9.75,2.25586 4.80484,0.24426 9.58008,0.53428 10.61133,0.64453 3.26741,0.34945 6.78953,-2.51076 18.86133,-15.31836 6.75654,-7.16839 9.7592,-10.99226 7.05469,-8.98242 l -4.70899,3.5 2.64844,-5.08008 c 2.87512,-5.51605 3.50226,-5.87551 6.14648,-3.51758 1.49831,1.33614 1.50371,1.23493 0.0371,-0.69727 -2.97792,-3.92333 -11.72764,-8.24107 -21.79883,-10.75781 -5.35234,-1.33752 -10.01969,-2.72087 -10.37304,-3.07422 -1.57339,-1.57339 -1.86166,-17.17584 -0.38281,-20.74609 2.01088,-4.85468 -0.53361,-23.78711 -3.19727,-23.78711 -1.37662,0 -1.37883,0.691478 -0.01,4.0625 0.90745,2.23438 2.01976,6.99528 2.47266,10.58008 0.78974,6.25107 0.63108,6.73704 -3.88281,11.875 -2.58857,2.94645 -3.54416,4.37305 -2.125,3.16992 3.45113,-2.92576 3.89953,-2.78162 3.89453,1.25 -0.002,1.89062 0.20225,6.3997 0.45312,10.01953 0.42895,6.18959 0.1795,6.85762 -4.1914,11.22852 l -4.64844,4.64843 -0.10938,-6.23046 c -0.0602,-3.42603 -0.54857,-9.04102 -1.08398,-12.47852 -0.81073,-5.2051 -0.99958,-3.94078 -1.13867,7.5625 -0.15478,12.8 -1.11399,16.8125 -4.01367,16.8125 -0.46471,0 -1.0829,-10.12637 -1.375003,-22.50195 -0.29273,-12.4022 -1.085808,-23.05456 -1.767578,-23.73633 -0.815895,-0.8159 -0.888303,2.69362 -0.210938,10.3125 0.990733,11.14357 0.928344,11.61683 -1.783203,13.42578 -1.545805,1.03125 -4.235317,3.17532 -5.976562,4.76367 -2.584628,2.3577 -2.687419,2.65723 -0.5625,1.63086 1.431544,-0.69145 3.327831,-2.1324 4.214843,-3.20117 3.26389,-3.93275 4.42552,-2.05773 4.802735,7.74609 0.494404,12.84955 -0.08538,14.56398 -6.402344,18.91016 l -5.384766,3.70508 -4.917968,-2.17774 C 79.086803,166.42945 72.9375,164.16028 68.125,162.58398 55.263674,158.37135 47.784277,155.63544 39.375,152.06836 l -7.5,-3.18164 -0.367188,-8.81836 c -0.210139,-5.0459 0.144624,-8.81836 0.830079,-8.81836 0.65888,0 5.684518,1.7127 11.167968,3.80664 l 9.970703,3.80859 0.865235,6.92188 c 1.197168,9.58182 2.199157,7.62881 1.181641,-2.30273 -0.751193,-7.33207 -1.073956,-8.04254 -3.488282,-7.67188 -1.463339,0.22468 -7.160156,-1.44117 -12.660156,-3.70312 -9.773529,-4.01951 -10.008448,-4.21775 -10.388672,-8.75391 l -0.388672,-4.64063 8.511719,3.20313 c 4.681931,1.76228 7.928553,2.61996 7.214844,1.90625 -0.713707,-0.71371 -4.368792,-2.33991 -8.123047,-3.61328 L 29.375,117.89648 29.001953,110.19727 C 28.779646,105.59868 29.139845,102.5 29.894531,102.5 c 0.694856,0 4.23627,1.13151 7.871094,2.51562 4.181565,1.59233 5.775289,1.8636 4.337891,0.73829 -1.249459,-0.97817 -4.765083,-2.51427 -7.8125,-3.41407 C 31.2436,101.44005 28.75,100.32521 28.75,99.861328 c 0,-0.463878 2.109375,-1.719705 4.6875,-2.789062 3.033463,-1.258221 3.883448,-1.971533 2.994141,-1.988282 z m 73.671879,0.07031 c -0.43425,0.01789 -0.80794,0.132162 -1.01563,0.339844 -0.41536,0.415365 0.32292,0.71052 1.64063,0.65625 1.45618,-0.05998 1.75301,-0.354875 0.75586,-0.753907 -0.45118,-0.180541 -0.94662,-0.260074 -1.38086,-0.242187 z m 0.3125,6.650396 c -0.22806,-0.0117 -0.55941,0.0587 -0.97657,0.21875 -1.06695,0.40943 -1.93945,0.96417 -1.93945,1.23437 0,1.01239 2.38116,0.44361 3.11523,-0.74414 0.2737,-0.44286 0.18088,-0.68953 -0.19921,-0.70898 z m -57.511723,5.01758 c -0.07009,-0.006 -0.141787,0.0314 -0.216797,0.11523 -0.584705,0.65313 -0.807309,3.57813 -0.494141,6.5 0.779143,7.26948 1.556641,6.67629 1.556641,-1.1875 0,-3.21039 -0.35507,-5.38375 -0.845703,-5.42773 z m 8.498047,1.92578 c -0.427496,-6.8e-4 -0.405257,6.60869 0.04883,14.6875 0.454085,8.07881 0.87596,16.33071 0.9375,18.33593 0.06154,2.0052 0.447167,3.30869 0.857422,2.89844 0.970365,-0.97036 -0.8235,-35.91987 -1.84375,-35.92187 z m 52.853516,2.53515 c -0.75283,-0.0185 -2.3865,1.0918 -3.63086,2.4668 -2.7829,3.07507 -4.02053,3.15624 -4.76367,0.3125 -0.31441,-1.20312 -0.58572,1.1875 -0.60352,5.3125 -0.0301,6.98488 0.0514,7.19951 1.17578,3.125 0.664,-2.40625 3.00336,-5.90717 5.19922,-7.7793 2.19587,-1.87213 3.37587,-3.419 2.62305,-3.4375 z M 70,116.33789 c -1.083561,0 -0.555935,0.75474 1.25,1.78711 1.71875,0.98253 3.96875,1.78711 5,1.78711 1.083561,0 0.555935,-0.75474 -1.25,-1.78711 -1.71875,-0.98253 -3.96875,-1.78711 -5,-1.78711 z m 25.683594,10.22852 C 94.501725,126.41694 85,133.45267 85,134.54102 c 0,0.31901 2.570827,-1.18977 5.712891,-3.35157 3.142065,-2.1618 5.416999,-4.22558 5.05664,-4.58593 -0.02021,-0.0202 -0.04781,-0.0323 -0.08594,-0.0371 z M 68.75,130.08398 c -1.087426,0.003 -0.562377,0.75497 1.25,1.79102 4.108235,2.34842 6.138164,2.37425 3.050781,0.0391 C 71.716254,130.90468 69.78125,130.08198 68.75,130.08398 Z M 67.572266,141 c -0.544091,-0.0254 -0.818782,0.0554 -0.681641,0.27734 0.402474,0.65121 2.533847,1.70346 4.734375,2.33985 4.717596,1.36429 7.83041,1.67024 6.832031,0.67187 C 77.366051,143.19809 69.929993,141.11011 67.572266,141 Z m 52.890624,2.34375 c 1.55996,-0.0367 3.29628,0.65984 4.12695,2.00391 0.50149,0.81142 -0.20692,1.03312 -1.89453,0.59179 C 120.87654,145.46384 120,145.80771 120,146.99609 c 0,0.96868 -2.32995,3.86898 -5.17773,6.44532 -2.84777,2.57634 -6.28156,5.45937 -7.63086,6.4082 -5.00989,3.523 -0.15416,-2.80247 5.16211,-6.72461 2.79561,-2.0625 4.89151,-4.3125 4.6582,-5 -0.23331,-0.6875 0.055,-2.18311 0.64062,-3.32422 0.49045,-0.95569 1.59725,-1.42849 2.81055,-1.45703 z m 11.21875,6.55859 c 1.36893,0.004 3.39912,0.44329 6.9668,1.32227 l 7.92187,1.95312 -3.39648,4.03516 c -3.94466,4.68797 -4.61864,4.78135 -11.29883,1.56055 l -5,-2.41016 6.5625,0.72852 c 4.39163,0.4882 6.5625,0.27434 6.5625,-0.64844 0,-1.54939 -6.49963,-5.23959 -9,-5.10938 -0.89352,0.0465 -0.35937,0.69539 1.1875,1.44141 3.9636,1.91158 3.49251,3.14076 -0.95312,2.48828 -4.6249,-0.67879 -5.18522,-1.57382 -2.54688,-4.06445 0.91875,-0.86732 1.62521,-1.30044 2.99414,-1.29688 z m -8.48437,0.51758 c 0.33264,0.0329 0.55273,0.30082 0.55273,0.75586 0,0.72808 -0.5625,1.32422 -1.25,1.32422 -0.6875,0 -1.25,-0.2476 -1.25,-0.55078 0,-0.30317 0.5625,-0.89932 1.25,-1.32422 0.25781,-0.15934 0.49768,-0.22483 0.69727,-0.20508 z m -37.556645,3.17969 c -0.200141,-0.0175 -0.336574,1.21289 -0.326172,3.27539 0.01387,2.75 0.271323,3.72872 0.570313,2.17383 0.298998,-1.55488 0.287475,-3.80488 -0.02539,-5 -0.07822,-0.29878 -0.152036,-0.44339 -0.21875,-0.44922 z M 124.30078,157.5 c 0.99067,0 2.14932,0.5625 2.57422,1.25 0.4249,0.6875 -0.38521,1.25 -1.80078,1.25 -1.41558,0 -2.57422,-0.5625 -2.57422,-1.25 0,-0.6875 0.8101,-1.25 1.80078,-1.25 z m 6.875,5 c 0.64693,0 1.52432,0.5625 1.94922,1.25 0.4249,0.6875 -0.10395,1.25 -1.17578,1.25 C 130.8774,165 130,164.4375 130,163.75 c 0,-0.6875 0.52886,-1.25 1.17578,-1.25 z m 9.25,2.5 c 0.54074,0 -2.54282,3.9375 -6.85156,8.75 -7.30476,8.1588 -9.82422,10.15421 -9.82422,7.77734 C 123.75,180.25644 139.14342,165 140.42578,165 Z m -41.89453,3.75391 c 0.490061,0.005 0.86904,0.25055 1.191406,0.74023 0.496054,0.75351 2.449224,1.75019 4.339844,2.21289 1.89063,0.4627 3.4375,1.39201 3.4375,2.06641 0,0.6744 -0.14062,1.12327 -0.3125,0.99609 -0.17187,-0.12717 -3.30286,-0.43931 -6.95703,-0.69336 -6.748717,-0.46921 -7.870935,-1.92339 -3.558595,-4.61133 0.76799,-0.47872 1.369314,-0.71587 1.859375,-0.71093 z m 24.66602,6.66601 c 0.33264,0.0329 0.55273,0.30082 0.55273,0.75586 0,0.72808 -0.5625,1.32422 -1.25,1.32422 -0.6875,0 -1.25,-0.2476 -1.25,-0.55078 0,-0.30317 0.5625,-0.89932 1.25,-1.32422 0.25781,-0.15934 0.49768,-0.22483 0.69727,-0.20508 z m -2.72657,3.56446 c 0.0853,-0.0314 0.18132,-3.3e-4 0.28516,0.10351 0.41538,0.41536 0.45875,1.49413 0.0977,2.39649 -0.39903,0.99716 -0.69391,0.70033 -0.75391,-0.75586 -0.0407,-0.98828 0.11531,-1.64997 0.37109,-1.74414 z M 15.167969,193.62695 c -3.820943,0.0864 -7.4449105,2.31634 -9.6093752,6.50196 -2.6271657,5.08038 -1.3613286,10.22238 3.5273437,14.33593 3.1550215,2.65479 4.7518105,3.14781 8.3457035,2.57618 9.767588,-1.55357 13.393889,-12.6569 6.414062,-19.63672 -2.615084,-2.61509 -5.70589,-3.8445 -8.677734,-3.77735 z m 32.43164,0.0254 c -8.393101,-0.36089 -16.616666,10.05846 -10.591797,18.66016 1.104811,1.57734 3.214186,3.35271 4.6875,3.94727 12.641256,5.10138 22.354539,-9.8232 12.685547,-19.49219 -2.067754,-2.06776 -4.431181,-3.01419 -6.78125,-3.11524 z m 94.093751,0.0742 c -4.54848,-0.0338 -8.67541,2.79326 -10.38477,7.97266 -1.71069,5.18344 -0.27984,9.46138 4.39258,13.13672 11.38243,8.95341 25.28803,-8.52228 14.20313,-17.84961 -2.60097,-2.18857 -5.48185,-3.23946 -8.21094,-3.25977 z m -33.43164,0.006 c -2.44053,-0.085 -4.99319,0.66121 -7.37305,2.5332 -6.2234,4.89532 -5.416622,15.54836 1.47071,19.42188 4.57238,2.57156 11.37594,1.38327 14.82812,-2.58984 7.08153,-8.15014 -0.2096,-19.06171 -8.92578,-19.36524 z m -30.285158,0.14844 c -5.029206,-0.19915 -10.022443,2.83065 -11.660156,7.79297 -1.719333,5.20963 -0.295677,9.48047 4.384766,13.16211 7.496945,5.89709 18.083215,0.6009 18.009766,-9.00977 -0.04294,-5.6178 -1.535287,-8.34096 -5.816407,-10.62109 -1.561612,-0.83172 -3.241566,-1.25784 -4.917969,-1.32422 z m 0.238282,2.25195 c 2.380362,0.10054 4.680884,0.98252 6.216797,2.67969 3.358465,3.71106 3.061825,10.90654 -0.570313,13.84766 -4.050399,3.27981 -9.587702,2.97676 -13.292969,-0.72852 -3.749613,-3.74961 -3.915226,-8.01959 -0.478515,-12.38867 1.870689,-2.3782 5.064534,-3.53942 8.125,-3.41016 z m 64.273436,0.0996 c 2.219,0.0534 4.48731,0.83045 6.37305,2.35742 4.01364,3.25005 4.01364,10.82027 0,14.07032 -4.0504,3.27981 -9.58771,2.97676 -13.29297,-0.72852 -3.74963,-3.74961 -3.91523,-8.0196 -0.47852,-12.38867 1.77319,-2.25425 4.54545,-3.37919 7.39844,-3.31055 z m -34.38672,0.0137 c 2.58184,-0.0444 5.17975,0.78522 6.89844,2.50391 3.48176,3.48176 3.29082,10.07086 -0.39258,13.53125 -8.74893,8.21919 -21.492162,-4.51088 -13.30859,-13.29492 1.65528,-1.77674 4.2209,-2.69582 6.80273,-2.74024 z m -93.113279,0.004 c 5.246804,0 7.395823,1.15132 9.40625,5.03906 2.141825,4.14183 0.515959,10.50311 -3.193359,12.48828 C 15.105679,217.03955 6.25,212.34329 6.25,205.84961 c 0,-4.5987 4.552434,-9.59961 8.738281,-9.59961 z m 31.667969,0 c 8.470588,0 12.783755,10.31695 6.701172,16.03125 C 47.214546,218.05218 37.5,213.73454 37.5,205.23242 c 0,-5.24096 3.813077,-8.98242 9.15625,-8.98242 z m 95.70898,1.25 c -1.69483,0 -1.33098,3.44592 0.44727,4.23438 0.85937,0.38107 0.4375,0.56788 -0.9375,0.41601 -2.07781,-0.22949 -2.46945,0.41342 -2.31445,3.80664 0.10257,2.24546 0.50696,4.91733 0.89843,5.9375 1.28474,3.34798 2.95792,1.9463 3.7754,-3.16601 0.87218,-5.4543 -0.089,-11.22852 -1.86915,-11.22852 z M 44.375,198.75 c -2.736145,0 -3.125,0.54324 -3.125,4.36133 0,2.39839 0.984375,5.51393 2.1875,6.92383 1.36044,1.59426 3.369015,2.4261 5.3125,2.20117 2.505604,-0.28999 3.202065,-1.15142 3.511719,-4.34961 C 52.728202,203.06876 49.000264,198.75 44.375,198.75 Z m 61.14844,0 c -1.17602,0 -5.550186,7.69616 -4.9375,8.6875 1.02205,1.65371 7.96981,1.02006 7.32422,-0.66797 -0.28504,-0.74529 0.7534,-1.3077 2.30859,-1.25 4.57326,0.16992 4.32416,-3.74844 -0.3418,-5.375 -2.20019,-0.76699 -4.15917,-1.39453 -4.35351,-1.39453 z m -28.181643,0.64258 c -2.516551,0.009 -4.844794,1.69284 -4.814453,4.71484 l 0.02734,2.76758 2.300781,-2.99219 C 77.508557,200.4322 80,201.27574 80,205.625 c 0,3.70025 -2.018196,5.08199 -4.460938,3.05469 -1.017746,-0.84466 -2.255976,-1.12879 -2.753906,-0.63086 -0.49793,0.49792 0.184131,1.70269 1.517578,2.67773 3.184558,2.32861 3.974036,2.24667 6.947266,-0.72656 2.808134,-2.80814 3.041128,-4.15449 1.285156,-7.43555 -1.163908,-2.17478 -3.236042,-3.17914 -5.193359,-3.17187 z M 45,200 c 1.375,0 2.5,0.5625 2.5,1.25 0,0.6875 -0.581362,1.25 -1.291016,1.25 -0.709655,0 -1.798153,1.26562 -2.419922,2.8125 -1.026107,2.55281 -1.137074,2.4374 -1.208984,-1.25 C 42.516582,200.80692 42.996567,200 45,200 Z m -32.283203,1.63672 c -1.959501,-0.14329 -4.1711448,2.62535 -3.2539064,5.01562 C 10.311048,208.86261 15,209.61358 15,207.53906 c 0,-0.66592 -0.84375,-0.88595 -1.875,-0.49023 -1.187304,0.45561 -1.875,-0.019 -1.875,-1.29102 0,-1.10481 0.95625,-2.00781 2.125,-2.00781 1.659764,0 1.793806,-0.3312 0.615234,-1.50977 -0.383847,-0.38384 -0.821245,-0.57044 -1.273437,-0.60351 z m 7.496094,0.0391 c -2.008935,-0.0744 -4.434506,2.79353 -3.548829,5.10156 0.812785,2.11809 5.835938,2.77378 5.835938,0.76172 0,-0.66592 -0.84375,-0.88595 -1.875,-0.49023 -1.187304,0.45561 -1.875,-0.019 -1.875,-1.29102 0,-1.10481 0.95625,-2.00781 2.125,-2.00781 1.659764,0 1.793806,-0.3312 0.615234,-1.50977 -0.373575,-0.37357 -0.813743,-0.54729 -1.277343,-0.56445 z M 48.833984,203.75 c 2.078748,0 2.50581,0.66993 2.1875,3.42773 -0.238553,2.06681 -1.264638,3.58965 -2.583984,3.83985 -1.698808,0.32218 -2.1875,-0.44236 -2.1875,-3.42578 0,-3.04948 0.533592,-3.8418 2.583984,-3.8418 z M 115,205 c -0.6875,0 -1.25,0.5625 -1.25,1.25 0,0.6875 0.5625,1.25 1.25,1.25 0.6875,0 1.25,-0.5625 1.25,-1.25 0,-0.6875 -0.5625,-1.25 -1.25,-1.25 z m -2.46289,3.15234 c -0.26667,0.0327 -0.53992,0.0988 -0.80664,0.20118 -1.51521,0.58144 -1.58779,0.96218 -0.33203,1.73828 1.89601,1.1718 3.94254,0.22153 2.95703,-1.37305 -0.28274,-0.45748 -1.01835,-0.66438 -1.81836,-0.56641 z"
     id="path3663"
     inkscape:connector-curvature="0"
     transform="matrix(1.0469763,0,0,1.0469763,-13.524804,-63.131361)" />
</svg>
